<svg id="Layer_1" data-name="Layer 1" xmlns="http://www.w3.org/2000/svg" viewBox="0 0 957.95 268.01"><defs><style>.cls-1{fill:#9cdce2;}.cls-2{fill:#e1f3f4;}.cls-3{fill:#80b7b7;}.cls-4{fill:#202020;}</style></defs><title>airplane</title><path class="cls-1" d="M305,199.55s11.76-31,39.91-45L579.66,82.28s64.66-.47,78.44,5.89-59.27,43-59.27,43S341.86,212.48,305,199.55Z" transform="translate(-25.62 -23)"/><path class="cls-2" d="M320,174.77l36.95-5.8s5.33,4.52,2.73,9.08l-46.24,5.75Z" transform="translate(-25.62 -23)"/><ellipse class="cls-2" cx="384.65" cy="168.26" rx="5.24" ry="6.1" transform="translate(190.22 529.67) rotate(-89.92)"/><ellipse class="cls-2" cx="406.19" cy="162.36" rx="5.24" ry="6.1" transform="translate(217.63 545.31) rotate(-89.92)"/><path class="cls-3" d="M511.15,151.17l-55.44,17.75L546.21,241s11.55,7.27,21.87,5.48Z" transform="translate(-25.62 -23)"/><path class="cls-3" d="M495.59,112.55l-55.45,17.63,17.31-92.37S461.06,27.24,470.28,23Z" transform="translate(-25.62 -23)"/><polygon class="cls-3" points="629.23 71.28 625.24 45.23 636.21 40.47 641.32 67.58 654.74 85.15 643.25 88.67 629.23 71.28"/><ellipse class="cls-2" cx="548.22" cy="123.2" rx="5.24" ry="6.1" transform="translate(398.62 648.25) rotate(-89.92)"/><ellipse class="cls-2" cx="526.36" cy="129.84" rx="5.24" ry="6.1" transform="translate(370.16 633.01) rotate(-89.92)"/><path class="cls-4" d="M312.6,189.94c.22-.05.14-.27-.44-.31l-.46.27Z" transform="translate(-25.62 -23)"/><path class="cls-4" d="M308.78,188.91c-.7.12-1.48.46-1,.74.67-.34.82-.19,1.57-.52.59,0,1,.17.9.28.21-.09.88.18,1.22,0a4.37,4.37,0,0,0-2.71-.3C308.52,189,308.73,189,308.78,188.91Z" transform="translate(-25.62 -23)"/><path class="cls-4" d="M260.43,217.61l.32-.18A1.5,1.5,0,0,0,260.43,217.61Z" transform="translate(-25.62 -23)"/><path class="cls-4" d="M227.54,229.31c.27,0,.38-.09.39-.12C227.68,229.24,227.48,229.29,227.54,229.31Z" transform="translate(-25.62 -23)"/><path class="cls-4" d="M221.48,229.36h.35A.7.7,0,0,0,221.48,229.36Z" transform="translate(-25.62 -23)"/><path class="cls-4" d="M260.43,217.61l-.83.48C259.61,218.22,260,217.87,260.43,217.61Z" transform="translate(-25.62 -23)"/><path class="cls-4" d="M301.11,190.53a2.65,2.65,0,0,0,.47-.2l-.45.14Z" transform="translate(-25.62 -23)"/><path class="cls-4" d="M272.12,207.17l.21-.2a1.14,1.14,0,0,0,.09-.26Z" transform="translate(-25.62 -23)"/><path class="cls-4" d="M281.22,199.15c-.23.16-.13.44-.13.6a1.17,1.17,0,0,1,.35-.52S281.34,199.16,281.22,199.15Z" transform="translate(-25.62 -23)"/><path class="cls-4" d="M298.22,190.15l.31-.13Z" transform="translate(-25.62 -23)"/><path class="cls-4" d="M265.68,212.91a.25.25,0,0,0-.15,0S265.61,212.93,265.68,212.91Z" transform="translate(-25.62 -23)"/><path class="cls-4" d="M35.85,279.77s0,0,0,0S35.79,279.84,35.85,279.77Z" transform="translate(-25.62 -23)"/><path class="cls-4" d="M25.94,289.69l.11-.17a.64.64,0,0,0-.1-.13Z" transform="translate(-25.62 -23)"/><path class="cls-4" d="M210.38,229.19h.05C210.72,229.16,210.56,229.17,210.38,229.19Z" transform="translate(-25.62 -23)"/><path class="cls-4" d="M114.3,258.18c1-.6-1.19,1.52.29.54C114.4,258.75,115.48,257.32,114.3,258.18Z" transform="translate(-25.62 -23)"/><path class="cls-4" d="M300.8,190.56l-.47.12A2.81,2.81,0,0,0,300.8,190.56Z" transform="translate(-25.62 -23)"/><path class="cls-4" d="M114.59,258.72h0l.16-.1Z" transform="translate(-25.62 -23)"/><path class="cls-4" d="M184.62,229.41a.76.76,0,0,0,.27.11S184.82,229.46,184.62,229.41Z" transform="translate(-25.62 -23)"/><path class="cls-4" d="M203.83,229.69l-.47,0A3,3,0,0,0,203.83,229.69Z" transform="translate(-25.62 -23)"/><path class="cls-4" d="M174.67,230.68a2.64,2.64,0,0,0-.7.06l.11,0A1.39,1.39,0,0,1,174.67,230.68Z" transform="translate(-25.62 -23)"/><path class="cls-4" d="M164.42,232.55h.2l.32-.08Z" transform="translate(-25.62 -23)"/><path class="cls-4" d="M60.34,261.73a1.39,1.39,0,0,1-.52-.09C60,261.78,58.65,262.32,60.34,261.73Z" transform="translate(-25.62 -23)"/><path class="cls-4" d="M301.07,190.38c0,.08-.12.13-.27.18l.33-.09C301.15,190.42,301.14,190.38,301.07,190.38Z" transform="translate(-25.62 -23)"/><path class="cls-4" d="M174.55,232.93c-.54,0-1.07.14-1.61.2C173.39,233.09,174,233,174.55,232.93Z" transform="translate(-25.62 -23)"/><path class="cls-4" d="M122.4,269.41V269A1.24,1.24,0,0,0,122.4,269.41Z" transform="translate(-25.62 -23)"/><path class="cls-4" d="M168.21,234a4.22,4.22,0,0,0-.94,0,1.26,1.26,0,0,0-.17.11Z" transform="translate(-25.62 -23)"/><path class="cls-4" d="M59.81,261.64h0Z" transform="translate(-25.62 -23)"/><path class="cls-4" d="M50.68,266.85c1.27-.82.41-.69.57-1,1.52-1,.87-.2,1.49-.35a22.12,22.12,0,0,1,2.32-1.71c.09,0,.24,0,.1.13,1-.8,3.24-1.48,4.45-2.27a.4.4,0,0,1,.2,0c-.27-.1-.37-.27-.37-.41.66-.23,1.16-.64,1.48-.48a1.06,1.06,0,0,0-.58.36c.22-.12.44-.21.66-.32.73.14-.91.4-.82.66a18.67,18.67,0,0,1,3.9-1.42c.29.26-2.43.74-.95.67-.55.1-1.1.2-1.65.32,1.37.15-1,.26.31.47,2.11-.49,2.3-.82,4.46-1.17.45-.29-.22-.24.23-.53,3-.89,2.56.42,4.77-.35a3.16,3.16,0,0,1,2.41-.7l-.52.44c2.13-.17,1.17-.67,3.43-.6-.39.18-1.67.27-1.34.28,1.47.18,1-.29,2.13-.38l.25.32c2.28-.2,4.81-.57,7.35-.74-.13.11-.57.24,0,.32a72.22,72.22,0,0,1,10-.06l1.18-.31c.27,0,.51.12.21.18,1.21.09.06-.19.64-.31s.91.16.48.25a37.76,37.76,0,0,1,8.32-.26l-.44.09c1.75.13,2-.59,3.6-.3l-.31,0c1.9.08,3.9.09,5.79.14a13.8,13.8,0,0,1,4.85.64c.28-.16,1.09.11,1.68.53s1,1,1.29.88a4.27,4.27,0,0,1,.38,1.64,18.94,18.94,0,0,1,0,2.35c0,.75.35,1.14.33,2.13h-.31l.2,1.39-.44.68,0,.94c.06-.36.22-.77.3-.71a8,8,0,0,1-.81,3.53c-.07,1.14-.2,2.27-.35,3.4-.1-.09,0-.66,0-1.12-.06,1.84-.37.26-.46,1.93.12-.2.15.16.2.21-.39.76-.92,2.53-1.41,3.8l-.08-.32a24.63,24.63,0,0,1-1.79,3.34,14.53,14.53,0,0,1-1.17,1.57l-.67.68a9,9,0,0,1-.74.62c.79-.5.87-.1.26.43l-.44-.07c-.3.45.75-.37,0,.42-.89.52-.77,0-.35-.34a9.68,9.68,0,0,1-1,.7c-.11-.05.12-.22.13-.36-.35.42-2,.59-2.54,1.06l-.09-.07c-.62.2-1.18.26-1.68.38s-1,.13-1.39.13a9.38,9.38,0,0,1-1.3,0l-.68-.07-.71-.17c-.13.29-.87,0-1.54-.1a7.58,7.58,0,0,1-3.11-3.77c-.51-1.17-.34-.28-.67-.8.12-.08.08-.57.07-.93s0-.58.17-.11a10.51,10.51,0,0,1,0-2.61,17.75,17.75,0,0,1,.79-3.12c-.22.27-.4.6-.41.38.16-.54.62-1.11.69-1l0,.14a14.05,14.05,0,0,1,3.11-4.66,29.08,29.08,0,0,0,3.43-3.9l-.08.14c.59-.78,1.14-1.6,1.78-2.34,1-.93-.43.71.39.11a22.57,22.57,0,0,1,2.7-3,28.3,28.3,0,0,0,2.6-2.47,7.59,7.59,0,0,0,1.7-1.11c.64-.49,1.33-1.08,2-1.7s1.42-1.26,2.12-1.81a15.29,15.29,0,0,1,2-1.3l-.23-.05c.46-.56.74-.43,1.18-.71-.14-.06-.71.33-.42,0,4.67-3.7,10.34-6.65,15.81-9.26,2-.93.74-1.38,3.45-2.23l-.58.65a24,24,0,0,1,3-1.55c1.05-.47,2.1-.93,3.16-1.36l3.2-1.2,1.56-.63c.53-.19,1.05-.38,1.56-.59-.23.15-.2.25-.61.38a8.13,8.13,0,0,0,3.23-1.23c.67-.19.21.12.64.09.93-.14,2.17-.91,2.71-.81.1,0-.23.14-.39.2.56-.27,2.74-.7,2.11-.82,1.63-.31,3.06-.81,4.38-.95a5.91,5.91,0,0,1,1.72-.47c.63-.08,1.18-.17,1.28-.4,0,.46,2.92-.11,3.92-.49-.33.17.92,0,.54.27,1.18-.14,2.26-.35,2-.56a10,10,0,0,0,3.18-.27,4.57,4.57,0,0,1,2.48,0c3.52-.48,6.83-.71,10-.84-.11.45-3.55.08-3.4.55a57,57,0,0,1,7.82-.5c.78.07-.45.19-.71.27,3-.18,5.89.1,8.61-.12,0,0-.3.09-.58.12.54,0,1.25.08,1.19-.13l-.52.05c-.85-.3,2.13-.59,2.23-.75-.91.58,2.69.18,1.23.91.36,0,.8-.14.72-.27.53,0,.69.12.16.27,1.93-.1,1.24-.32,3-.31,0,.1-.35.14-.53.25a11.72,11.72,0,0,1,3.24-.32c-.09.06.08.14-.36.14,1.27,0,2.35-.17,3.45-.29a21.43,21.43,0,0,1,3.64-.22c-.8.46.95.11,1.12.47l1.49-.22-.62-.14c1.32-.09,2.45-.44,3.58-.4l-1,.23c.82-.07,1.63-.19,2.45-.31l-1.4,0c1.3-.35-.19-.46,1.55-.55a19,19,0,0,1,2,0h0a10.34,10.34,0,0,1,2.24-.47c.27.07-.14.44,0,.49.58-.42,3-.57,3.75-1.08-.25.14-.22.34-.13.36l.48-.37c.6-.06.7,0,.64.13,1.79-.36-.67-.33,1.49-.62a2.52,2.52,0,0,1-.41.2c2.17-.33,4-1.26,6-1.71.68.18-1.65.6-.91.7a29.24,29.24,0,0,0,4.11-1.74c.67-.33,1.36-.6,2-.94s1.29-.68,1.92-1l-.48.2c.1-.67,2-.66,3.12-1.6-.28.21-.25.49-.2.39a33.17,33.17,0,0,0,5.57-4l-.21.32c1-.56,2.43-1.72,3.42-2.44.19-.33.74-.76.29-.64,3.41-1.79,5.14-5,8-6.73-.29.27-.62.73-.38.51l2-2c-.32,0-.37.15-.92.42a6.22,6.22,0,0,1,1.2-1.43c-.83,1,.26.26.75,0-.12,0,0-.18-.12-.2,1.37-.69-.13-.51,1.55-1.66v.17a15,15,0,0,1,1.56-1.65c.43,0-.52.63-.41.83.83-.78,1.35-1.87,2.31-2.34-.32.37-.84.83-1.16,1.2a7,7,0,0,0,1.76-1.15l-.07,0,1.57-1.12-.43.25c.65-1.45,2.16-1.92,3.43-3.42-1.24,1.46-.1.39,0,.72.43-.23,1.09-.58,1-.39.6-.7,1.32-.71,2.19-1.69.1,0,.81-.51.77-.19.94-.7-.32,0-.3-.15,1.36-1.26,3.8-1.87,5.93-3.35a45.82,45.82,0,0,1,4.14-2.4c.72-.07-.43.52-.42.53a16.7,16.7,0,0,0,2.91-.89c-.19.13.05.15.39.18.82-.21.47-.49,1.6-.58a4.43,4.43,0,0,1-.75.57c.47-.17.95-.32,1.43-.47a14,14,0,0,1,1.48-.41c.29.13-.59.32-.92.51.56-.15,1.3-.25,1.94-.37a6,6,0,0,0,1.36-.37,6.34,6.34,0,0,0-.75-.07c.42-.05.23.21-.08.29-1,.3-1.44,0-1.51-.05l.73-.13a2.7,2.7,0,0,0-2,.07l-1.25.38a11.51,11.51,0,0,1-1.17.35l.51-.55-1.42.7c-.34,0-.62-.18.08-.44-1.1.1-.88.41-1.84.46-.11,0-.07,0,0-.08-.33.14-.65.3-1,.46.17-.15-.26-.21.37-.38-1.9.41-2.76,1.39-3.54,1.39l.13-.09c-2.35,1.23-.11.38-1.74,1.55-.51,0-1-.05-1.53-.06l-.08.4c-.25.12-.73.35-.71.2-.79.66.22,0-.2.48a11.94,11.94,0,0,0-2.06,1.11c-.65.43-1.2.76-1.46.64-.27.45,1.15-.53.06.36-.63-.23-1.28,1-2.4,1.48.14-.44,1.16-1,0-.48-.32.8-2,1.3-2.69,2,.18.31-1.63,1.49-2.84,2.69,0-.17-2.54,1.94-3.79,2.91v-.08c0,.48-1.23,1.52-2.05,2.38-.11-.2,0-.4.39-.91l-.82.75a3.61,3.61,0,0,1-.83,1.06l0-.39A34.79,34.79,0,0,1,268,211c.09.26,1.6-.48.22,1-.15-.05-.36-.18,0-.57a3.9,3.9,0,0,1-.68.68l.44-.71c-.71.5-.2.45-.73.89-.13-.16-.48.23-.51.05s.51-.34.65-.57a7.89,7.89,0,0,1-1.72,1.12c.12,0,.18.2-.24.59-1.11,1-.54.14-1.26.62-.17.34-1,.82-.82,1.07a1.11,1.11,0,0,1-.66.26c-.5.59-2.77,2.21-1.9,1.94l.17-.1-.09.09h0c-1.82,1.75-4.3,2.89-6.36,4.23l-.05-.08q-.45.32-1,.63l-1,.55a14.73,14.73,0,0,0-1.72,1.06c-.39.19-1,.3-.88.11a8.42,8.42,0,0,1-2.64,1.12c1-.58-.42,0,1-.55a10.77,10.77,0,0,0-3.11,1.26c.43-.4-1.14,0-1.78.3l1-.13c-.73.27-1.39.44-2.06.63l.26-.43a11.38,11.38,0,0,0-2,.55c-.65.18-1.26.4-1.86.61a7.46,7.46,0,0,1-3.49.64c-.74.36,1.63-.1,1,.28-1.37.18-2.86,0-3.28,0-1.87.14-1.67.72-3.65.84.27.09.54.38-.92.66-1.38.11-1.74-.32-.88-.5.33-.05.49,0,.48,0,.44-.09,1-.21.46-.27l-.17.13c-.69,0-2.58.13-2.15-.1-1,.19-.43.23.35.23-1.78-.05-2.76.21-4.59.19.3,0,.57.18.28.19-2.68-.05-1.16.27-3,.39-1-.14.36-.44-1.46-.23-1.12-.11-.25-.31.19-.42a17.93,17.93,0,0,1-4.06-.13l.88-.11a11.54,11.54,0,0,1-1.39.07l.5.23c-.51,0-.95,0-.94-.13-.53.15.41.4-.65.61-.68-.13-2.09.12-2.33-.2,2.16.12-.23-.32,1.59-.36a7.11,7.11,0,0,1-1.3,0c-.07,0,.08-.07.22-.08-2.07-.3-.95.36-3.1.33.28-.18-.49-.35-.84-.31.86,0,.41.3-.39.42a11.37,11.37,0,0,0-2.22.06l.82.08a6.33,6.33,0,0,1-1.93.19c-.08-.14.88-.09.53-.15-1.07.29-2.4-.36-3.9-.17-.68-.12-.06-.33-.66-.42-1.68.22-1.81-.25-3.57-.07.5.24.59.18-.65.41l2.89-.15-1.85.33c.87,0,1.84-.14,2.36-.09-.89.19-.79.13-.38.33-1.19-.37-2.36.19-3.74,0l0-.59c-2.08-.23-3.68.3-6.38.26l.87.07c-.36.25-1.67.09-2.53.22.07-.2-.48-.26-.86-.37.05.13-2,.09-2.2.51l-1.22-.18c-2.19,0-2.44.75-4.52.92.6-.29-.36-.32,1-.63-.7.08-1.33.11-1.32.25-.43-.08-1.9.48-2.57.37a2.3,2.3,0,0,1-1.12.46c-.09,0,0-.1,0-.1s-1.19.33-.48.44a14.26,14.26,0,0,0-4,.4,15.71,15.71,0,0,1-3.81.6c-1.49.35-3.23,1-4.57,1.31.07-.08,0-.1.24-.15-1.9.35-1,.8-3.12,1.27-1.15,0,1.05-.52.35-.42-.48-.53-2.47.88-4,1l.33-.15c-1.16.1-2.5,1.17-4.23,1.75,0,0,.06-.09,0-.1-1.07.71-3.19,1.75-4.77,2.53.4-.45.68-.44.27-.54-.71.34.38.29-1,1-.53.06-1.61.43-1.86.26.44-.23.89-.45,1.34-.64-.85,0-1.73.84-2.47,1.11l0-.18a13.14,13.14,0,0,0-2,1.22,19.33,19.33,0,0,1-2.09,1.29l.28,0c-1,1-1.09.34-2.12,1.23l-.54-.15c-.75.48-2.49,1.88-3.79,2.76a25,25,0,0,1,3-2.52,14.53,14.53,0,0,0-2.83,1.95,4.31,4.31,0,0,1,.94-.66,16.69,16.69,0,0,1-3.35,2.6c-.16-.8-3.89,2.35-5.24,2.64a36.41,36.41,0,0,1-3.71,2.85c-1.27,1-2.61,2-4,3.14,1.36-.38-.79.69-.21,1a4.8,4.8,0,0,1-.91.82l-2.12,1.44c-.57.28.49-.63.34-.68-1.38,1.21-.75.32-1.75,1,.33,0-.23.68-1,1.37l1.24-.85c-1.58,2.05-1.93,1.21-3.53,3.29l.44-.72c-.88,1-3.31,3.65-3.83,4.92-.21.13-.54.27-.18-.21a22.52,22.52,0,0,0-2.93,4.25c-.83,1.52-1.49,3-2.08,4.19l0-.29a8.67,8.67,0,0,1-.45,1.83c0-.05-.08-.28-.16,0l-.22,2.56c0-.25-.1-.5-.12-.75a7.21,7.21,0,0,0,.53,4.25,11.68,11.68,0,0,0,.92,1.62,13.66,13.66,0,0,0,1.3,1.5c-.15.13.16.79.82,1.37a5.32,5.32,0,0,0,1.09.83,6,6,0,0,0,1.09.59l-.06,0a10.15,10.15,0,0,0,5.31.57,15.71,15.71,0,0,0,4.71-1.49,9.76,9.76,0,0,0,4.35-2.54A22.37,22.37,0,0,0,121.8,282c-.32.44-.25-.23-.06-.81.45-.7.54-2.17.88-1.91,0,.09-.07.18-.1.26.58-.43,1-2.07,1.29-3.32l-.46-.33a16.26,16.26,0,0,0,1.19-5.68,17.52,17.52,0,0,1,.63-4.61,18.93,18.93,0,0,0-.24-2.69l.29,0a8.89,8.89,0,0,0-.64-3.16,6,6,0,0,0-2.65-2.92,6.2,6.2,0,0,1,.7.21,3,3,0,0,0-2-.59,7.92,7.92,0,0,1-1.83,0l-.39-.48c-1.42-.15-2.74-.22-4.07-.32a21.93,21.93,0,0,0-4,.08c0-.06.13-.18.56-.19-1.25,0-4.83-.35-4.38.24,0-.38-2.73-.06-4.16.12l.22-.28a8.83,8.83,0,0,1-2.93.57c-.4,0-.35-.22.18-.16-1.34-.13-1,.28-2.65.15l.6-.19a4.42,4.42,0,0,0-2,.31,6,6,0,0,1-2.81-.26,3.18,3.18,0,0,1-1.73.33c-.12-.09.18-.16.32-.19-2.29-.13-3.39.42-5,.2,0-.09-.14-.13-.28-.15,1.82-.06,3.29-.09,3.15-.07,0-.25-1.48-.25-.32-.64a23.05,23.05,0,0,1-4.61.66.7.7,0,0,1-.2-.08l.15,0a4.19,4.19,0,0,0-.9.08c-.46,0-.75,0-1.19,0a8.35,8.35,0,0,0-2.43,0c.08.28-.89.28,0,.47-.12,0,.13-.05.62-.08l.31,0-.05,0,1.82-.11a4.41,4.41,0,0,1-2,.21c-.36.19-.77.4-1,.5-1-.34-3-.42-3.27-.63-2.23.31-5.29.59-6.61,1.32a1.4,1.4,0,0,1-1-.08c.36-.12.79-.17,1-.27-1.25.3-3.75.66-4,1.1-1.62.17.82-.52-1.35,0l.27-.17a14.94,14.94,0,0,0-5.56,1.72,43,43,0,0,1-5.67,2.46c.32-.11.48-.17.57-.14a32.62,32.62,0,0,0-7.21,4.38c-2.27,1.72-4.39,3.57-6.53,5.26a5.94,5.94,0,0,0-1.68,2.08l-.45,0c-.3.46-.59.92-.87,1.4-1.37,1.82-3.24,2.4-4.75,4.92l.4-.15c-.72.75-2,2.59-2.09,2.3a.92.92,0,0,1-.39.64l-.14-.07L29,285.41c-1.31,1.47-.29-.63-2.11,1.6-.61.88-1.51,2.68-1.18,2.43s.75-.81.9-.73l-.54.81c.26.43.17,1.31,1.9-.37l.81-1.48.51-.28-.86,1.11A3.31,3.31,0,0,0,29.49,287a1.32,1.32,0,0,0,.63-.39l.67-1.54c.27,0-.17.79.59,0,.32-.72-.78.32-.09-.75.67-.49.66-.19,1.11-1,.18,0,.11.18-.08.5a17.43,17.43,0,0,0,1.44-2.21c.73-.46,1.77-2.17,2.06-1.81a9.53,9.53,0,0,1,1.2-1.89c-.55,1.37,2-2.05,2.13-1.39a7.18,7.18,0,0,1,1.5-2c.71-.73,1.52-1.49,2.09-2.21a1,1,0,0,1-.27.38,11.35,11.35,0,0,1,1.64-1.1c-.08-.19.17-.56.49-1s.76-.85,1-1.22c1.2-.49-.3.84.23.87-.25-.21,1.48-1.59,1-1.53.9-.38.73-.4,1.31-.42-.15-.5.65-.61,1.14-1.28,1.28-.56.55.19,1.72-.77C51.7,266,50.67,266.84,50.68,266.85ZM85,258h0l-.75,0Zm3.07-.12-1.33,0c-.11-.1,0-.2.31-.21C86.84,257.75,87.57,257.78,88,257.85Zm-6.58-1.68c.48-.06.65,0,.72,0l-.85.08-.06,0A.79.79,0,0,1,81.45,256.17Z" transform="translate(-25.62 -23)"/><path class="cls-4" d="M80.59,256.59l-.2,0,.29.05.17-.1Z" transform="translate(-25.62 -23)"/><path class="cls-4" d="M260.8,217.39l-.05,0a.27.27,0,0,1,.13-.05Z" transform="translate(-25.62 -23)"/><polygon class="cls-4" points="96.98 243.02 97.06 243.02 97.02 242.76 96.98 243.02"/><path class="cls-4" d="M274.19,207a.69.69,0,0,0,.21-.1S274.29,207,274.19,207Z" transform="translate(-25.62 -23)"/><path class="cls-4" d="M279.68,202.21l.85-.58C280.16,201.87,279.89,202.06,279.68,202.21Z" transform="translate(-25.62 -23)"/><path class="cls-4" d="M284.13,198.85a.35.35,0,0,0,0-.16h0Z" transform="translate(-25.62 -23)"/><path class="cls-4" d="M204.19,231.58H204C203.47,231.64,203.81,231.62,204.19,231.58Z" transform="translate(-25.62 -23)"/><path class="cls-4" d="M230.83,230l-.84.23C230.47,230.2,230.84,230.17,230.83,230Z" transform="translate(-25.62 -23)"/><path class="cls-4" d="M174.73,232.91h0l-.18,0Z" transform="translate(-25.62 -23)"/><path class="cls-4" d="M228.76,230.37a5,5,0,0,0,1.23-.13A8.41,8.41,0,0,0,228.76,230.37Z" transform="translate(-25.62 -23)"/><path class="cls-4" d="M305.92,189.79h.26a.05.05,0,0,1,0-.05Z" transform="translate(-25.62 -23)"/><path class="cls-4" d="M306.21,189.73l.29,0A.52.52,0,0,0,306.21,189.73Z" transform="translate(-25.62 -23)"/><path class="cls-4" d="M307.11,189.6l-.61.08A1.41,1.41,0,0,0,307.11,189.6Z" transform="translate(-25.62 -23)"/><path class="cls-4" d="M298.79,191.06l-.05.12A.11.11,0,0,0,298.79,191.06Z" transform="translate(-25.62 -23)"/><path class="cls-4" d="M296.71,191.81c.51-.14,1.31-.28,2-.53l0-.1C298.46,191.4,297.12,191.48,296.71,191.81Z" transform="translate(-25.62 -23)"/><path class="cls-4" d="M287.74,194.89l1.69-.91c-.34.08-.8.18-.06-.29C287.13,194.65,289.92,193.65,287.74,194.89Z" transform="translate(-25.62 -23)"/><path class="cls-4" d="M282.78,198.12c.79-.65-.11-.11-.1-.2C282.21,198.39,282.1,198.51,282.78,198.12Z" transform="translate(-25.62 -23)"/><path class="cls-4" d="M249.46,224v-.27C248.76,224.06,249.48,223.79,249.46,224Z" transform="translate(-25.62 -23)"/><polygon class="cls-4" points="216.66 204.96 217.44 204.88 217.73 204.55 216.66 204.96"/><polygon class="cls-4" points="211.58 204.35 211.9 204.24 210.67 204.62 211.58 204.35"/><path class="cls-4" d="M166.18,231.91l.3.26C167,232,167,231.63,166.18,231.91Z" transform="translate(-25.62 -23)"/><path class="cls-4" d="M137.2,242.77a3.19,3.19,0,0,0-1.58.74C136.24,243.2,136.91,243,137.2,242.77Z" transform="translate(-25.62 -23)"/><path class="cls-4" d="M124.07,274.46l0,.65q.09-.6.15-1.2Z" transform="translate(-25.62 -23)"/><path class="cls-4" d="M983.38,238.47c.15.2.31,0,.06-.59l-.47-.33Z" transform="translate(-25.62 -23)"/><path class="cls-4" d="M982.55,234.17c-.4-.66-.95-1.39-1.08-.83.55.61.48.82,1.1,1.46.25.6.27,1.1.12,1,.15.19.26,1,.57,1.23a6.41,6.41,0,0,0-.94-2.87C982.31,234,982.47,234.14,982.55,234.17Z" transform="translate(-25.62 -23)"/><path class="cls-4" d="M948.81,181.23l.28.3A3.58,3.58,0,0,0,948.81,181.23Z" transform="translate(-25.62 -23)"/><path class="cls-4" d="M917,158.33c.27.13.39.16.42.14C917.14,158.36,916.93,158.27,917,158.33Z" transform="translate(-25.62 -23)"/><path class="cls-4" d="M911.06,155.09l.35.19A1.11,1.11,0,0,0,911.06,155.09Z" transform="translate(-25.62 -23)"/><path class="cls-4" d="M948.81,181.23l-.7-.79C948,180.47,948.45,180.86,948.81,181.23Z" transform="translate(-25.62 -23)"/><path class="cls-4" d="M978.66,226.36a3.5,3.5,0,0,0,.3.49l-.24-.48Z" transform="translate(-25.62 -23)"/><path class="cls-4" d="M960.77,193.8l.19.25a1.59,1.59,0,0,0,.27.12Z" transform="translate(-25.62 -23)"/><path class="cls-4" d="M968.71,204.5c-.16-.25-.45-.18-.62-.21a1.38,1.38,0,0,1,.53.43S968.7,204.63,968.71,204.5Z" transform="translate(-25.62 -23)"/><path class="cls-4" d="M978.51,223.19l.19.32Z" transform="translate(-25.62 -23)"/><path class="cls-4" d="M954.55,186.56a.3.3,0,0,0,0-.16S954.52,186.48,954.55,186.56Z" transform="translate(-25.62 -23)"/><path class="cls-4" d="M695.07,108.09s0,0,0,0S695,108,695.07,108.09Z" transform="translate(-25.62 -23)"/><path class="cls-4" d="M682.62,98.87l.19.1a.45.45,0,0,0,.13-.1Z" transform="translate(-25.62 -23)"/><path class="cls-4" d="M899.71,150.22l0,0C900.08,150.32,899.9,150.26,899.71,150.22Z" transform="translate(-25.62 -23)"/><path class="cls-4" d="M795.06,115.73c.28.55-.12.23-.41-.08s-.56-.56-.16.31C794.45,115.78,795.87,117,795.06,115.73Z" transform="translate(-25.62 -23)"/><path class="cls-4" d="M978.57,226l-.21-.5A3.41,3.41,0,0,0,978.57,226Z" transform="translate(-25.62 -23)"/><path class="cls-4" d="M794.49,116h0l.09.17A1.3,1.3,0,0,1,794.49,116Z" transform="translate(-25.62 -23)"/><path class="cls-4" d="M872.29,143a.9.9,0,0,0,.25.18S872.48,143.09,872.29,143Z" transform="translate(-25.62 -23)"/><path class="cls-4" d="M892.64,148.54l-.49-.19A3.2,3.2,0,0,0,892.64,148.54Z" transform="translate(-25.62 -23)"/><path class="cls-4" d="M861.51,141.14a3.65,3.65,0,0,0-.75-.17l.11.06A1.7,1.7,0,0,1,861.51,141.14Z" transform="translate(-25.62 -23)"/><path class="cls-4" d="M850.37,138.88a1.24,1.24,0,0,0,.2.1l.35.06Z" transform="translate(-25.62 -23)"/><path class="cls-4" d="M727.32,121a1.59,1.59,0,0,1-.44-.38C727,120.85,725.35,120.48,727.32,121Z" transform="translate(-25.62 -23)"/><path class="cls-4" d="M978.8,226.29c-.09,0-.15-.11-.23-.26l.15.34S978.81,226.38,978.8,226.29Z" transform="translate(-25.62 -23)"/><path class="cls-4" d="M860.61,143.23l-1.76-.4C859.34,143,860,143.1,860.61,143.23Z" transform="translate(-25.62 -23)"/><path class="cls-4" d="M808,118.88l-.34.28A1.69,1.69,0,0,0,808,118.88Z" transform="translate(-25.62 -23)"/><path class="cls-4" d="M853.59,141.8a5.84,5.84,0,0,0-1-.39,1.3,1.3,0,0,0-.22,0Z" transform="translate(-25.62 -23)"/><path class="cls-4" d="M726.88,120.61Z" transform="translate(-25.62 -23)"/><path class="cls-4" d="M715.28,117.53c1.62.61.88-.06,1.3-.13,2,.62.81.59,1.41,1,1.25.35,2.31.29,3.22.61,0,.08.22.16,0,.16,1.39.12,3.85,1.27,5.5,1.29a.5.5,0,0,1,.18.14c-.2-.25-.19-.44-.1-.55.75.19,1.45.15,1.66.46a1.29,1.29,0,0,0-.75,0l.81.11c.61.52-1.1-.18-1.17.07a40.15,40.15,0,0,1,4.56.92c.16.4-2.77-.63-1.28.09l-1.78-.62c1.25.89-1.1-.34,0,.56,2.37.75,2.71.58,5.11,1.21.58-.06-.12-.31.46-.38,3.5.42,2.51,1.49,5.14,1.52a4,4,0,0,1,2.8.06l-.68.27c2.36.45,1.44-.29,3.87.38-.47.1-1.88-.2-1.53-.08,1.55.59,1.17,0,2.4.15l.21.37c2.54.27,5.35.47,8.17.6-.16.09-.66.15,0,.32,3.56.21,7.59.56,11,.9l1.32-.3c.31,0,.57.13.23.19,1.35.11.08-.19.72-.3s1,.17.52.26c1.19-.14,2.87-.23,4.57-.36a31.43,31.43,0,0,1,4.65-.12l-.48.11c1.95,0,2.15-.7,4-.6l-.34.08c2.1-.15,4.3-.33,6.38-.6s4-.53,5.66-.64a6.86,6.86,0,0,1,2.29-.64c1-.23,1.92-.47,2-.79,1.2-.22,1.66-.23,2.21-.34a16.92,16.92,0,0,0,2.89-.8c.87-.33,1.12-.89,2.12-1.44l.16.26,1.23-1,.9-.11.88-.63c-.38.21-.85.36-.84.25.69-.48,1.54-1,2.27-1.45a4.41,4.41,0,0,1,1.33-.69,26.62,26.62,0,0,0,2.68-3c0,.15-.39.68-.69,1.13.61-.91.73-.93.85-.93s.23,0,.72-.89c-.22.18-.06-.23-.08-.3a11.41,11.41,0,0,0,2.43-4.32,2.87,2.87,0,0,1,.08.38,20.43,20.43,0,0,0,1.18-9.72c0,1.24-.4,1-.51,0a4,4,0,0,0,.28-.43c-.3-.6,0,1-.42-.22-.18-1.24.22-.91.45-.2-.13-.5-.24-1-.4-1.5.07-.11.22.23.35.3a8.56,8.56,0,0,1-.43-1.68,4,4,0,0,0-.78-1.79l.05-.12a17.57,17.57,0,0,0-1.18-2c-.44-.54-.82-1.05-1.24-1.49s-.89-.82-1.36-1.22-1-.72-1.68-1.1c-.19.23-1.17-.35-2-.45a13.19,13.19,0,0,0-3.19-.89,10,10,0,0,0-3.67.25c-.85.28-.94.42-.93.47s.14.09-.2.3c-.23-.27-2.47.88-1.38.14a14.14,14.14,0,0,0-2.92,2,16.16,16.16,0,0,0-2.67,3c.32-.25.64-.56.56-.33-.38.54-1,1.12-1,1l.08-.16a43.07,43.07,0,0,0-3.22,5.89,12,12,0,0,0-1.09,6,1.08,1.08,0,0,1,0-.19,17.91,17.91,0,0,0,.55,3.43c.13.78.05.56-.08.29s-.24-.61-.23,0c.31.91.59,1.71.89,2.43s.56,1.36.82,2,.6,1.21.92,1.81a15.58,15.58,0,0,0,1.24,1.74,7.72,7.72,0,0,0,1.16,2,19.9,19.9,0,0,0,2.12,2.25c1.56,1.52,3.43,2.78,4.56,3.9l-.05-.26c.75.33.75.63,1.22,1,0-.16-.64-.61-.17-.42A89.25,89.25,0,0,0,820.73,134c2.38.78,1.61-.42,4.51.84l-1,.07c4.94,1,9.92,2.7,14.79,3.48a2,2,0,0,1-.8,0,9.52,9.52,0,0,0,3.79.67c.74.18.14.21.58.41,1,.36,2.61.26,3.1.61.08.05-.3,0-.49,0,.68,0,3.08.67,2.5.27,1.77.5,3.47.6,4.87,1,1-.11,3.06.77,3.44.4-.22.42,3.08,1,4.26,1-.41.06,1,.34.48.44,1.3.25,2.5.41,2.32.14,2.28,1,4.89.55,6.09,1.53,3.89.57,7.47,1.22,10.93,1.93-.22.39-3.81-.84-3.77-.35a69.37,69.37,0,0,1,8.46,1.58c.82.27-.52.07-.82.08,3.27.68,6.23,1.69,9.13,2.35a1.94,1.94,0,0,1-.64-.06c.56.15,1.28.46,1.28.24l-.57-.11c-.81-.56,2.41.09,2.56,0-1.12.24,2.75,1.07,1,1.27.37.09.86.15.82,0,.53.22.67.35.08.31,2,.58,1.38.13,3.18.75,0,.09-.42,0-.64,0a10.45,10.45,0,0,1,3.41,1c-.11,0,0,.16-.41,0,1.29.49,2.43.79,3.6,1.13a26.14,26.14,0,0,1,3.65,1.53c-1,0,.88.55.88,1l1.52.56-.51-.43a25.15,25.15,0,0,1,3.56,1.6l-1-.34,2.41,1.15-1.28-.81c1.37.49.07-.5,1.72.47a19.63,19.63,0,0,1,1.83,1.19h0a7.4,7.4,0,0,1,2.24,1.1c.17.24-.4.25-.28.41.75.08,2.92,1.61,3.85,1.77-.3-.08-.41.08-.35.16l.64.08c.53.41.59.49.41.57,1.64,1.12-.27-.76,1.59.72a2.79,2.79,0,0,1-.45-.19c1.9,1.41,3.92,2.38,5.63,3.74.14.34-.25.07-.63-.18s-.78-.49-.56-.16l4,2.65a29.14,29.14,0,0,1,3.82,2.8l-.41-.4c.66-.14,1.57,1.66,2.91,2.45-.32-.22-.57-.1-.45-.08.76.71,1.62,1.34,2.55,2.09l3.17,2.61-.38-.16c.81.93,2.35,2.21,3.19,3.24.37.19.88.75.7.28a26.43,26.43,0,0,0,4,4.36,22.9,22.9,0,0,1,3.58,4.21c-.28-.32-.77-.7-.54-.44.71.75,1.42,1.49,2.07,2.29,0-.34-.14-.41-.4-1a7.25,7.25,0,0,1,1.44,1.45c-1-1-.28.24,0,.79,0-.12.18,0,.21-.09.67,1.52.53-.08,1.67,1.83l-.17,0a15,15,0,0,1,1.66,1.86c0,.45-.61-.64-.83-.55.77,1,1.83,1.72,2.27,2.79-.36-.39-.8-1-1.16-1.41a7.75,7.75,0,0,0,1.07,2l0-.07,1.09,1.81-.24-.49a5.74,5.74,0,0,1,1.71,1.79,12.8,12.8,0,0,0,1.67,2.31c-1.44-1.51-.39-.15-.73-.12.22.5.57,1.24.37,1.09.73.71.71,1.5,1.75,2.51,0,.1.55.91.22.85.68,1.09,0-.36.15-.32,1.25,1.58,1.9,4.28,3.66,6.59,1.23,2.14,1.73,2.41,2.87,4.42.19.77-.6-.42-.6-.42a21.42,21.42,0,0,0,1.4,3.06c-.17-.19-.14.07-.1.45.38.86.56.44.91,1.65a3.43,3.43,0,0,1-.72-.72c.5,1,1.09,1.94,1.61,3-.05.35-.51-.55-.77-.88a21.59,21.59,0,0,0,1.78,3.34l-.18-.82c.16.44-.14.31-.3,0-.62-1-.52-1.52-.46-1.61l.37.74c.21-1-1.34-3-1.93-4.56l.64.47-1-1.43c0-.38.08-.7.45,0-.26-1.19-.57-.9-.79-1.92,0-.12,0-.08.09,0l-.62-1c.18.17.19-.3.44.37-.69-2-1.73-2.9-1.79-3.75l.1.14c-.69-1.28-.79-1.3-.88-1.23s-.14.22-.82-.65l0-1.63-.4-.11c-.14-.27-.4-.8-.24-.76-.72-.87,0,.23-.51-.24-.44-1.4-2-3.41-1.8-3.91-.47-.32.57,1.26-.38,0,.22-.64-1-1.46-1.5-2.7.45.2,1,1.33.49.08-.81-.42-1.25-2.23-1.94-3.12-.33.16-1.5-1.89-2.67-3.35a38.43,38.43,0,0,0-2.83-4.42h.08c-.5,0-1.55-1.49-2.41-2.47.21-.09.42,0,.93.53l-.76-1a4.81,4.81,0,0,1-1.07-1l.4.06a48.57,48.57,0,0,1-3.63-4c-.27.09.56,1.73-1,.18.05-.16.17-.38.59,0a4.5,4.5,0,0,1-.73-.76l.75.51c-.55-.79-.47-.24-1-.83.15-.12-.27-.52-.08-.55a4.73,4.73,0,0,0,.62.73,13.74,13.74,0,0,1-1.29-1.86c0,.13-.2.18-.65-.25-1.15-1.17-.22-.57-.81-1.32-.37-.19-1-1-1.22-.85a1.24,1.24,0,0,1-.37-.69c-.34-.26-1-1-1.59-1.48s-1-.82-.78-.38l.15.16-.11-.08h0a28.15,28.15,0,0,1-3.14-2.86l-1.51-1.52c-.53-.47-1.06-.92-1.61-1.34l.07-.07c-1.33-1-2.85-2.28-3.88-2.86-.36-.32-.79-.84-.54-.81a14.51,14.51,0,0,1-2.58-1.9c1.11.61-.26-.38,1.11.67a13.56,13.56,0,0,0-3-2.22c.62.17-.78-1-1.49-1.36.28.26.57.52.84.8-.72-.49-1.36-.9-2-1.35l.54,0c-2.57-2.18-5.36-2.79-7.22-4.6-.88-.24,1.47,1.06.65.89-1.29-.81-2.43-2-2.85-2.28a4.92,4.92,0,0,0-1.84-.89,6,6,0,0,1-2-.8c.19.24.28.64-1.23,0-1.33-.74-1.45-1.31-.54-1,.33.16.47.28.44.31.46.18,1.06.44.58,0l-.23,0c-.62-.46-2.51-1.41-2-1.36-1.08-.43-.53,0,.21.4a39.77,39.77,0,0,0-4.57-2.29c.27.19.49.43.19.3-2.66-1.34-1.29-.32-3.14-1.09-1-.63.54-.25-1.38-.9-1.11-.56-.12-.39.37-.3a22.37,22.37,0,0,1-4.14-1.81l.94.26a14.53,14.53,0,0,1-1.46-.5l.43.42c-.52-.25-1-.42-.93-.51-.6-.06.3.51-.88.33-.68-.36-2.23-.63-2.38-1,2.23.88-.15-.38,1.79.23a9.47,9.47,0,0,1-1.36-.48c-.07-.06.1,0,.25,0-2.09-1-1.11,0-3.36-.77.34-.08-.43-.49-.81-.56.92.28.35.41-.53.29a12.86,12.86,0,0,0-2.37-.64l.85.33a7.57,7.57,0,0,1-2.09-.42c0-.16.94.19.6,0-1.2-.06-2.47-1-4.1-1.28-.7-.32,0-.34-.61-.6-1.83-.27-1.86-.76-3.79-1,.49.37.59.33-.78.23l3.12.61-2.06-.16c.93.23,2,.34,2.54.54-1-.07-.88-.1-.49.21-1.17-.68-2.56-.43-4-1l.19-.57c-2.15-.82-4-.64-6.86-1.46l.91.32c-.44.14-1.79-.39-2.74-.49.12-.18-.44-.37-.82-.58,0,.16-2.11-.47-2.45-.14l-1.24-.53c-2.31-.59-2.78,0-5-.53.72-.07-.27-.42,1.26-.26-.74-.16-1.41-.33-1.45-.2-.41-.21-2.13-.16-2.78-.48a2.55,2.55,0,0,1-1.32,0c-.08,0,0-.09,0-.09s-1.35-.14-.66.23c-2.18-1.08-6.45-1.26-8.35-2.2-1.65-.28-3.63-.62-5.11-.92.11,0,0-.1.3,0-2-.62-1.37.28-3.65-.43-1.11-.57,1.27.11.56-.17-.18-.71-2.82-.53-4.29-1.27l.39.05c-1.13-.51-3-.42-4.88-1,0,0,.11,0,0-.09a35.15,35.15,0,0,1-5.81-1c.64-.09.88.1.59-.24-.83-.2.14.46-1.53.07-.5-.29-1.66-.74-1.74-1.05l1.56.42c-.7-.56-2-.55-2.82-.84l.15-.12c-2.38-.67-2.53-.33-5.06-1.15l.22.2c-1.51-.07-1.09-.58-2.55-.78l-.29-.51a48.57,48.57,0,0,1-4.89-1.4c1,.11,2.93.71,4.15,1a25.86,25.86,0,0,0-3.53-1.13,5.54,5.54,0,0,1,1.17.39,14.31,14.31,0,0,1-4.38-1.4c.32-.29-.79-.82-2-1.53a10.47,10.47,0,0,1-3.08-2.15c-2.93-1.53-5.27-3.85-7.76-6.64.23.69,0,.5-.24.19s-.61-.76-.78-.48c-.58-.68-.79-1-.79-1.05a21.65,21.65,0,0,1-1.1-2.47c-.14-.64.5.67.58.52-.85-1.69-.14-.82-.58-2-.1.33-.54-.47-.87-1.49l.32,1.51a4.84,4.84,0,0,1-.81-2.32c0-.28,0-.56-.09-.93a14.45,14.45,0,0,0-.33-1.43l.32.77a12.83,12.83,0,0,1-.33-3.06c0-1.23.09-2.46,0-3.16.13-.23.36-.5.27.09a27.22,27.22,0,0,1,1.56-4.9,11,11,0,0,1,2.6-3.81l-.06.28a4.09,4.09,0,0,1,1.16-1.38c0,.07-.08.26.14.09A6.13,6.13,0,0,1,799,90.69c-.15.17-.31.33-.46.51a33.67,33.67,0,0,1,3.33-1.85,7.91,7.91,0,0,1,3.39-.78c0,.21.57.4,1.27.64.35.12.73.25,1.09.41a6.72,6.72,0,0,1,.93.46l-.06,0a11.63,11.63,0,0,1,3.73,2.66,11.1,11.1,0,0,1,2.47,3.9,43,43,0,0,1,.47,4.78,15.13,15.13,0,0,1-1,5.63c.24-.47.31.18.16.78-.32.72-.59,2.17-.88,1.89l.12-.26c-.6.38-1.29,1.82-2.08,2.79l.29.5c-1.39,1.07-2.93,2.64-4.56,3.89A10.34,10.34,0,0,1,803,119c-.35.23-.76.46-1.17.68s-.84.41-1.2.63l-.06-.28c-2.19.74-3.3,1.06-6.08,1.82l.52-.34c-1.57.36-1.82,1.26-3.31,1.57l-.53-.34c-2.82.52-5.75.48-8.55,1.09,0-.06.12-.19.58-.25-1.35.12-5.24.19-4.71.7-.06-.38-3,.1-4.53.34l.24-.29a8.24,8.24,0,0,1-3.18.63c-.44,0-.39-.22.19-.15-1.45-.14-1.13.27-2.89.12l.65-.18a5.25,5.25,0,0,0-2.2.28,6.34,6.34,0,0,1-3-.4,3.67,3.67,0,0,1-1.91.2c-.11-.1.21-.15.37-.17a16.59,16.59,0,0,0-3-.07,9,9,0,0,1-2.41-.21c0-.1-.14-.15-.28-.19l2.51.23a7.47,7.47,0,0,1,.91.07c0-.26-1.58-.37-.29-.67a21.66,21.66,0,0,1-5,.07.75.75,0,0,1-.2-.1l.16,0a4.12,4.12,0,0,0-1,0c-.49-.09-.8-.15-1.28-.2a10.2,10.2,0,0,0-2.59-.47c0,.29-1,.11-.06.47-.13,0,.15,0,.68,0a2.18,2.18,0,0,0,.34,0l-.06,0c.53,0,1.2.16,2,.23a4.77,4.77,0,0,1-2.17-.17c-.43.12-.91.25-1.17.3-1-.53-3.09-1-3.35-1.3-2.42-.25-5.66-.89-7.28-.65a1.61,1.61,0,0,1-1-.46c.4,0,.86.14,1.09.12-1.38-.17-4-.85-4.43-.57-1.67-.54,1-.11-1.32-.58l.34,0c-4.42-1.72-7.71-1-12.48-3.37.33.15.5.23.55.31-.7-.27-1.41-.52-2.13-.77l-2.14-.8-4.34-1.53c-1.42-.57-2.85-1.15-4.24-1.75-.7-.31-1.39-.61-2.06-.94s-1.32-.72-2-1.09a7.73,7.73,0,0,0-2.74-1l-.2-.42c-.57-.15-1.16-.28-1.72-.46-2.31-1-3.48-2.62-6.44-3.77l.25.39c-.95-.61-3.14-1.72-2.86-1.82a1.16,1.16,0,0,1-.75-.33l.05-.15c-.84-.39-1.69-.77-2.51-1.22-1.74-1.27.62-.35-2-2.08-1-.59-3-1.43-2.72-1.11s.95.74.89.89l-.94-.52c-.42.28-1.39.22.64,1.94l1.7.77.38.51-1.31-.83a4,4,0,0,0,1.78,1,1.67,1.67,0,0,0,.52.63c.59.2,1.16.43,1.76.6.1.26-.89-.11.11.59.84.26-.49-.76.79-.16.65.63.34.65,1.33,1,.06.17-.17.13-.55,0a19,19,0,0,0,2.67,1.22c.65.72,2.75,1.44,2.46,1.79a11.89,11.89,0,0,1,2.36.83c-1.61-.26,2.78,1.52,2.17,1.82,1.25.07,3.84,1.59,5.78,2.21a1.28,1.28,0,0,1-.5-.13c1,.53,1.27.77,1.91,1.14.29-.3,2,.31,2.94.45,1.14.89-1,.1-.7.6.06-.32,2.37.65,2,.22.9.63.8.47,1.2,1,.35-.39,1,.27,1.9.3,1.37.76.22.56,1.87,1C716.76,117.89,715.28,117.53,715.28,117.53Zm39.55,8.1h0l-.83-.06Zm3.38.3-1.47-.14c-.11-.11,0-.2.36-.16C756.92,125.67,757.71,125.8,758.21,125.93Zm-6.92-2.62c.53,0,.7.11.76.18l-.92-.09-.06,0A.45.45,0,0,1,751.29,123.31Z" transform="translate(-25.62 -23)"/><path class="cls-4" d="M750.3,123.55a1.61,1.61,0,0,1-.22,0l.31.1.19-.06Z" transform="translate(-25.62 -23)"/><path class="cls-4" d="M949.13,181.59l0-.06.08.14Z" transform="translate(-25.62 -23)"/><polygon class="cls-4" points="779.08 97.98 779.05 97.92 778.8 98.11 779.08 97.98"/><path class="cls-4" d="M960.87,196a1,1,0,0,0,.1.24A1.19,1.19,0,0,0,960.87,196Z" transform="translate(-25.62 -23)"/><path class="cls-4" d="M965.59,202.46l.57,1C965.93,203,965.74,202.71,965.59,202.46Z" transform="translate(-25.62 -23)"/><path class="cls-4" d="M968.89,207.65a.3.3,0,0,0,.16,0h0Z" transform="translate(-25.62 -23)"/><path class="cls-4" d="M892.51,150.47l-.23-.06C891.73,150.3,892.1,150.39,892.51,150.47Z" transform="translate(-25.62 -23)"/><path class="cls-4" d="M919.6,160.88c-.3-.1-.59-.19-.89-.31C919.16,160.82,919.51,161,919.6,160.88Z" transform="translate(-25.62 -23)"/><path class="cls-4" d="M860.8,143.27h0l-.2,0Z" transform="translate(-25.62 -23)"/><path class="cls-4" d="M917.5,159.94a6.42,6.42,0,0,0,1.21.63A9.89,9.89,0,0,0,917.5,159.94Z" transform="translate(-25.62 -23)"/><path class="cls-4" d="M980.71,231.43a1.33,1.33,0,0,1,.1.28s0,0,.06,0S980.77,231.53,980.71,231.43Z" transform="translate(-25.62 -23)"/><path class="cls-4" d="M980.87,231.73l.13.3A.87.87,0,0,0,980.87,231.73Z" transform="translate(-25.62 -23)"/><path class="cls-4" d="M981.3,232.65,981,232A1.79,1.79,0,0,0,981.3,232.65Z" transform="translate(-25.62 -23)"/><path class="cls-4" d="M977.69,223.89l-.13,0A.17.17,0,0,0,977.69,223.89Z" transform="translate(-25.62 -23)"/><path class="cls-4" d="M976.6,221.67a17,17,0,0,0,.86,2.14l.1,0C977.26,223.56,977,222.1,976.6,221.67Z" transform="translate(-25.62 -23)"/><path class="cls-4" d="M972.93,211.9l.93,1.88c-.08-.38-.18-.87.3-.05C973.17,211.26,974.21,214.33,972.93,211.9Z" transform="translate(-25.62 -23)"/><path class="cls-4" d="M969.68,206.29c.64.93.13-.09.21-.08C969.43,205.66,969.32,205.53,969.68,206.29Z" transform="translate(-25.62 -23)"/><path class="cls-4" d="M938.24,171.84l.25-.13C937.77,171.22,938.42,171.78,938.24,171.84Z" transform="translate(-25.62 -23)"/><polygon class="cls-4" points="904.62 144.69 905.23 145.29 905.69 145.31 904.62 144.69"/><polygon class="cls-4" points="901.2 140.27 901.55 140.43 900.25 139.77 901.2 140.27"/><path class="cls-4" d="M852.4,139.05l.19.36C853.17,139.47,853.37,139.15,852.4,139.05Z" transform="translate(-25.62 -23)"/><path class="cls-4" d="M819.61,131.21a4,4,0,0,0-1.77-.68A16.32,16.32,0,0,0,819.61,131.21Z" transform="translate(-25.62 -23)"/><path class="cls-4" d="M810.45,113.73l.35-.55a11.55,11.55,0,0,1-.76.94A3.78,3.78,0,0,0,810.45,113.73Z" transform="translate(-25.62 -23)"/></svg>