<?xml version="1.0" encoding="utf-8"?>
<!-- Generator: Adobe Illustrator 22.0.1, SVG Export Plug-In . SVG Version: 6.00 Build 0)  -->
<svg version="1.1" id="Layer_1" xmlns="http://www.w3.org/2000/svg" xmlns:xlink="http://www.w3.org/1999/xlink" x="0px" y="0px"
	 viewBox="0 0 173.3 155.4" style="enable-background:new 0 0 173.3 155.4;" xml:space="preserve">
<style type="text/css">
	.st0{fill:#FAE93D;stroke:#231F20;stroke-width:0.93;}
</style>
<title>arrows</title>
<path class="st0" d="M12.9,16.6c0.2,8.3,2.2,16.4,5.8,23.8c1.8,3.7,3.9,7.3,6.2,10.7c2.4,3.4,5,6.7,7.8,9.8
	c0.9,8.5,2.8,16.9,5.6,25.1c9.9,6.2,20.4,11.3,31.4,15.4c1.8,3.1,3.7,6.3,5.8,9.3l3.1,4.6l3.4,4.5c10.3,2.5,20.9,4.2,31.5,5
	c6.2,6,12.7,11.6,19.6,16.8l2.2-8.6c9,6.4,18.6,11.9,28.5,16.6c-12.4,2.7-25.1,4.3-37.8,4.7c1.9-2.2,3.7-4.3,5.5-6.5
	c-7.2-4.8-14.2-10.1-20.8-15.9c-9.9-0.5-19.7-1.8-29.3-3.6c-6.9-7.1-13.2-14.7-19-22.7c-10.6-3.5-20.9-8-30.6-13.5l-1.8-3.9l-1.6-4
	c-0.5-1.3-1-2.7-1.5-4s-0.9-2.7-1.4-4c-1.7-5.2-3-10.6-3.9-16.1c-5.3-5.5-9.9-11.7-13.5-18.4c-3.9-7.2-6.5-14.9-7.7-23
	C4.6,17.9,8.8,17.1,12.9,16.6z"/>
</svg>
