<?xml version="1.0" encoding="utf-8"?>
<!-- Generator: Adobe Illustrator 22.0.1, SVG Export Plug-In . SVG Version: 6.00 Build 0)  -->
<svg version="1.1" id="图层_1" xmlns="http://www.w3.org/2000/svg" xmlns:xlink="http://www.w3.org/1999/xlink" x="0px" y="0px"
	 viewBox="0 0 119.3 119.9" style="enable-background:new 0 0 119.3 119.9;" xml:space="preserve">
<style type="text/css">
	.st0{fill:#F0E146;stroke:#221F20;stroke-width:0.93;}
</style>
<path class="st0" d="M99,99.1c-0.1-0.7-0.5-1.3-0.9-1.7c-0.1-0.1-0.2-0.2-0.3-0.3l-0.4-0.2l-0.9-0.6c-0.7-0.4-1.4-0.9-2.3-1.5
	c-0.2-0.1-0.4-0.3-0.7-0.4l-0.8-0.5l-1.6-1l-3.2-2.1l-3.3-2c-2.1-1.4-4.3-2.6-6.5-3.9c-0.2-2.9-0.5-5.7-0.8-8.6s-0.7-5.8-1.1-8.7
	c-3.4-1-6.8-1.8-10.1-2.7s-6.7-1.6-10.1-2.3c-0.6-2.3-1.2-4.6-1.8-6.9l-2-7c-6.4-0.9-12.8-1.6-19.1-2c-0.9-2.6-1.9-5.2-2.9-7.8
	s-2-5.2-3.2-7.8l-4.4,7.8l-2.3-4.6l-2.4-4.5c-1.6-3.1-3.3-6-5.1-9c7.5-0.6,15.1-0.9,22.8-0.8l-5.5,5.7c1.3,2.4,2.5,4.9,3.6,7.3
	s2.3,4.9,3.4,7.3c3,0.1,5.9,0.2,8.9,0.4s6,0.4,9,0.7c1.3,2.7,2.5,5.5,3.7,8.2s2.3,5.5,3.4,8.2c6.6,0.9,13.3,1.9,20,3.2
	c2,6.7,3.6,13.5,5,20.2c4.1,1.7,8.3,3.4,12.3,5.3c2.2,0.9,4.3,2,6.2,3.3c2.3,1.6,4.2,3.8,5.3,6.3c-2,0.8-4,1.5-6,2.1
	C103.1,98.4,101.1,98.8,99,99.1z"/>
</svg>
