<?xml version="1.0" encoding="utf-8"?>
<!-- Generator: Adobe Illustrator 22.0.1, SVG Export Plug-In . SVG Version: 6.00 Build 0)  -->
<svg version="1.1" id="图层_1" xmlns="http://www.w3.org/2000/svg" xmlns:xlink="http://www.w3.org/1999/xlink" x="0px" y="0px"
	 viewBox="0 0 172.3 172.9" style="enable-background:new 0 0 172.3 172.9;" xml:space="preserve">
<style type="text/css">
	.st0{fill:#F0E146;stroke:#221F20;stroke-width:0.93;}
</style>
<path class="st0" d="M15.4,146.4c16.9-5.1,33-12.6,47.8-22.2c8.6,0.3,17.1-0.2,25.7-1.3c3.9-4.3,7.5-8.8,10.9-13.5
	c3.3-4.6,6.3-9.4,9-14.3c3.3-1.2,6.6-2.6,9.9-4.1c1.6-0.8,3.2-1.6,4.9-2.4l2.5-1.3l2.4-1.4c3.6-9.7,6.1-19.8,7.5-30.1
	c6.3-5.5,12.1-11.6,17.3-18.2l-8.6-2.3c6.4-8.7,11.6-18.2,15.4-28.2l1.3,4.4c0.5,1.5,0.7,3,1.1,4.5s0.8,3.1,1,4.6l0.8,4.7
	c0.1,0.8,0.3,1.6,0.4,2.4l0.3,2.4l0.5,4.8c0.1,1.6,0.2,3.2,0.3,4.9s0.2,3.3,0.2,4.9c-2.1-1.9-4.2-3.8-6.4-5.6
	c-4.9,7.1-10.4,13.7-16.5,19.8c-1.1,9.7-3.1,19.2-6.2,28.5c-7.7,5.9-16,11-24.8,15.3c-5.1,9.8-11.2,19-18.2,27.5
	c-10.8,2.6-21.8,4.2-32.9,4.7c-6.1,4.5-12.5,8.6-19.1,12.4c-6.8,3.8-13.7,7.3-20.9,10.3C19,154,17.2,150.2,15.4,146.4z"/>
</svg>
