<svg id="Layer_1" data-name="Layer 1" xmlns="http://www.w3.org/2000/svg" viewBox="0 0 868 560"><defs><style>.cls-1{fill:#f7534f;}.cls-2{fill:#f7a277;}.cls-3{fill:#888c8b;}.cls-4{fill:#595b5a;}.cls-5{fill:#ef7e4b;}.cls-6{fill:#f46e6e;opacity:0.75;}.cls-7{fill:#ea8181;opacity:0.64;}.cls-8{font-size:57px;font-family:Athelas-Bold, Athelas;font-weight:700;}.cls-9{letter-spacing:0em;}</style></defs><title>art_gallery</title><rect class="cls-1" y="113" width="868" height="295"/><rect class="cls-2" x="112" y="408" width="700" height="131"/><rect class="cls-2" x="382" width="430" height="113"/><rect class="cls-3" x="100" y="539" width="724" height="15"/><rect class="cls-4" x="100" y="554" width="724" height="6"/><rect class="cls-5" x="203" y="408" width="5" height="131"/><rect class="cls-5" x="296" y="408" width="5" height="131"/><rect class="cls-5" x="382" y="408" width="5" height="131"/><rect class="cls-5" x="469" y="408" width="5" height="131"/><rect class="cls-5" x="561" y="408" width="5" height="131"/><rect class="cls-5" x="650" y="408" width="5" height="131"/><rect class="cls-5" x="730" y="408" width="5" height="131"/><rect class="cls-6" x="38" y="124" width="158" height="185"/><rect class="cls-6" x="252" y="124" width="158" height="185"/><rect class="cls-6" x="462" y="124" width="158" height="185"/><rect class="cls-6" x="672" y="124" width="158" height="185"/><rect class="cls-3" x="32" y="309" width="170" height="9"/><rect class="cls-3" x="246" y="309" width="170" height="9"/><rect class="cls-3" x="456" y="309" width="170" height="9"/><rect class="cls-3" x="666" y="309" width="170" height="9"/><rect class="cls-4" x="32" y="318" width="171" height="5"/><rect class="cls-4" x="246" y="317" width="171" height="5"/><rect class="cls-4" x="456" y="317" width="171" height="5"/><rect class="cls-4" x="666" y="318" width="171" height="5"/><rect class="cls-7" x="46" y="130" width="142" height="173"/><rect class="cls-7" x="260" y="130" width="142" height="173"/><rect class="cls-7" x="470" y="130" width="142" height="173"/><rect class="cls-7" x="681" y="130" width="142" height="173"/><rect class="cls-5" x="382" width="430" height="9"/><rect class="cls-5" x="382" y="104" width="430" height="9"/><rect class="cls-5" x="382" width="11" height="113"/><rect class="cls-5" x="801" width="11" height="113"/><text class="cls-8" transform="translate(473.82 71.11)">Art <tspan class="cls-9" x="93.82" y="0">G</tspan><tspan x="133.66" y="0">allery</tspan></text></svg>