<svg id="Layer_1" data-name="Layer 1" xmlns="http://www.w3.org/2000/svg" viewBox="0 0 533.5 393">
    <title>blood</title>
    <path class="cls-1" d="M363,214s144,100,0,221v24s56-32,72-63c0,0-13,37-8,63l-7,63s-7,49,0,49h41s-5-2,0-18l14,18,27.5.5s-39-15-17-119c0,0,17-44,6-130,0,0,70,142,117,169,0,0,69,47,107,80h179s-155-95-168-108c0,0-84-59-89-78,0,0-34-33-47-51,0,0-32-66-59-98,0,0-16-29-53-58Z" transform="translate(-363 -178.5)"/><path class="cls-1" d="M613,362s47,12,34-54c0,0-20.5-35.5-30.5-68.5,0,0-3-22-30-30,0,0-10-4-8-22,0,0-5,22,18,25a51.73,51.73,0,0,1,20,22s-1-16,2-27l6-15s-7,23-5,35c0,0-3,12,12,44l19,36,1-22s-2-8,13-23c0,0,11-7,3-32,0,0,9,13,3,29,0,0-19,18-16,27l-1,22s2,10,0,34c0,0,0,4-10,24,0,0-3,5,5,3l16-4,24-13s20-14,28-47c0,0,15-29,16-65,0,0,1-32-30-43,0,0-16-8-23-17,0,0,17,14,22,14,0,0,12,3,24,14,0,0,13,19,11,39,0,0,10-39,23-47,0,0,16-10,25-9,0,0,15-2,17-2s-13,5-13,5-16,2-25,10c0,0-13,11-15,28l-18,55s-7,17,7,4c0,0,13-7,26-6l14-1s13,2,26-15c0,0,4-10,24-6,0,0-18-5-24,9a91.87,91.87,0,0,1-11,11s-15,5-20,3c0,0,8,4,13,4,0,0,12,6,22,6,0,0,20,2,35-11,0,0,12-14,16-16a97.1,97.1,0,0,1-22,25l17-1a35.35,35.35,0,0,1,14,6s8,5,13,9a22.36,22.36,0,0,0,16-3s-4,5-10,6c0,0-10,2-23-11,0,0-7-6-24-4,0,0-20,5-32,3,0,0-21-4-30-7a50.48,50.48,0,0,0-35,0s-17,10-22,27c0,0-6,15-13,24,0,0-11,17-25,21l41-1,44-19,24-13s11-2,16,0,24,12,36-7c0,0-8,13-13,13,0,0-5,2-17-1,0,0-12-10-39,6l17,1s9-1,27,10c0,0,16,12,35,0,0,0,12-4,17-12,0,0-8,13-19,18,0,0,14-4,20,13,0,0,8,15,24,6,0,0-11,13-26-5,0,0-3-14-22-12,0,0-19,3-32-5,0,0-15-13-42-9l-40,16s33,15,39,16c0,0,16,8,25,8,0,0,5,3,27,3l14,1s-20,2-37,0c0,0-31-6-37-11l12,18s11,15,20,18a64.75,64.75,0,0,0,36,9s8,0,20-16c0,0,12-9,20,7,0,0-9-16-22-2,0,0-12,17-28,13,0,0,25,13,30,24,0,0-22-20-34-23,0,0-25-6-38-20,0,0-18-19-24-29,0,0-1-5-23-11,0,0-45-1-61,8,0,0-28,5-35,9Z" transform="translate(-363 -178.5)"/>
</svg>