<?xml version="1.0" encoding="utf-8"?>
<!-- Generator: Adobe Illustrator 22.0.1, SVG Export Plug-In . SVG Version: 6.00 Build 0)  -->
<svg version="1.1" id="Body" xmlns="http://www.w3.org/2000/svg" xmlns:xlink="http://www.w3.org/1999/xlink" x="0px" y="0px"
	 viewBox="0 0 715.3 1385.4" style="enable-background:new 0 0 715.3 1385.4;" xml:space="preserve">
<style type="text/css">
	.st0{fill:none;}
</style>
<g id="Body_1_">
	<polygon points="278.1,478.6 346.7,494.6 346.7,590.9 252.5,535.7 	"/>
	<polygon points="314.8,382.1 314.8,409.9 345.1,396 345.1,371.6 	"/>
	<polygon points="263.9,368 272.6,472.5 297.9,477.2 306.3,375.9 263.1,351.6 	"/>
	<g id="Shoulders">
		<polygon points="344.2,247.3 256.7,256.9 291.6,298.8 		"/>
		<polygon points="256,256.9 291.6,298.5 236.6,347.3 236.6,298.5 		"/>
		<polygon points="388.4,247.3 475.2,256.9 440.4,298.8 		"/>
		<polygon points="472,257.5 437.2,298.5 491.2,346.6 491.2,298.5 		"/>
	</g>
	<polygon points="450,478.6 381.8,494.6 381.8,590.9 475.2,535.7 	"/>
	<g id="Arm">
		<polygon points="220.2,308.6 223.1,350.1 169.6,473 150.1,466.9 173.6,375.6 		"/>
		<polygon points="151.1,467.9 109.6,594.3 112.7,599.5 154.7,504.1 		"/>
		<polygon points="173.3,494.3 158.7,509.6 116,599.3 119.9,613.2 167.1,532.5 		"/>
		<polygon points="502.5,308.6 499.5,350.1 552.7,473 572,466.9 548.7,375.6 		"/>
		<polygon points="575.8,467.9 617,594.3 614.1,599.5 572.5,504.1 		"/>
		<polygon points="553.9,494.3 568.5,509.6 610.8,599.3 606.9,613.2 560,532.5 		"/>
		<g id="Elbow">
			<polygon points="174.3,468.8 157.5,482.3 158.3,499.3 175.1,485.2 			"/>
			<polygon points="553,468.8 569.6,482.3 568.8,499.3 552.2,485.2 			"/>
		</g>
	</g>
	<g id="Hand">
		<path d="M101,658l-1.1,5.3l0,0l-4.5,13.7c-0.2,0.7,0,1.2,0.5,1.8l0,0c0.5,0.4,1.3,0.5,1.9,0.4l0.8-0.2c1.3-0.4,2.4-1.2,3-2.3
			l12.1-21.9c1.8-3.2,2.7-6.6,2.6-10l-0.6-22.5l-22.8-8.7l-11.5,6.2c-3.5,2-6.9,4.3-9.7,6.8l-4,3.4c-3,2.7-5.4,5.9-7,9.3l-11.8,27.3
			c-0.3,0.5-0.2,1.2,0.2,1.8l0,0c0.5,0.5,1.3,0.9,2.1,0.5c0.2,0,0.2,0,0.3,0c1.1-0.4,2.2-0.9,2.9-1.8l8.6-11.6L44,688.8
			c-0.5,0.9-0.5,2.1,0,2.9l0.5,0.7c0.3,0.5,1.1,0.9,1.9,0.7h0.5c1.6-0.4,3.2-0.4,4-1.4l22.4-32.5l-25.9,39.9c-1,1.6-1.3,3.4-1,5
			l0.2,0.5l0,0c0.3,1.2,1.4,2.1,3,2.1h0.2l0,0l0,0c3.8-0.5,5.7-2.3,7-4.6l29.5-41.5l-29.9,46.2c-1.1,1.8-1.6,3.7-1.3,5.5
			c0.2,0.9,0.5,1.8,1.1,2.5c0.2,0.2,0.3,0.4,0.3,0.4c4.3,0.9,7.8-4.5,10.2-7.8l25.2-36.7L101,658z"/>
		<path d="M625.6,658l1.1,5.3l0,0l4.3,13.7c0.2,0.7,0,1.2-0.5,1.8l0,0c-0.5,0.4-1.3,0.5-1.9,0.4l-0.8-0.2c-1.3-0.4-2.4-1.2-2.9-2.3
			l-12-21.9c-1.8-3.2-2.7-6.6-2.6-10l0.6-22.5l22.7-8.7l11.3,6.2c3.5,2,6.7,4.3,9.7,6.8l4,3.4c3,2.7,5.4,5.9,6.9,9.3l11.8,27.3
			c0.3,0.5,0.2,1.2-0.2,1.8l0,0c-0.5,0.5-1.3,0.9-2.1,0.5c-0.2,0-0.2,0-0.3,0c-1.1-0.4-2.1-0.9-2.9-1.8l-8.5-11.6l18.8,33.3
			c0.5,0.9,0.5,2.1,0,2.9l-0.5,0.7c-0.3,0.5-1.1,0.9-1.9,0.7h-0.5c-1.6-0.4-3.2-0.4-3.8-1.4l-22.4-32.1l25.7,39.9c1,1.6,1.3,3.4,1,5
			l-0.2,0.5l0,0c-0.3,1.2-1.4,2.1-3,2.1h-0.2l0,0l0,0c-3.8-0.5-5.7-2.3-6.9-4.6L640.5,661l29.5,46.2c1.1,1.8,1.6,3.7,1.3,5.5
			c-0.2,0.9-0.5,1.8-1.1,2.5c-0.2,0.2-0.3,0.4-0.3,0.4c-4.2,0.9-7.8-4.5-10.2-7.8l-24.7-36.9L625.6,658z"/>
	</g>
	<g id="Chest">
		<polygon points="299,300.6 342.9,292.2 349.1,360 310.3,372.5 256.5,335.2 		"/>
		<polygon points="429.1,300.6 385.7,292.2 379.4,360 417.9,372.5 471.4,335.2 		"/>
	</g>
	<polygon points="413.4,382.1 413.4,409.9 383.4,396 383.4,371.6 	"/>
	<g id="Belly">
		<polygon points="307.1,422.4 315.6,439 344.2,427.1 344.8,407.3 		"/>
		<polygon points="311,454 314,475.9 342.4,460.9 340.2,442.2 		"/>
		<polygon points="421.1,422.4 412.7,439 384.4,427.1 383.6,407.3 		"/>
		<polygon points="417.3,454 414.2,475.9 386,460.9 388.4,442.2 		"/>
	</g>
	<polygon points="464.1,368 455.3,472.5 430.4,477.2 421.8,375.9 464.9,351.6 	"/>
	<g id="Leg">
		<polygon points="293.6,936.7 321.5,936.7 335.5,1091.5 313.5,1258.8 300.6,1258.8 278.1,1099 		"/>
		<polygon points="283.2,887 286.4,931.2 325,932.8 331.2,887.5 		"/>
		<polygon points="441.2,887 438,931.2 399.4,932.8 393.5,887.5 		"/>
		<polygon points="429.7,936.7 402,936.7 388.1,1091.5 409.9,1258.8 422.7,1258.8 445.9,1098.3 		"/>
		<line class="st0" x1="318" y1="936.2" x2="300.4" y2="1259.3"/>
		<g id="Thign">
			<polygon points="256,551.4 344.5,602.7 336.8,880.9 287.6,887.5 248.5,676.7 			"/>
			<polygon points="468.2,549.7 381.7,604 395.2,881.8 444.1,887 478.4,674.8 			"/>
		</g>
		<line class="st0" x1="405.5" y1="956.5" x2="422.9" y2="1279.6"/>
	</g>
	<g id="Head">
		<polygon id="Face" points="359.8,58.5 311.1,87.3 310.8,138.1 298.3,138.1 298.3,153.6 309.7,153.6 324.4,199.2 358.7,220.5 
			392.4,201.6 406.7,155.4 413.9,153.4 413.9,139 404.2,139.9 407.2,91.2 		"/>
		<polygon id="Hair" points="291.3,123.4 276.5,70.6 299.6,34.2 354.1,17.6 422.3,41.5 435.7,79.9 417,123.4 410.7,126.6 
			413.8,77.7 357.3,45.6 299.6,74.7 299.6,126.6 		"/>
		<g id="Neck">
			<polygon points="331.2,221.9 352.1,233 359,273.1 346.9,267.9 			"/>
			<polygon points="395.2,223 369.4,231.7 360.8,271.5 375.8,267.7 			"/>
		</g>
	</g>
	<g id="Feet_x2F_foot">
		<path d="M319.1,1321.2v44.2c0,13-7.2,22.5-14.7,19.4l-17.2-7c-4.3-1.8-6.7-9.5-4.9-16.4l5.3-31.7
			C290.7,1294.3,318.6,1310.3,319.1,1321.2z"/>
		<path d="M422.9,1309.8c-9.9,3.4-16.1,16.2-15,29.4l2.4,27.3c1.1,12.7,9.4,20.7,17.1,16.8l17.7-9.5c4.5-2.3,6.2-10.2,3.8-16.6
			l-8.3-30.1C437.6,1310,430.1,1307.3,422.9,1309.8z"/>
	</g>
	<g id="Ankle">
		<path d="M314.8,1270.9v22.1c0,6.6-4.8,11.2-9.7,9.8l-11.5-3.6c-2.9-0.9-4.5-4.6-3.4-8.2l3.5-15.9
			C295.9,1257.3,314.5,1265.4,314.8,1270.9z"/>
		<path d="M427.2,1268.2l6.4,20.9c1.9,6.2-1.3,12.3-6.4,12.7l-11.8,0.9c-3,0.2-5.6-2.9-5.4-6.6l-1.3-16.2
			C405.5,1262.3,425.3,1263.2,427.2,1268.2z"/>
	</g>
	<g id="Finger_x2F_s">
		<polygon points="96.7,653.5 63.2,705.2 63.2,719.5 96.7,664.2 		"/>
		<polygon points="630.1,660.1 666.6,709.2 679.1,712.7 639.3,662.8 		"/>
	</g>
	<polygon id="Forehead" points="362,70.8 307.1,102 409,102 	"/>
	<path d="M761,323.6"/>
	<path id="frame" d="M421.8,360.5c-8-2.7-14.2-6.1-18.5-8.7c0,0-5.7-3.6-12.5-10.3c-1.6-1.6-3.8-3.9-5.3-7.8
		c-0.2-0.7-0.5-1.4-1.1-3.9c-1.4-6.4-2.1-9.6-2.1-13.6c0.2-2.7,0.2-7.1,2.7-11.4c0.6-1.1,2.4-3.9,5.3-5.5c6.1-3.6,12.5-0.2,16.3,1.8
		c6.4,3.2,10.5,8.6,12.9,12.1c0.3-2,1.8-9.3,7.5-14.1c4.3-3.7,8.8-3.9,10.9-4.1c2.2,0,7.5-0.2,12,4.1c1,0.9,3.4,3.4,4.6,7.5
		c1.3,4.6,0.5,8.7-0.5,12.5c-0.8,3.7-1.9,6.2-3.5,9.8c-1.3,2.9-3.7,8-8,13.6c-2.7,3.4-4.8,5.3-8.5,8.7
		C431.2,353.2,427,356.8,421.8,360.5z"/>
	<path id="Heart" d="M419.5,359.1c-6.2-2.1-11-5-14.4-7.1c0,0-4.5-2.9-9.7-8.4c-1.3-1.2-3-3.2-4.2-6.4c-0.2-0.5-0.5-1.2-0.8-3.2
		c-1.1-5.2-1.6-7.7-1.6-11.1c0-2.1,0.2-5.7,2.1-9.3c0.5-0.9,1.8-3,4.2-4.5c4.6-2.9,9.7-0.2,12.6,1.4c4.9,2.7,8.1,7,10.1,9.8
		c0.3-1.6,1.4-7.5,5.7-11.4c3.4-3,6.9-3.2,8.5-3.2c1.8,0,5.7-0.2,9.3,3.4c0.8,0.7,2.6,2.7,3.5,6.1c1,3.7,0.3,7-0.3,10
		c-0.6,3-1.6,5-2.7,7.8c-1,2.3-2.9,6.6-6.2,10.9c-2.1,2.7-3.7,4.3-6.5,7C426.9,353.2,423.7,356.1,419.5,359.1z"/>
	<g id="Hip">
		<ellipse cx="281.7" cy="580.8" rx="54" ry="51.9"/>
		<ellipse cx="445.5" cy="580.8" rx="54" ry="51.9"/>
	</g>
	<ellipse id="Thumb" cx="101.8" cy="677.6" rx="7.8" ry="8.7"/>
</g>
</svg>
