<svg xmlns="http://www.w3.org/2000/svg" xmlns:xlink="http://www.w3.org/1999/xlink" viewBox="0 0 1366 768"><defs><style>.cls-1{isolation:isolate;}.cls-2{fill:#fff;}.cls-3{fill:#98cad3;}.cls-4{fill:#dbe3eb;}.cls-5{fill:#f1eef1;}.cls-6{fill:#679fb0;}.cls-7{fill:#46738d;}.cls-8{fill:#37526e;}.cls-9{mix-blend-mode:overlay;}.cls-10{fill:#98a09c;}.cls-11{fill:#42a56a;}.cls-12{fill:#7f5233;}.cls-13{fill:#a57e5e;}.cls-14{fill:#895d3f;}.cls-15{fill:#9b6c51;}.cls-16{fill:#b2704b;}.cls-17{fill:#9e714f;}.cls-18{fill:#79bc94;}.cls-19{fill:#91603f;}.cls-20{fill:#af8366;}.cls-21{fill:#443632;}.cls-22{fill:#165128;}.cls-23{fill:#5e5142;}.cls-24{fill:#e1eae5;}.cls-25,.cls-34{fill:#d7efe1;}.cls-26,.cls-35{fill:#9f9f8f;}.cls-27{fill:#9fdbbb;}.cls-28{fill:#5c605d;}.cls-29{fill:#ade0c4;}.cls-30,.cls-33{fill:#e4e68a;}.cls-31{fill:#d7d59d;}.cls-32{fill:#e6cac6;}.cls-33,.cls-34,.cls-35{fill-rule:evenodd;}.cls-36{font-size:16.64px;}.cls-36,.cls-63,.cls-71{font-family:Athelas-Bold, Athelas;font-weight:700;}.cls-37{letter-spacing:-0.03em;}.cls-38{fill:#32328d;stroke:#292b86;stroke-width:0.5px;}.cls-38,.cls-41,.cls-42,.cls-61{stroke-miterlimit:10;}.cls-39{fill:#f1eeb2;}.cls-40{fill:#8fb8b3;}.cls-41,.cls-43{fill:none;}.cls-41,.cls-42,.cls-61{stroke:#000;}.cls-41,.cls-42{stroke-width:0.25px;}.cls-42,.cls-44{fill:#e95f50;}.cls-45{fill:#e1e7db;}.cls-46{fill:url(#linear-gradient);}.cls-47{fill:url(#linear-gradient-2);}.cls-48{fill:url(#linear-gradient-3);}.cls-49{fill:url(#linear-gradient-4);}.cls-50{fill:url(#linear-gradient-5);}.cls-51{fill:url(#linear-gradient-6);}.cls-52{fill:url(#linear-gradient-7);}.cls-53{fill:url(#linear-gradient-8);}.cls-54{fill:url(#linear-gradient-9);}.cls-55{fill:url(#linear-gradient-10);}.cls-56{fill:url(#linear-gradient-11);}.cls-57{fill:#626161;}.cls-58{fill:#2fc1be;}.cls-59{fill:#d7d397;}.cls-60{fill:#d25d55;}.cls-62{fill:#d6ddcc;}.cls-63{font-size:21.61px;}.cls-64{fill:#f54946;}.cls-65{fill:#f5976c;}.cls-66{fill:#7d8080;}.cls-67{fill:#4f5150;}.cls-68{fill:#ec7342;}.cls-69{fill:#f16363;opacity:0.75;}.cls-70{fill:#e67676;opacity:0.64;}.cls-71{font-size:18.02px;}.cls-72{letter-spacing:0em;}</style><linearGradient id="linear-gradient" x1="588.63" y1="321.68" x2="620.81" y2="321.68" gradientUnits="userSpaceOnUse"><stop offset="0" stop-color="#c4dbf1" stop-opacity="0.5"/><stop offset="0.19" stop-color="#b2d4ef" stop-opacity="0.49"/><stop offset="0.52" stop-color="#81c2e9" stop-opacity="0.46"/><stop offset="0.92" stop-color="#33a5df" stop-opacity="0.41"/><stop offset="0.99" stop-color="#25a0dd" stop-opacity="0.4"/></linearGradient><linearGradient id="linear-gradient-2" x1="637.56" y1="322.21" x2="669.74" y2="322.21" xlink:href="#linear-gradient"/><linearGradient id="linear-gradient-3" x1="588.63" y1="371.76" x2="620.81" y2="371.76" xlink:href="#linear-gradient"/><linearGradient id="linear-gradient-4" x1="637.56" y1="371.76" x2="669.74" y2="371.76" xlink:href="#linear-gradient"/><linearGradient id="linear-gradient-5" x1="799.34" y1="323.27" x2="831.52" y2="323.27" xlink:href="#linear-gradient"/><linearGradient id="linear-gradient-6" x1="755.26" y1="323.27" x2="787.44" y2="323.27" xlink:href="#linear-gradient"/><linearGradient id="linear-gradient-7" x1="757.02" y1="369.65" x2="789.2" y2="369.65" xlink:href="#linear-gradient"/><linearGradient id="linear-gradient-8" x1="799.78" y1="369.65" x2="831.96" y2="369.65" xlink:href="#linear-gradient"/><linearGradient id="linear-gradient-9" x1="699.72" y1="360.43" x2="711.18" y2="360.43" xlink:href="#linear-gradient"/><linearGradient id="linear-gradient-10" x1="715.59" y1="360.43" x2="727.05" y2="360.43" xlink:href="#linear-gradient"/><linearGradient id="linear-gradient-11" x1="697.07" y1="322.74" x2="729.25" y2="322.74" xlink:href="#linear-gradient"/></defs><title>final_homepage</title><g class="cls-1"><g id="Layer_1" data-name="Layer 1"><rect class="cls-2" width="1366" height="768"/><path class="cls-3" d="M188.64,515.64c40,9.91,84.08,17.83,124.19,8.26,32.05-7.65,58-25.76,91.08-30.76,73.39-11.08,142.2,45.92,215.35,34.09,32.3-5.23,57.63-23.17,89.47-29.63C783.44,482.44,856,534.36,933.58,530c53.64-3,100.18-32.63,153.92-30.76,38.17,1.32,71,18.33,107.17,27,55.24,13.18,114.29,6.22,171.33-5.64V410.5c-62.52,14.07-128.25,24.12-189.33,9.55-36.14-8.62-69-25.63-107.17-27-53.74-1.86-100.28,27.78-153.92,30.77-77.59,4.31-150.14-47.61-224.85-32.45-31.84,6.46-57.17,24.41-89.47,29.63-73.15,11.84-142-45.16-215.35-34.09-33.12,5-59,23.12-91.08,30.76-40.11,9.57-84.24,1.65-124.19-8.25s-80.44-22-122.81-20.59A149.14,149.14,0,0,0,0,398.4v115c17.5-10.91,42.06-17.59,65.83-18.37C108.2,493.66,148.7,505.73,188.64,515.64Z"/><path class="cls-4" d="M170.64,409.46c40,9.9,84.08,17.82,124.19,8.25,32.05-7.64,58-25.76,91.08-30.76,73.39-11.07,142.2,45.93,215.35,34.09,32.3-5.22,57.63-23.17,89.47-29.63,74.71-15.16,147.26,36.76,224.85,32.45,53.64-3,100.18-32.63,153.92-30.77,38.17,1.33,71,18.34,107.17,27,61.08,14.57,126.81,4.52,189.33-9.55V310.29c-61,13.47-124.88,22.61-184.33,8.43-36.14-8.62-69-25.63-107.17-27-53.74-1.87-100.28,27.78-153.92,30.76-77.59,4.32-150.14-47.6-224.85-32.44-31.84,6.46-57.17,24.4-89.47,29.63-73.15,11.83-142-45.17-215.35-34.09-33.12,5-59,23.11-91.08,30.76-40.11,9.57-84.24,1.65-124.19-8.26s-80.44-22-122.81-20.58A147.08,147.08,0,0,0,0,299.13V398.4a149.14,149.14,0,0,1,47.83-9.53C90.2,387.48,130.7,399.55,170.64,409.46Z"/><path class="cls-5" d="M175.64,308.13c40,9.91,84.08,17.83,124.19,8.26,32.05-7.65,58-25.76,91.08-30.76,73.39-11.08,142.2,45.92,215.35,34.09,32.3-5.23,57.63-23.17,89.47-29.63,74.71-15.16,147.26,36.76,224.85,32.44,53.64-3,100.18-32.63,153.92-30.76,38.17,1.32,71,18.33,107.17,27,59.45,14.18,123.31,5,184.33-8.43V235H0v64.13a147.08,147.08,0,0,1,52.83-11.58C95.2,286.15,135.7,298.22,175.64,308.13Z"/><path class="cls-6" d="M188.64,619.05c40,9.9,84.08,17.83,124.19,8.26,32.05-7.65,58-25.77,91.08-30.76,73.39-11.08,142.2,45.92,215.35,34.08,32.3-5.22,57.63-23.17,89.47-29.63,74.71-15.16,147.26,36.77,224.85,32.45,53.64-3,100.18-32.63,153.92-30.76,38.17,1.32,71,18.33,107.17,26.95C1249.91,642.81,1309,635.85,1366,624V520.59c-57,11.86-116.09,18.82-171.33,5.64-36.14-8.62-69-25.63-107.17-27-53.74-1.87-100.28,27.78-153.92,30.76-77.59,4.32-150.14-47.6-224.85-32.44-31.84,6.46-57.17,24.4-89.47,29.63-73.15,11.83-142-45.17-215.35-34.09-33.12,5-59,23.11-91.08,30.76-40.11,9.57-84.24,1.65-124.19-8.26s-80.44-22-122.81-20.58c-23.77.78-48.33,7.46-65.83,18.37v103.4c17.5-10.9,42.06-17.58,65.83-18.37C108.2,597.07,148.7,609.14,188.64,619.05Z"/><path class="cls-7" d="M1194.67,629.64c-36.14-8.62-69-25.63-107.17-26.95-53.74-1.87-100.28,27.78-153.92,30.76C856,637.77,783.44,585.84,708.73,601c-31.84,6.46-57.17,24.41-89.47,29.63-73.15,11.84-142-45.16-215.35-34.08-33.12,5-59,23.11-91.08,30.76-40.11,9.57-84.24,1.64-124.19-8.26s-80.44-22-122.81-20.59c-23.77.79-48.33,7.47-65.83,18.37v97.32a147.08,147.08,0,0,1,52.83-11.58c42.37-1.4,82.87,10.67,122.81,20.58s84.08,17.83,124.19,8.26c32.05-7.65,58-25.76,91.08-30.76,73.39-11.08,142.2,45.92,215.35,34.09,32.3-5.23,57.63-23.17,89.47-29.63C770.44,690,843,741.87,920.58,737.55c53.64-3,100.18-32.63,153.92-30.76,38.17,1.32,71,18.33,107.17,27,59.45,14.18,123.31,5,184.33-8.43V624C1309,635.85,1249.91,642.81,1194.67,629.64Z"/><path class="cls-8" d="M1181.67,733.74c-36.14-8.62-69-25.63-107.17-27-53.74-1.87-100.28,27.78-153.92,30.76C843,741.87,770.44,690,695.73,705.11c-31.84,6.46-57.17,24.4-89.47,29.63-73.15,11.83-142-45.17-215.35-34.09-33.12,5-59,23.11-91.08,30.76-40.11,9.57-84.24,1.65-124.19-8.26s-80.44-22-122.81-20.58A147.08,147.08,0,0,0,0,714.15V768H1366V725.31C1305,738.78,1241.12,747.92,1181.67,733.74Z"/><g class="cls-9"><path class="cls-3" d="M1177.36,515.64c-39.95,9.91-84.08,17.83-124.19,8.26-32.05-7.65-58-25.76-91.08-30.76-73.39-11.08-142.2,45.92-215.35,34.09-32.3-5.23-57.63-23.17-89.47-29.63C582.56,482.44,510,534.36,432.42,530c-53.64-3-100.18-32.63-153.92-30.76-38.17,1.32-71,18.33-107.17,27C116.09,539.41,57,532.45,0,520.59V410.51c62.52,14.06,128.25,24.11,189.33,9.54,36.14-8.62,69-25.63,107.17-27,53.74-1.86,100.28,27.78,153.92,30.77,77.59,4.31,150.14-47.61,224.85-32.45,31.84,6.46,57.17,24.41,89.47,29.63,73.15,11.84,142-45.16,215.35-34.09,33.12,5,59,23.12,91.08,30.76,40.11,9.57,84.24,1.65,124.19-8.25s80.44-22,122.81-20.59A149.14,149.14,0,0,1,1366,398.4v115c-17.5-10.91-42.06-17.59-65.83-18.37C1257.8,493.66,1217.3,505.73,1177.36,515.64Z"/><path class="cls-4" d="M1195.36,409.46c-39.95,9.9-84.08,17.82-124.19,8.25-32.05-7.64-58-25.76-91.08-30.76C906.7,375.88,837.89,432.88,764.74,421c-32.3-5.22-57.63-23.17-89.47-29.63C600.56,376.25,528,428.17,450.42,423.86c-53.64-3-100.18-32.63-153.92-30.77-38.17,1.33-71,18.34-107.17,27C128.25,434.62,62.52,424.57,0,410.51V310.29c61,13.47,124.88,22.61,184.33,8.43,36.14-8.62,69-25.62,107.17-27,53.74-1.87,100.28,27.78,153.92,30.76,77.59,4.32,150.14-47.6,224.85-32.44,31.84,6.46,57.17,24.4,89.47,29.63,73.15,11.83,142-45.17,215.35-34.09,33.12,5,59,23.11,91.08,30.76,40.11,9.57,84.24,1.65,124.19-8.26s80.44-22,122.81-20.58A147.08,147.08,0,0,1,1366,299.13V398.4a149.14,149.14,0,0,0-47.83-9.53C1275.8,387.48,1235.3,399.55,1195.36,409.46Z"/><path class="cls-5" d="M1190.36,308.13c-39.95,9.91-84.08,17.83-124.19,8.26-32.05-7.65-58-25.76-91.08-30.76-73.39-11.08-142.2,45.92-215.35,34.09-32.3-5.23-57.63-23.17-89.47-29.63C595.56,274.93,523,326.85,445.42,322.53c-53.64-3-100.18-32.63-153.92-30.76-38.17,1.33-71,18.33-107.17,27C124.88,332.9,61,323.76,0,310.29V235H1366v64.13a147.08,147.08,0,0,0-52.83-11.58C1270.8,286.15,1230.3,298.22,1190.36,308.13Z"/><path class="cls-6" d="M1177.36,619.05c-39.95,9.91-84.08,17.83-124.19,8.26-32.05-7.65-58-25.77-91.08-30.76-73.39-11.08-142.2,45.92-215.35,34.08-32.3-5.22-57.63-23.17-89.47-29.63C582.56,585.84,510,637.77,432.42,633.45c-53.64-3-100.18-32.63-153.92-30.76-38.17,1.32-71,18.33-107.17,26.95C116.09,642.81,57,635.85,0,624V520.59c57,11.86,116.09,18.82,171.33,5.64,36.14-8.62,69-25.63,107.17-27,53.74-1.87,100.28,27.78,153.92,30.76,77.59,4.32,150.14-47.6,224.85-32.44,31.84,6.46,57.17,24.4,89.47,29.63,73.15,11.83,142-45.17,215.35-34.09,33.12,5,59,23.11,91.08,30.76,40.11,9.57,84.24,1.65,124.19-8.26s80.44-22,122.81-20.58c23.77.78,48.33,7.46,65.83,18.37v103.4c-17.5-10.9-42.06-17.58-65.83-18.37C1257.8,597.07,1217.3,609.14,1177.36,619.05Z"/><path class="cls-7" d="M171.33,629.64c36.14-8.62,69-25.63,107.17-26.95,53.74-1.87,100.28,27.78,153.92,30.76C510,637.77,582.56,585.84,657.27,601c31.84,6.46,57.17,24.41,89.47,29.63,73.15,11.84,142-45.16,215.35-34.08,33.12,5,59,23.11,91.08,30.76,40.11,9.57,84.24,1.65,124.19-8.26s80.44-22,122.81-20.59c23.77.79,48.33,7.47,65.83,18.37v97.32a147.08,147.08,0,0,0-52.83-11.58c-42.37-1.4-82.87,10.67-122.81,20.58s-84.08,17.83-124.19,8.26c-32.05-7.65-58-25.76-91.08-30.76-73.39-11.08-142.2,45.92-215.35,34.09-32.3-5.23-57.63-23.17-89.47-29.63C595.56,690,523,741.87,445.42,737.55c-53.64-3-100.18-32.63-153.92-30.76-38.17,1.32-71,18.33-107.17,27C124.88,747.92,61,738.78,0,725.31V624C57,635.85,116.09,642.81,171.33,629.64Z"/><path class="cls-8" d="M184.33,733.74c36.14-8.62,69-25.63,107.17-27,53.74-1.87,100.28,27.78,153.92,30.76C523,741.87,595.56,690,670.27,705.11c31.84,6.46,57.17,24.4,89.47,29.63,73.15,11.83,142-45.17,215.35-34.09,33.12,5,59,23.11,91.08,30.76,40.11,9.57,84.24,1.65,124.19-8.26s80.44-22,122.81-20.58A147.08,147.08,0,0,1,1366,714.15V768H0V725.31C61,738.78,124.88,747.92,184.33,733.74Z"/></g><polygon class="cls-10" points="237.08 182.19 232.76 179.91 230.61 178.77 229.13 178.96 226.3 180.4 224 182.12 221.31 184.61 219.15 187.38 222.52 186.23 224.95 185.56 227.24 183.84 229.13 182.88 231.15 182.97 234.78 183.92 236.94 185.06 237.21 187.16 236.4 188.69 235.05 189.93 236.13 190.5 238.56 189.83 240.98 189.15 242.87 188.2 244.22 186.95 245.56 185.71 243.14 186.38 242.19 186.86 241.12 186.29 241.79 183.71 243 181.42 245.3 179.7 246.11 178.17 247.45 176.93 249.34 175.97 252.31 175.58 254.87 175.96 257.29 175.29 259.18 174.33 257.56 173.47 255.41 172.33 253.25 171.19 250.82 171.86 249.34 172.06 247.86 172.25 245.97 173.21 244.63 174.45 243.41 176.74 242.6 178.27 242.2 179.04 241.79 179.8 240.98 181.33 240.58 182.09 240.18 182.86 240.04 181.81 240.04 181.81 239.5 181.52 239.5 181.52 238.56 182 238.15 182.76 238.15 182.76 237.75 183.53 237.21 183.24 237.08 182.19 237.08 182.19"/><polygon class="cls-10" points="1230.7 233.79 1228.43 227.06 1227.29 223.69 1226.22 222.19 1223.84 220.18 1221.74 219.01 1219.13 218.01 1216.81 217.86 1219.47 220.71 1221.34 222.89 1223.44 224.06 1225.03 225.4 1226.39 227.75 1228.6 232.62 1229.73 235.99 1229.28 238.01 1228.26 238.36 1226.95 237.86 1227.52 239.54 1229.39 241.72 1231.26 243.9 1232.85 245.24 1234.15 245.74 1235.46 246.24 1233.59 244.06 1232.79 243.39 1232.23 241.71 1233.47 240.35 1235.01 239.83 1237.1 241 1238.12 240.66 1239.43 241.15 1241.01 242.49 1243.17 245.51 1244.81 248.71 1246.68 250.89 1248.27 252.22 1247.42 249.7 1246.29 246.34 1245.15 242.97 1243.28 240.79 1242.2 239.28 1241.13 237.77 1239.54 236.43 1238.24 235.93 1236.7 236.45 1235.68 236.79 1235.17 236.97 1234.66 237.14 1233.64 237.48 1233.13 237.65 1232.62 237.82 1232.85 236.81 1232.85 236.81 1232.57 235.97 1232.57 235.97 1231.77 235.3 1231.26 235.47 1231.26 235.47 1230.75 235.65 1230.47 234.8 1230.7 233.79 1230.7 233.79"/><polygon class="cls-10" points="144.82 347.71 138.75 344.5 135.72 342.89 133.81 342.83 130.35 343.86 127.65 345.28 124.56 347.45 122.22 350.02 126.44 349.4 129.5 349.12 132.2 347.69 134.51 347.01 137.18 347.47 142.13 349.14 145.16 350.75 145.89 353.04 145.1 354.52 143.56 355.61 145.08 356.41 148.14 356.13 151.2 355.85 153.51 355.17 155.06 354.08 156.6 352.99 153.54 353.28 152.38 353.62 150.87 352.81 151.29 350.18 152.47 347.95 155.17 346.52 155.96 345.04 157.5 343.95 159.81 343.27 163.63 343.39 167.06 344.25 170.12 343.97 172.43 343.29 170.15 342.08 167.12 340.47 164.08 338.87 161.02 339.15 159.1 339.09 157.19 339.03 154.89 339.71 153.34 340.8 152.16 343.03 151.37 344.51 150.98 345.26 150.59 346 149.8 347.49 149.41 348.23 149.01 348.98 148.65 347.83 148.65 347.83 147.89 347.43 147.89 347.43 146.74 347.77 146.34 348.51 146.34 348.51 145.95 349.26 145.19 348.86 144.82 347.71 144.82 347.71"/><polygon class="cls-10" points="708.64 90.17 704.61 88.03 702.59 86.96 701.31 86.94 698.98 87.69 697.15 88.7 695.06 90.22 693.46 92.02 696.3 91.54 698.35 91.31 700.18 90.3 701.73 89.8 703.52 90.09 706.81 91.17 708.83 92.24 709.29 93.81 708.75 94.83 707.7 95.6 708.71 96.13 710.76 95.9 712.82 95.67 714.38 95.18 715.42 94.42 716.47 93.65 714.42 93.88 713.64 94.13 712.63 93.6 712.94 91.78 713.76 90.24 715.59 89.23 716.13 88.2 717.18 87.44 718.74 86.94 721.3 86.98 723.59 87.53 725.64 87.31 727.2 86.81 725.68 86.01 723.67 84.94 721.65 83.87 719.59 84.1 718.31 84.08 717.03 84.06 715.48 84.56 714.43 85.32 713.61 86.87 713.07 87.9 712.79 88.41 712.52 88.93 711.98 89.95 711.71 90.47 711.43 90.98 711.2 90.2 711.2 90.2 710.7 89.94 710.7 89.94 709.92 90.18 709.65 90.7 709.65 90.7 709.38 91.21 708.87 90.95 708.64 90.17 708.64 90.17"/><polygon class="cls-11" points="277.91 328.36 289.44 357.49 276 346.22 277.91 328.36"/><path class="cls-12" d="M459.67,707.83"/><polygon class="cls-13" points="536.27 702.37 545.38 692.23 559.06 694.57 564.53 698.47 564.53 707.83 559.06 710.95 545.38 710.95 536.27 702.37"/><polygon class="cls-14" points="539.91 719.52 536.27 701.59 545.38 710.95 539.91 719.52"/><polygon class="cls-15" points="550.86 725.76 539.91 719.52 545.38 710.95 559.06 710.95 550.86 725.76"/><polygon class="cls-14" points="564.53 716.4 550.86 725.76 559.06 710.95 564.53 707.83 564.53 716.4"/><polygon class="cls-14" points="536.49 701.96 539.62 698.48 541.29 696.63 545.17 692.31 558.95 694.2 556.22 694.29 553.48 694.38 550.71 693.69 547.98 693.78 546.16 693.84 544.37 694.68 540.05 700.01 536.49 701.96"/><polygon class="cls-15" points="553.59 694.57 553.59 698.47 560.89 703.93 564.53 707.83 564.53 698.47 559.06 694.57 553.59 694.57"/><polygon class="cls-16" points="283.67 353.04 283.67 367.07 318.51 382.65 323.8 385.01 283.67 353.04"/><polygon class="cls-11" points="1100.73 432.57 1072.76 437.25 1077.02 435.69 1090.7 432.57 1100.73 432.57"/><polygon class="cls-11" points="1108.02 416.2 1099.07 432.57 1110.76 416.2 1108.02 416.2"/><polygon class="cls-17" points="654.22 706.73 629 692.29 616.39 670.64 594.53 654.89 584.45 641.11 555.02 636.51 523.91 614.2 471.79 610.92 419.67 585.99 419.67 571.55 404.53 551.21 370.9 535.46 343.16 513.8 343.16 503.3 324.67 473.11 308.69 446.87 291.88 402.24 291.88 379.27 291.88 365.49 1142.67 353.02 1132.59 387.15 1107.36 410.12 1119.97 435.71 1100.64 467.21 1089.71 500.02 1089.71 529.55 1077.1 555.14 1045.15 543.33 1011.52 505.27 972.85 500.02 972.85 529.55 954.36 543.33 928.29 546.61 915.68 563.02 890.46 563.02 858.51 563.02 841.7 578.11 841.7 596.49 830.77 619.45 803.03 619.45 765.2 622.73 737.45 631.26 712.23 660.79 703.83 687.7 682.81 706.73 674.4 725.76 654.22 706.73"/><polygon class="cls-18" points="401.54 270.49 363.57 270.49 342 270.49 317.84 287.18 302.31 305.06 285.92 314.6 277.29 328.9 277.29 346.78 281.11 351.31 283.78 354.47 301.45 375.39 323.88 384.93 339.42 400.43 367.89 400.43 401.54 407.58 424.84 407.58 453.31 424.27 469.71 424.27 492.14 424.27 512.85 444.54 536.15 451.69 545.64 470.77 573.25 470.77 588.78 494.61 603.45 494.61 618.98 494.61 644.87 494.61 658.67 502.95 679.38 502.95 690.6 488.65 718.21 474.34 737.2 467.19 755.32 450.5 768.26 464.81 783.79 456.46 803.64 455.27 823.48 443.35 850.23 457.65 873.53 454.08 886.47 454.08 908.04 466 919.26 466 938.24 466 955.5 466 971.03 462.42 987.43 463.61 1006.41 458.85 1024.53 455.27 1046.1 454.08 1046.1 439.77 1059.05 439.77 1084.07 436.19 1100.46 432.62 1110.82 415.93 1117.97 406.91 1160 353.94 1160 337.25 1160 313.4 1146.19 301.48 1122.03 281.21 1097.87 270.49 1079.75 260.95 1053.87 241.87 1031.43 223.99 1003.82 209.69 973.62 209.69 948.6 200.15 920.99 183.46 889.92 183.46 857.13 171.54 826.07 171.54 800.18 171.54 767.4 162 732.02 162 701.82 162 678.52 181.07 652.63 176.31 621.57 176.31 600.86 188.23 573.25 188.23 547.37 190.61 515.44 200.15 498.18 185.84 472.3 200.15 441.23 214.46 420.52 243.07 401.54 270.49"/><polygon class="cls-18" points="1121.17 411.94 1124.62 403.27 1133.25 393.15 1142.51 380.47 1153.24 367.83 1156.57 358.26 1135.84 377.26 1128.07 385.21 1121.17 388.82 1116.86 401.82 1110.82 416.27 1121.17 411.94"/><polygon class="cls-16" points="323.8 389.69 318.32 382.67 323.8 385.01 339.3 400.61 323.8 389.69"/><polygon class="cls-16" points="367.57 400.61 339.3 400.61 346.59 403.72 367.57 400.61"/><polygon class="cls-16" points="401.31 407.62 367.57 400.61 365.74 403.72 397.66 409.96 401.31 411.52 424.45 410.21 424.1 407.62 401.31 407.62"/><polygon class="cls-16" points="452.37 427.12 424.1 409.96 424.1 407.62 453.28 424 452.37 427.12"/><polygon class="cls-16" points="492.5 424 452.37 427.12 453.28 424 492.5 424"/><polygon class="cls-16" points="348.99 403.72 365.74 403.72 367.57 400.61 348.99 403.72"/><polygon class="cls-16" points="483.9 424.67 509.82 446.61 512.56 444.27 492.5 424 483.9 424.67"/><polygon class="cls-16" points="536.27 452.07 512.56 444.27 509.82 446.61 536.27 452.07"/><polygon class="cls-16" points="544.47 471.56 534.44 452.85 536.27 452.07 545.38 470.78 544.47 471.56"/><polygon class="cls-16" points="573.65 470.78 571.21 470.98 545.38 473.12 544.47 471.56 545.38 470.78 573.65 470.78"/><polygon class="cls-16" points="586.42 498.07 569.42 471.56 573.65 470.78 589.15 494.95 596.31 494.61 594.63 496.51 586.42 498.07"/><polygon class="cls-16" points="643.87 497.29 594.63 496.51 596.45 494.95 644.78 494.95 643.87 497.29"/><polygon class="cls-16" points="657.55 505.09 643.87 497.29 644.78 494.95 658.46 502.75 661.2 505.09 657.55 505.09"/><polygon class="cls-16" points="679.43 504.31 661.2 505.09 658.46 502.75 679.43 502.75 679.43 504.31"/><polygon class="cls-16" points="692.2 490.28 690.38 488.72 679.43 502.75 679.43 504.31 692.2 490.28"/><polygon class="cls-16" points="714.09 480.14 692.2 490.28 690.38 488.72 714.09 476.48 720.54 473.47 736.88 466.88 731.08 470.19 727.76 473.12 714.09 480.14"/><polygon class="cls-16" points="755.12 457.53 736.88 466.88 755.12 450.51 767.89 464.54 755.12 457.53"/><polygon class="cls-16" points="767.89 467.66 787.04 458.31 783.39 456.75 767.89 464.54 767.89 467.66"/><polygon class="cls-16" points="805.27 459.09 787.04 459.09 783.39 456.75 803.45 455.19 805.27 459.09"/><polygon class="cls-16" points="823.51 447.39 805.27 459.09 803.45 455.19 823.51 443.49 823.51 447.39"/><polygon class="cls-16" points="848.13 462.2 823.51 446.61 823.51 443.49 849.96 457.53 848.13 462.2"/><polygon class="cls-16" points="886.43 459.09 883.71 459.09 874.58 459.09 848.13 462.2 849.96 457.53 873.67 455.19 886.43 455.19 908.32 466.88 886.43 459.09"/><polygon class="cls-16" points="956.65 470 908.32 466.88 955.74 466.88 968.27 463.06 966.68 467.66 956.65 470"/><polygon class="cls-16" points="988.56 470 966.68 467.66 968.5 462.99 974.79 462.2 988.56 462.99 988.56 470"/><polygon class="cls-16" points="1011.36 460.65 988.56 470 988.56 462.99 1012.94 457.56 1011.36 460.65"/><polygon class="cls-16" points="1025.95 460.65 1011.36 460.65 1013.18 457.53 1024.13 455.19 1046.01 455.19 1025.95 460.65"/><polygon class="cls-16" points="1054.22 445.83 1046.01 455.19 1046.01 439.59 1058.78 439.59 1052.4 443.49 1054.22 445.83"/><polygon class="cls-16" points="1061.52 443.49 1101.64 436.47 1108.15 422 1110.76 416.2 1100.73 432.57 1058.78 439.59 1061.52 443.49"/><polygon class="cls-11" points="283.78 354.47 301 367.29 309.47 373.59 323.8 385.01 334.52 395.8 339.3 400.61 339.3 397.53 321.06 379.55 283.78 354.47"/><polygon class="cls-11" points="367.57 398.26 339.3 397.49 339.3 400.61 367.57 400.61 401.31 407.62 424.1 407.62 424.1 406.06 402.22 406.06 367.57 398.26"/><polygon class="cls-11" points="453.28 424 454.19 421.66 424.1 406.06 424.1 407.62 453.28 424"/><polygon class="cls-11" points="492.5 424 454.19 421.66 453.28 424 492.5 424"/><polygon class="cls-11" points="494.32 421.66 512.56 441.15 536.27 449.73 536.27 452.07 512.56 444.27 492.5 424 494.32 421.66"/><polygon class="cls-11" points="548.12 466.88 539.91 451.29 536.27 449.73 536.27 452.07 545.38 470.78 573.65 470.78 561.8 468.44 554.5 469.22 548.12 466.88"/><polygon class="cls-11" points="589.15 494.95 573.65 470.78 590.98 492.62 644.78 492.62 654.81 498.07 658.46 502.75 648.88 497.29 635.5 494.85 589.15 494.95"/><polygon class="cls-11" points="676.7 499.63 658.46 502.75 676.7 502.75 679.43 502.75 690.38 488.72 736.88 466.88 733.15 466.88 730.5 466.88 694.02 484.04 685.82 490.28 676.7 499.63"/><polygon class="cls-11" points="738.71 458.31 733.23 466.88 736.88 466.88 755.12 450.51 738.71 458.31"/><polygon class="cls-11" points="768.8 460.65 767.89 464.54 755.12 450.51 757.86 450.51 768.8 460.65"/><polygon class="cls-11" points="783.39 455.19 768.8 460.65 767.89 464.54 783.39 456.75 783.39 455.19"/><polygon class="cls-11" points="803.45 452.85 783.39 455.19 783.39 456.75 803.45 455.19 803.45 452.85"/><polygon class="cls-11" points="823.51 441.15 803.45 452.85 803.45 455.19 823.51 443.49 823.51 441.15"/><polygon class="cls-11" points="849.96 457.53 849.96 455.19 825.34 442.71 823.51 441.15 823.51 443.49 849.96 457.53"/><polygon class="cls-11" points="872.75 452.85 849.96 455.19 849.96 457.53 873.67 454.41 886.43 454.41 887.34 452.85 872.75 452.85"/><polygon class="cls-11" points="908.04 466 906.33 465.14 884.98 454.41 887.34 452.85 908.32 464.54 913.79 465.32 922.91 465.32 930.2 465.32 938.24 465.32 941.15 465.32 951.18 464.54 955.74 464.54 955.74 466.1 941.63 466.53 934.42 466.53 926.33 466.53 912.25 466.83 908.04 466"/><polygon class="cls-11" points="974.89 462.2 974.89 464.54 955.74 466.1 955.74 464.54 968.5 462.99 974.89 462.2"/><polygon class="cls-11" points="987.43 463.61 985.79 462.2 974.89 462.2 974.89 464.54 987.43 463.61"/><polygon class="cls-11" points="1024.13 453.63 987.65 461.43 985.83 462.2 987.65 463.76 1013.18 457.53 1024.13 455.19 1024.13 453.63"/><polygon class="cls-11" points="1046.1 454.08 1024.13 455.19 1024.13 453.63 1046.1 454.08"/><polygon class="cls-11" points="1044.19 439.59 1044.19 454.04 1046.01 454.41 1046.01 439.59 1048.7 439.59 1058.78 439.59 1058.78 437.25 1044.19 439.59"/><polygon class="cls-11" points="1071.15 437.52 1058.78 439.59 1058.78 437.25 1077.02 435.69 1071.15 437.52"/><polygon class="cls-14" points="840.63 594.81 794.67 603.34 764.33 603.17 758.16 591.41 725.94 594.09 749.67 594.47 758.47 604.84 775.68 605.59 789.41 606.13 826.04 599.05 840.63 594.81"/><polygon class="cls-14" points="729.83 666.04 717.46 648.28 738.58 626.97 770.57 620.86 806.77 617.66 755.96 634.44 735.69 649.14 729.83 666.04"/><polygon class="cls-14" points="767.89 630.5 755.12 647.01 749.65 676.64 729.59 665.72 729.59 645.76 758.77 630.63 767.89 630.5"/><polygon class="cls-14" points="767.89 630.63 748.74 676.64 755.12 647.01 767.89 630.63"/><polygon class="cls-14" points="793.54 622.23 764.5 638.3 767.88 630.51 793.54 622.23"/><polygon class="cls-14" points="459.67 502.75 424.1 558.89 424.1 548.76 430.49 530.82 459.67 502.75"/><polygon class="cls-14" points="840.84 505.09 878.23 522.25 878.23 539.4 859.08 522.25 813.48 505.09 840.84 505.09"/><polygon class="cls-14" points="1086.74 517.26 1060.12 500.55 1035.07 484.82 1046.01 484.82 1084.31 509.77 1086.74 517.26"/><path class="cls-19" d="M389.45,443.49c11,0,6.41,26.13,6.41,26.13v31.57Z"/><polygon class="cls-15" points="704.75 568.25 813.48 504.01 769.99 488.72 723.39 497.89 691.29 534.6 704.75 568.25"/><polygon class="cls-15" points="559.06 484.04 582.77 622.05 545.38 616.6 545.38 470.78 559.06 484.04"/><polygon class="cls-15" points="619.25 653.25 615.6 665.72 630.19 692.23 652.08 707.83 652.08 689.89 619.25 653.25"/><polygon class="cls-15" points="725.94 591.64 748.74 591.64 758.77 630.63 690.38 590.87 725.94 591.64"/><polygon class="cls-15" points="849.96 457.53 894.64 517.57 920.17 478.58 849.96 457.53"/><polygon class="cls-15" points="955.74 484.82 920.17 478.58 894.64 517.57 938.41 522.25 955.74 484.82"/><polygon class="cls-15" points="1028.69 473.12 987.65 463.76 974.89 499.63 1028.69 473.12"/><polygon class="cls-15" points="340.35 476.75 315.73 435.03 335.8 397.21 340.35 476.75"/><polygon class="cls-15" points="339.3 470 358.45 505.09 396.75 539.4 396.75 517.57 339.3 470"/><polygon class="cls-15" points="430.49 579.95 485.2 606.46 492.5 593.2 424.1 558.89 430.49 579.95"/><polygon class="cls-15" points="433.22 445.83 411.34 526.14 492.5 466.1 433.22 445.83"/><polygon class="cls-15" points="478.82 509.77 528.06 562.79 492.5 582.29 478.82 509.77"/><polygon class="cls-15" points="589.15 494.95 619.25 630.63 679.43 698.47 685.82 680.54 643.87 545.64 589.15 494.95"/><polygon class="cls-15" points="1035.07 509.77 1046.01 545.64 1077.02 555 1035.07 509.77"/><polygon class="cls-13" points="697.67 565.91 796.05 528.48 805.27 549.48 799.13 579.61 760.39 584.63 697.67 565.91"/><polygon class="cls-13" points="932.03 490.28 988.56 470 960.3 517.57 932.03 490.28"/><polygon class="cls-13" points="349.33 429.46 396.75 407.62 373.04 467.66 358.28 490.28 349.33 429.46"/><polygon class="cls-13" points="453.28 539.4 485.57 539.4 492.5 582.29 453.28 539.4"/><polygon class="cls-13" points="589.15 494.95 569.42 532.38 582.77 622.05 615.6 638.43 589.15 494.95"/><polygon class="cls-13" points="528.06 473.12 528.06 511.17 534.44 578.39 545.38 616.6 544.47 502.95 528.06 473.12"/><polygon class="cls-13" points="833.54 494.95 901.02 526.14 878.23 522.25 840.84 505.09 813.48 503.53 833.54 494.95"/><polygon class="cls-13" points="1046.01 484.82 1056.04 478.58 1084.31 509.77 1046.01 484.82"/><polygon class="cls-13" points="458.3 510.55 445.99 539.4 424.1 558.89 458.3 510.55"/><polygon class="cls-14" points="559.06 478.58 569.42 539.39 569.09 558.89 582.77 622.05 585.51 632.97 592.8 622.05 571.83 517.57 559.06 478.58"/><polygon class="cls-14" points="672.14 582.29 691.29 534.72 724.12 498.07 768.8 488.72 672.14 582.29"/><polygon class="cls-14" points="439.15 446.61 417.07 505.09 411.34 526.14 411.34 501.19 439.15 446.61"/><polygon class="cls-14" points="315.73 431.64 340.35 473.75 320.29 463.61 315.73 431.64"/><polygon class="cls-14" points="490.4 522.25 521.54 555.78 521.67 544.86 484.29 501.19 490.4 522.25"/><polygon class="cls-14" points="1017.61 478.58 974.89 499.63 1004.98 498.07 1017.61 478.58"/><polygon class="cls-14" points="661.2 617.38 679.43 660.01 685.82 680.54 701.32 676.64 685.82 649.35 679.43 622.05 669.4 591.64 669.4 606.46 679.43 641.85 661.2 617.38"/><polygon class="cls-15" points="425.01 641.55 414.07 658.7 432.31 665.72 457.84 653.25 425.01 641.55"/><polygon class="cls-15" points="411.34 670.4 414.07 658.7 432.31 665.72 435.96 688.33 411.34 688.33 411.34 670.4"/><polygon class="cls-14" points="471.52 680.54 456.71 653.25 432.31 665.72 435.8 688.33 471.52 680.54"/><polygon class="cls-13" points="457.84 653.25 414.07 658.7 432.31 665.72 457.84 653.25"/><path class="cls-17" d="M1025,600.42l-3.35-7.93-53.8-3.92L925,603.13l6.38,12.32,21.89,12.88,57.44-5.6,13.12-11.44c0-.15.07-.28.1-.42C1024.17,607.36,1024.54,603.88,1025,600.42Z"/><polygon class="cls-17" points="988.86 672 953.3 628.33 1010.75 620.54 988.86 672"/><path class="cls-14" d="M1012.57,628.33l-26.85,41.48a2.68,2.68,0,0,1,.28.3l37.51-41.78V599.48Z"/><path class="cls-15" d="M1006.19,620.54l-20.83,49a3.65,3.65,0,0,1,.36.31l26.85-41.48,10.94-28.85Z"/><polygon class="cls-15" points="928.72 603.17 925.03 605.72 925.03 611.18 925.03 623.65 940.53 633.01 953.3 646.27 988.86 672 953.3 628.33 928.72 603.17"/><path class="cls-20" d="M1025.12,599.82,931.41,610.4,982,623.66l42.91-22.53C1025,600.69,1025.06,600.25,1025.12,599.82Z"/><line class="cls-13" x1="987.95" y1="620.54" x2="1021.69" y2="602.6"/><path class="cls-15" d="M1024.93,601.15l-42.45,22.51L988.86,672l35.46-65.57C1024.49,604.66,1024.69,602.9,1024.93,601.15Z"/><polygon class="cls-17" points="1160 346.57 1165 369 1120 436 1111 416 1125 405 1132.59 387.15 1160 346.57"/><path class="cls-21" d="M1073.09,301.46a3.13,3.13,0,0,0-3.48-1.36,5.05,5.05,0,0,0-3.46,2.8,5.74,5.74,0,0,0-.1,4.42,1.33,1.33,0,0,0,.82.93,13,13,0,0,1,3.26-6.15,3.36,3.36,0,0,1,.9-.73c1.94-1,2.33.75,2.71,2,.29,1,.56,2,.88,3l.93,2.88.56,2.53,1.86,4.51,1.49,4.16,3.34,9L1085,336l3.35,8.48,4.09,9.39-1.49,2v3.07l.74,1.45.75.72,1.3.54H1104l6-.36.74-.54.56-.73.37-.72v-.9l-.56-2-1.11-1.44-1.3-1.08-2.05-.9-2.6-.55-2-.72-2.42-.36-3.35-2.71-5.2-5.77-3.16-7.58-1.86-4.52-2-5.59-1.49-4.15-1.86-4-2.42-5.78-1.11-2.35-.93-3.06-.93-2.35-.37-2.53v-1.08h-1.67l.23,1.69"/><polygon class="cls-22" points="1073.14 299.91 1073.14 303.88 1071.28 303.88 1072.21 305.5 1073.14 309.11 1071.28 309.11 1073.14 311.64 1071.28 316.88 1069.61 315.07 1069.61 318.32 1067.56 320.67 1065.52 318.5 1064.03 315.97 1064.03 313.45 1065.52 310.38 1068.12 306.59 1069.98 303.88 1073.14 299.91"/><polygon class="cls-22" points="1075.18 299.91 1069.23 299.91 1064.77 302.07 1059.2 305.5 1055.85 308.03 1052.13 311.64 1049.53 315.25 1048.23 319.22 1048.23 324.28 1050.83 322.65 1054.18 316.88 1055.48 318.5 1059.94 314.17 1060.5 312.18 1061.8 312.54 1062.17 310.74 1063.84 311.1 1069.61 305.32 1075.18 299.91"/><polygon class="cls-22" points="1074.81 299.91 1083.17 299.91 1089.12 300.63 1085.22 301.35 1090.61 304.42 1088.93 304.96 1095.38 310.09 1099.16 313.08 1104.17 317.78 1104.17 320.67 1104.17 323.19 1102.5 326.08 1099.71 329.15 1093.21 323.92 1089.49 320.85 1087.45 322.47 1086.52 315.07 1083.73 313.63 1083.92 311.1 1081.13 310.2 1080.38 305.87 1079.45 302.98 1074.81 299.91"/><polygon class="cls-22" points="1074.62 299.91 1082.24 292.69 1090.61 289.26 1098.79 287.45 1103.25 287.45 1107.52 289.26 1110.31 290.88 1106.03 292.33 1102.87 291.97 1100.64 293.77 1095.07 295.4 1090.61 296.66 1082.62 296.48 1074.62 299.91"/><polygon class="cls-22" points="1069.42 295.04 1063.66 292.87 1057.34 290.34 1050.28 290.34 1047.12 292.69 1046 295.04 1050.83 295.04 1050.83 297.74 1050.83 301.53 1055.29 298.46 1060.68 295.94 1065.33 298.46 1068.49 299.19 1073.69 299.19 1075.92 301.53 1069.42 295.04"/><polygon class="cls-22" points="1073.25 300.84 1076.38 296.11 1078.76 295.72 1078.36 293.41 1082.58 292.71 1083.33 290.57 1089.25 286.67 1090.89 284.2 1095.42 285.29 1099.39 284.27 1097.31 283.15 1095.35 281.64 1091.46 279.9 1088.41 279.67 1085.08 281.13 1082.37 283.96 1076.16 293.77 1073.25 300.84"/><polygon class="cls-22" points="1074.25 300.09 1067.93 290.7 1064.4 287.81 1066.44 287.81 1062.36 286.19 1060.5 286.19 1060.5 284.57 1062.54 282.58 1059.94 280.23 1058.08 280.23 1055.11 276.81 1053.81 275 1057.15 275 1059.94 275 1062.91 278.61 1067.75 283.84 1070.91 289.8 1072.21 291.61 1074.25 300.09"/><path class="cls-23" d="M1078.41,312a1.61,1.61,0,0,1,.23.43.22.22,0,0,1,0,.14.2.2,0,0,1-.08.1,2.89,2.89,0,0,1-1.39.71.46.46,0,0,1-.26,0c-.13,0-.31-.26-.25-.43s.39-.18.52-.23A3.6,3.6,0,0,0,1078.41,312Z"/><path class="cls-23" d="M1079.52,314.89a1.49,1.49,0,0,1,.24.43.22.22,0,0,1,0,.14.23.23,0,0,1-.07.1,3,3,0,0,1-1.39.71.62.62,0,0,1-.27,0,.42.42,0,0,1-.25-.44c0-.16.4-.17.53-.22A3.83,3.83,0,0,0,1079.52,314.89Z"/><path class="cls-23" d="M1080.64,317.42a1.32,1.32,0,0,1,.23.42.24.24,0,0,1,0,.14.23.23,0,0,1-.08.11,2.94,2.94,0,0,1-1.39.71.46.46,0,0,1-.26,0,.41.41,0,0,1-.25-.43c0-.17.39-.18.53-.23A3.62,3.62,0,0,0,1080.64,317.42Z"/><path class="cls-23" d="M1081.94,320.12a2.15,2.15,0,0,1,.28.49.29.29,0,0,1,0,.16.33.33,0,0,1-.09.11,3.72,3.72,0,0,1-1.69.8.58.58,0,0,1-.32,0,.47.47,0,0,1-.3-.49c.06-.19.48-.2.64-.25A4.63,4.63,0,0,0,1081.94,320.12Z"/><path class="cls-23" d="M1083.3,323.83a1.27,1.27,0,0,1,.24.42.29.29,0,0,1,0,.13.31.31,0,0,1-.11.08,4.12,4.12,0,0,1-1.74.45.85.85,0,0,1-.32,0c-.15-.06-.34-.28-.26-.43s.49-.1.66-.13A4.61,4.61,0,0,0,1083.3,323.83Z"/><path class="cls-23" d="M1084.21,326.36a1.49,1.49,0,0,1,.26.41.19.19,0,0,1,0,.13.2.2,0,0,1-.1.08,4.94,4.94,0,0,1-1.88.45,1,1,0,0,1-.34,0c-.17-.05-.37-.27-.29-.42s.53-.1.71-.13A5.56,5.56,0,0,0,1084.21,326.36Z"/><path class="cls-23" d="M1085.64,330.2a1.41,1.41,0,0,1,.25.4.15.15,0,0,1,0,.13.31.31,0,0,1-.11.08,4.82,4.82,0,0,1-1.83.43,1,1,0,0,1-.34,0c-.16-.05-.36-.26-.27-.41s.52-.1.69-.12A5.69,5.69,0,0,0,1085.64,330.2Z"/><path class="cls-23" d="M1087.38,334.54a1.93,1.93,0,0,1,.23.55.33.33,0,0,1,0,.17.25.25,0,0,1-.11.12,3.74,3.74,0,0,1-1.82.67.69.69,0,0,1-.32,0,.51.51,0,0,1-.25-.57c.08-.19.51-.16.68-.2A4.65,4.65,0,0,0,1087.38,334.54Z"/><path class="cls-23" d="M1089.69,339.58a2,2,0,0,1,.26.63.38.38,0,0,1,0,.21.25.25,0,0,1-.12.13,4.3,4.3,0,0,1-2.08.79.78.78,0,0,1-.37,0,.59.59,0,0,1-.29-.65c.1-.23.59-.19.79-.24A5.23,5.23,0,0,0,1089.69,339.58Z"/><path class="cls-23" d="M1092.72,345.27a2.3,2.3,0,0,1,.52.56.36.36,0,0,1,.06.2.43.43,0,0,1-.13.17,7,7,0,0,1-2.58,1.32,1.51,1.51,0,0,1-.52.06c-.25,0-.63-.31-.56-.57s.74-.34,1-.44A8.05,8.05,0,0,0,1092.72,345.27Z"/><path class="cls-23" d="M1096.36,348.83a3.16,3.16,0,0,1,.92.73.41.41,0,0,1,.13.29.54.54,0,0,1-.16.27,10.78,10.78,0,0,1-3.71,2.51,2.37,2.37,0,0,1-.77.2c-.41,0-1-.33-1-.73s1.06-.67,1.43-.86A12.55,12.55,0,0,0,1096.36,348.83Z"/><path class="cls-21" d="M1091.78,355.18c-.8.68-1.73,1.41-1.73,1.41l-1.49,2.52-2.23,2.53,1.12.36,3.16-.36h3.16l20.81-.54H1117l-1.3-1.45-.56-1.08-1.3-1.62-2.79-.55-1.11-1.26Z"/><path class="cls-21" d="M1051.47,346.76a3.19,3.19,0,0,0-3.53-1.37,5.1,5.1,0,0,0-3.51,2.83,5.86,5.86,0,0,0-.1,4.47,1.34,1.34,0,0,0,.83.94,13.23,13.23,0,0,1,3.31-6.22,3.44,3.44,0,0,1,.91-.74c2-1,2.37.76,2.75,2.06.3,1,.57,2,.9,3l.94,2.92.56,2.55,1.89,4.57,1.51,4.2,3.39,9.13,2.26,6.57,3.39,8.58,4.15,9.49-1.51,2v3.11l.76,1.46.75.73,1.32.54h10.37l6-.36.75-.55.57-.73.37-.73v-.91l-.56-2-1.13-1.46-1.32-1.1-2.07-.91-2.64-.55-2.08-.73-2.45-.36-3.39-2.74-5.28-5.84-3.2-7.67-1.89-4.57-2.07-5.65-1.51-4.2-1.88-4-2.45-5.84-1.13-2.38-1-3.1-.94-2.37-.38-2.56V345.2h-1.69l.23,1.71"/><polygon class="cls-22" points="1051.52 345.19 1051.52 349.21 1049.63 349.21 1050.58 350.86 1051.52 354.51 1049.63 354.51 1051.52 357.06 1049.63 362.36 1047.94 360.53 1047.94 363.82 1045.86 366.19 1043.79 364 1042.28 361.44 1042.28 358.89 1043.79 355.78 1046.43 351.95 1048.31 349.21 1051.52 345.19"/><polygon class="cls-22" points="1053.59 345.19 1047.56 345.19 1043.04 347.39 1037.38 350.86 1033.99 353.41 1030.22 357.06 1027.58 360.71 1026.26 364.73 1026.26 369.84 1028.9 368.2 1032.29 362.36 1033.61 364 1038.14 359.62 1038.7 357.61 1040.02 357.98 1040.4 356.15 1042.09 356.51 1047.94 350.67 1053.59 345.19"/><polygon class="cls-22" points="1053.21 345.19 1061.7 345.19 1067.73 345.93 1063.77 346.66 1069.24 349.76 1067.54 350.31 1074.08 355.49 1077.91 358.52 1082.99 363.27 1082.99 366.19 1082.99 368.75 1081.3 371.67 1078.47 374.77 1071.87 369.48 1068.11 366.37 1066.03 368.02 1065.09 360.53 1062.26 359.07 1062.45 356.51 1059.62 355.6 1058.87 351.22 1057.93 348.3 1053.21 345.19"/><polygon class="cls-22" points="1053.03 345.19 1060.75 337.89 1069.24 334.42 1077.53 332.6 1082.05 332.6 1086.39 334.42 1089.21 336.07 1084.88 337.53 1081.67 337.16 1079.41 338.99 1073.76 340.63 1069.24 341.91 1061.13 341.73 1053.03 345.19"/><polygon class="cls-22" points="1047.75 340.27 1041.91 338.07 1035.5 335.52 1028.34 335.52 1025.13 337.89 1024 340.27 1028.9 340.27 1028.9 343 1028.9 346.84 1033.42 343.73 1038.89 341.18 1043.6 343.73 1046.81 344.46 1052.08 344.46 1054.35 346.84 1047.75 340.27"/><polygon class="cls-22" points="1051.63 346.13 1054.81 341.35 1057.23 340.96 1056.82 338.62 1061.09 337.92 1061.86 335.75 1067.86 331.81 1069.53 329.31 1074.12 330.41 1078.14 329.38 1076.03 328.24 1074.04 326.72 1070.1 324.96 1067 324.72 1063.63 326.2 1060.88 329.06 1054.59 338.98 1051.63 346.13"/><polygon class="cls-22" points="1052.65 345.38 1046.24 335.88 1042.66 332.96 1044.73 332.96 1040.59 331.32 1038.7 331.32 1038.7 329.68 1040.78 327.67 1038.14 325.3 1036.25 325.3 1033.24 321.83 1031.92 320 1035.31 320 1038.14 320 1041.15 323.65 1046.05 328.95 1049.26 334.97 1050.58 336.8 1052.65 345.38"/><path class="cls-23" d="M1056.87,357.43a1.76,1.76,0,0,1,.23.43.22.22,0,0,1,0,.14.23.23,0,0,1-.08.11,3.17,3.17,0,0,1-1.41.72.61.61,0,0,1-.27,0,.42.42,0,0,1-.25-.44c.05-.17.4-.18.53-.23A3.61,3.61,0,0,0,1056.87,357.43Z"/><path class="cls-23" d="M1058,360.35a1.47,1.47,0,0,1,.23.43.23.23,0,0,1,0,.14.23.23,0,0,1-.08.11,3.17,3.17,0,0,1-1.41.72.46.46,0,0,1-.26,0,.41.41,0,0,1-.26-.44c0-.16.4-.18.54-.23A3.67,3.67,0,0,0,1058,360.35Z"/><path class="cls-23" d="M1059.13,362.9a1.42,1.42,0,0,1,.23.44.22.22,0,0,1,0,.14.16.16,0,0,1-.08.1,3,3,0,0,1-1.41.72.57.57,0,0,1-.26,0,.43.43,0,0,1-.26-.44c.05-.17.4-.18.54-.23A3.77,3.77,0,0,0,1059.13,362.9Z"/><path class="cls-23" d="M1060.44,365.64a1.86,1.86,0,0,1,.29.49.3.3,0,0,1,0,.16.38.38,0,0,1-.09.12,3.92,3.92,0,0,1-1.71.81.74.74,0,0,1-.33,0c-.15-.05-.37-.3-.3-.5s.48-.2.64-.26A4.34,4.34,0,0,0,1060.44,365.64Z"/><path class="cls-23" d="M1061.83,369.4a1.3,1.3,0,0,1,.24.41.19.19,0,0,1,0,.13s-.06.07-.1.09a4.42,4.42,0,0,1-1.77.46,1.12,1.12,0,0,1-.32,0c-.16,0-.35-.28-.27-.43s.5-.11.67-.13A5.41,5.41,0,0,0,1061.83,369.4Z"/><path class="cls-23" d="M1062.75,372a1.54,1.54,0,0,1,.26.42.2.2,0,0,1,0,.13.23.23,0,0,1-.11.08,4.91,4.91,0,0,1-1.91.45,1.31,1.31,0,0,1-.34,0c-.17-.06-.38-.28-.29-.43s.54-.11.72-.13A5.79,5.79,0,0,0,1062.75,372Z"/><path class="cls-23" d="M1064.2,375.83a1.26,1.26,0,0,1,.25.41.15.15,0,0,1,0,.13.24.24,0,0,1-.11.08,4.79,4.79,0,0,1-1.86.43.79.79,0,0,1-.34,0c-.16-.05-.36-.27-.28-.42s.53-.1.71-.12A5.52,5.52,0,0,0,1064.2,375.83Z"/><path class="cls-23" d="M1066,380.22a1.62,1.62,0,0,1,.23.56.25.25,0,0,1,0,.17.26.26,0,0,1-.11.12,3.92,3.92,0,0,1-1.85.69.73.73,0,0,1-.33,0,.51.51,0,0,1-.25-.57c.08-.2.52-.17.69-.21A4.51,4.51,0,0,0,1066,380.22Z"/><path class="cls-23" d="M1068.31,385.32a2.26,2.26,0,0,1,.26.64.38.38,0,0,1,0,.21.25.25,0,0,1-.12.13,4.35,4.35,0,0,1-2.11.8.7.7,0,0,1-.38,0,.59.59,0,0,1-.29-.66c.1-.22.6-.19.8-.24A5.21,5.21,0,0,0,1068.31,385.32Z"/><path class="cls-23" d="M1071.37,391.08a1.91,1.91,0,0,1,.53.57.25.25,0,0,1,.06.2.3.3,0,0,1-.13.17,7,7,0,0,1-2.62,1.33,1.49,1.49,0,0,1-.51.06c-.27,0-.65-.31-.57-.57s.74-.35,1-.45A8.19,8.19,0,0,0,1071.37,391.08Z"/><path class="cls-23" d="M1075.07,394.68a3.07,3.07,0,0,1,.93.74.38.38,0,0,1,.14.29.5.5,0,0,1-.17.27,11,11,0,0,1-3.76,2.54,2.14,2.14,0,0,1-.78.2c-.41,0-1.06-.33-1-.74s1.08-.67,1.45-.87A12.47,12.47,0,0,0,1075.07,394.68Z"/><path class="cls-21" d="M1070.43,401.11c-.82.68-1.76,1.41-1.76,1.41l-1.51,2.56-2.26,2.55,1.13.37,3.21-.37h3.2l21.11-.54H1096l-1.32-1.46-.56-1.1-1.32-1.64-2.83-.55-1.13-1.28Z"/><polygon class="cls-24" points="141.76 105.52 137.96 106.61 133.7 109.59 132 112.57 132 116.3 133.7 120.02 137.11 123 141.37 123 170.33 123 175.44 120.77 177.87 117.19 178 112.57 176.3 108.84 172.04 105.86 172.04 102.14 170.33 99.16 166.07 96.18 161.12 95 156.94 95.92 153.3 99.91 150.14 99.58 147.78 99.58 144.64 100.26 142.55 102.55 141.76 105.52"/><polygon class="cls-24" points="497.7 123.27 494.31 124.06 490.52 126.25 489 128.44 489 131.18 490.52 133.91 493.56 136.1 497.35 136.1 523.17 136.1 527.72 134.46 529.88 131.84 530 128.44 528.48 125.71 524.68 123.52 524.68 120.78 523.17 118.59 519.37 116.4 514.96 115.53 511.23 116.21 507.98 119.14 505.17 118.9 503.07 118.9 500.27 119.4 498.4 121.08 497.7 123.27"/><polygon class="cls-24" points="905.07 89.02 901.93 89.95 898.41 92.51 897 95.06 897 98.25 898.41 101.45 901.22 104 904.74 104 928.67 104 932.89 102.08 934.89 99.02 935 95.06 933.59 91.87 930.07 89.31 930.07 86.12 928.67 83.57 925.15 81.01 921.06 80 917.6 80.78 914.59 84.2 911.98 83.92 910.04 83.92 907.44 84.51 905.72 86.47 905.07 89.02"/><polygon class="cls-24" points="1176.28 70.44 1170.33 71.93 1163.67 76.02 1161 80.11 1161 85.22 1163.67 90.34 1169 94.42 1175.67 94.42 1221 94.42 1229 91.36 1232.79 86.45 1233 80.11 1230.33 75 1223.67 70.91 1223.67 65.8 1221 61.71 1214.33 57.62 1206.58 56 1200.03 57.26 1194.33 62.73 1189.39 62.28 1185.7 62.28 1180.79 63.22 1177.51 66.36 1176.28 70.44"/><polygon class="cls-24" points="299.89 64.31 295.26 65.58 290.07 69.07 288 72.55 288 76.91 290.07 81.27 294.22 84.75 299.41 84.75 334.67 84.75 340.89 82.14 343.84 77.96 344 72.55 341.93 68.19 336.74 64.71 336.74 60.35 334.67 56.87 329.48 53.38 323.45 52 318.36 53.07 313.93 57.74 310.08 57.35 307.21 57.35 303.39 58.16 300.84 60.83 299.89 64.31"/><rect class="cls-25" x="368.1" y="197.86" width="185.8" height="120.83"/><rect class="cls-26" x="411.96" y="261.43" width="100.84" height="55.26"/><rect class="cls-27" x="346" y="324.78" width="230" height="5.32"/><rect class="cls-28" x="351.83" y="322.36" width="218.63" height="2.42"/><rect class="cls-29" x="351.83" y="317.28" width="218.63" height="5.08"/><rect class="cls-28" x="346" y="330.1" width="230" height="2.9"/><rect class="cls-30" x="365.24" y="214.98" width="30.61" height="94.56" rx="12" ry="12"/><rect class="cls-26" x="365.24" y="308.57" width="30.61" height="2.9" rx="1.3" ry="1.3"/><rect class="cls-30" x="361.74" y="310.99" width="37.02" height="6.29" rx="2.81" ry="2.81"/><rect class="cls-26" x="360.58" y="316.55" width="38.77" height="2.18" rx="0.97" ry="0.97"/><rect class="cls-30" x="526.74" y="214.98" width="30.61" height="94.56" rx="12" ry="12"/><rect class="cls-26" x="526.74" y="308.57" width="30.61" height="2.9" rx="1.3" ry="1.3"/><rect class="cls-30" x="523.24" y="310.99" width="37.02" height="6.29" rx="2.81" ry="2.81"/><rect class="cls-26" x="522.07" y="316.55" width="38.77" height="2.18" rx="0.97" ry="0.97"/><rect class="cls-31" x="370.49" y="214.98" width="2.33" height="93.59" rx="1.07" ry="1.07"/><rect class="cls-31" x="379.52" y="214.98" width="2.33" height="93.59" rx="1.07" ry="1.07"/><rect class="cls-31" x="388.56" y="214.98" width="2.33" height="93.59" rx="1.07" ry="1.07"/><rect class="cls-31" x="531.69" y="214.98" width="2.33" height="93.59" rx="1.07" ry="1.07"/><rect class="cls-31" x="540.73" y="214.98" width="2.33" height="93.59" rx="1.07" ry="1.07"/><rect class="cls-31" x="550.35" y="214.98" width="2.33" height="93.59" rx="1.07" ry="1.07"/><rect class="cls-26" x="364.95" y="207.48" width="30.61" height="5.8" rx="2.6" ry="2.6"/><rect class="cls-28" x="368.15" y="212.56" width="25.07" height="1.45" rx="0.65" ry="0.65"/><rect class="cls-26" x="526.61" y="207.64" width="30.61" height="5.8" rx="2.6" ry="2.6"/><rect class="cls-28" x="528.78" y="213.05" width="25.07" height="1.45" rx="0.65" ry="0.65"/><rect class="cls-28" x="361.74" y="204.82" width="198.52" height="2.66"/><rect class="cls-29" x="361.74" y="197.81" width="198.52" height="7.01"/><rect class="cls-28" x="365.24" y="195.15" width="188.61" height="2.66"/><rect class="cls-32" x="365.24" y="171.89" width="188.61" height="23.26"/><polygon class="cls-33" points="461 103.99 351.87 183.54 346 177.55 461 95 576 176.88 570.47 183.54 461 103.99"/><polygon class="cls-34" points="461 103.99 367.85 171.89 553.85 171.89 461 103.99"/><path class="cls-35" d="M412,262.39c51.27-94,100.84-.51,100.84-.51Z"/><rect class="cls-30" x="446.27" y="214.65" width="30.61" height="94.56" rx="12" ry="12"/><rect class="cls-26" x="446.27" y="308.24" width="30.61" height="2.9" rx="1.3" ry="1.3"/><rect class="cls-30" x="442.77" y="310.66" width="37.02" height="6.29" rx="2.81" ry="2.81"/><rect class="cls-31" x="451.23" y="214.65" width="2.33" height="93.59" rx="1.07" ry="1.07"/><rect class="cls-31" x="460.26" y="214.65" width="2.33" height="93.59" rx="1.07" ry="1.07"/><rect class="cls-31" x="469.88" y="214.65" width="2.33" height="93.59" rx="1.07" ry="1.07"/><rect class="cls-26" x="445.1" y="207.64" width="30.75" height="5.8" rx="2.6" ry="2.6"/><rect class="cls-28" x="448.31" y="212.71" width="25.07" height="1.45" rx="0.65" ry="0.65"/><rect class="cls-26" x="442.3" y="316.55" width="38.77" height="2.18" rx="0.97" ry="0.97"/><text class="cls-36" transform="translate(399.31 189.45) scale(1.04 1)"><tspan xml:space="preserve">History  </tspan><tspan class="cls-37" x="60.6" y="0">M</tspan><tspan x="75.24" y="0">useum</tspan></text><polygon class="cls-38" points="461.73 141.28 460.45 136.61 458.74 136.61 457.45 137.03 455.74 137.88 453.48 139.27 451.45 140.85 449.74 142.98 448.46 145.52 448.46 146.8 448.46 148.07 448.46 150.19 448.88 152.32 449.31 154.44 450.6 157.84 451.45 160.38 445.46 165.48 455.74 162.5 455.74 149.77 456.17 148.5 457.02 147.22 458.31 146.37 460.45 145.95 461.96 145.79 463.87 145.95 464.73 146.37 466.01 147.22 466.87 148.07 467.3 148.92 467.73 150.19 467.73 162.08 477.58 165.9 472.01 160.38 473.72 155.71 475.01 151.47 475.01 149.77 475.01 147.65 475.01 145.52 474.15 142.98 472.21 140.87 469.64 139.07 466.87 137.46 463.44 136.61 462.59 136.61 461.73 141.28"/><polygon class="cls-38" points="461.73 146.37 460.45 150.62 456.17 150.62 459.16 153.16 458.31 157.41 462.16 154.86 465.59 157.41 464.3 153.16 467.3 150.62 463.02 150.62 461.73 146.37"/><rect class="cls-39" x="584.22" y="297.96" width="253.91" height="100.42"/><rect class="cls-40" x="691.56" y="348.04" width="41.88" height="50.08"/><polygon class="cls-41" points="712.28 192.28 712.28 211.71 712.93 211.71 712.94 192.28 712.28 192.28"/><path class="cls-42" d="M712.9,198.86a1.41,1.41,0,0,1,.5-.82c1.1-1,2.65-.7,4-.27s2.74,1,4,.51l-.76-6.28a4.16,4.16,0,0,1-3,.88,17.68,17.68,0,0,0-3.17,0,2,2,0,0,0-1.78,1.36"/><rect class="cls-43" x="679.88" y="300.6" width="62.6" height="97.58"/><rect class="cls-44" x="679.88" y="298.23" width="62.6" height="2.52"/><rect class="cls-44" x="633.81" y="298.23" width="43.86" height="2.64"/><rect class="cls-44" x="584" y="298.23" width="43.86" height="2.64"/><rect class="cls-44" x="745.34" y="298.23" width="43.86" height="2.64"/><rect class="cls-44" x="794.27" y="298.23" width="43.86" height="2.64"/><polygon class="cls-39" points="677.67 300.86 677.35 398.18 679.88 398.38 679.88 298.23 677.67 298.23 677.67 300.86"/><polygon class="cls-39" points="742.48 297.7 745.34 298.23 745.34 398.18 742.48 398.38 742.48 297.7"/><rect class="cls-43" x="587.75" y="308.77" width="33.94" height="27.94"/><rect class="cls-45" x="585.98" y="336.71" width="38.35" height="3.69"/><rect class="cls-44" x="587.75" y="334.78" width="33.94" height="1.93"/><rect class="cls-46" x="588.63" y="309.82" width="32.18" height="23.72"/><rect class="cls-43" x="636.68" y="309.3" width="33.94" height="27.94"/><rect class="cls-45" x="634.92" y="337.23" width="38.35" height="3.69"/><rect class="cls-44" x="636.68" y="335.31" width="33.94" height="1.93"/><rect class="cls-47" x="637.56" y="310.35" width="32.18" height="23.72"/><rect class="cls-43" x="587.75" y="358.85" width="33.94" height="27.94"/><rect class="cls-45" x="585.98" y="386.78" width="38.35" height="3.69"/><rect class="cls-44" x="587.75" y="384.86" width="33.94" height="1.93"/><rect class="cls-48" x="588.63" y="359.9" width="32.18" height="23.72"/><rect class="cls-43" x="636.68" y="358.85" width="33.94" height="27.94"/><rect class="cls-45" x="634.92" y="386.78" width="38.35" height="3.69"/><rect class="cls-44" x="636.68" y="384.86" width="33.94" height="1.93"/><rect class="cls-49" x="637.56" y="359.9" width="32.18" height="23.72"/><rect class="cls-43" x="798.46" y="310.35" width="33.94" height="27.94"/><rect class="cls-45" x="796.7" y="338.29" width="38.35" height="3.69"/><rect class="cls-44" x="798.46" y="336.36" width="33.94" height="1.93"/><rect class="cls-50" x="799.34" y="311.4" width="32.18" height="23.72"/><rect class="cls-43" x="754.38" y="310.35" width="33.94" height="27.94"/><rect class="cls-45" x="752.61" y="338.29" width="38.35" height="3.69"/><rect class="cls-44" x="754.38" y="336.36" width="33.94" height="1.93"/><rect class="cls-51" x="755.26" y="311.4" width="32.18" height="23.72"/><rect class="cls-43" x="756.14" y="356.74" width="33.94" height="27.94"/><rect class="cls-45" x="754.38" y="384.68" width="38.35" height="3.69"/><rect class="cls-44" x="756.14" y="382.75" width="33.94" height="1.93"/><rect class="cls-52" x="757.02" y="357.79" width="32.18" height="23.72"/><rect class="cls-43" x="798.9" y="356.74" width="33.94" height="27.94"/><rect class="cls-44" x="798.9" y="382.75" width="33.94" height="1.93"/><rect class="cls-53" x="799.78" y="357.79" width="32.18" height="23.72"/><polygon class="cls-45" points="584.22 398.38 584.22 407.34 838.13 408.9 838.13 398.38 584.22 398.38"/><polygon class="cls-44" points="584.22 407.34 584.22 422.63 838.13 422.63 838.13 408.92 584.22 407.34"/><polygon class="cls-43" points="697.56 343.82 697.56 398.18 729.37 398.18 729.37 343.87 697.56 343.82"/><polygon class="cls-43" points="713.38 370.97 713.38 343.85 729.25 344.09 729.25 398.38 713.47 398.18 713.38 370.97"/><rect class="cls-54" x="699.72" y="350.94" width="11.46" height="18.98"/><rect class="cls-55" x="715.59" y="350.94" width="11.46" height="18.98"/><rect class="cls-43" x="696.19" y="309.82" width="33.94" height="27.94"/><rect class="cls-45" x="694.43" y="337.76" width="38.35" height="3.69"/><rect class="cls-44" x="696.19" y="335.83" width="33.94" height="1.93"/><rect class="cls-56" x="697.07" y="310.88" width="32.18" height="23.72"/><rect class="cls-44" x="680.1" y="403.39" width="62.6" height="19.5"/><rect class="cls-39" x="679.88" y="407.34" width="62.6" height="5.27"/><rect class="cls-39" x="679.88" y="417.88" width="62.6" height="7.12"/><rect class="cls-40" x="675.03" y="395.22" width="8.38" height="29.52"/><rect class="cls-40" x="738.51" y="395.22" width="8.38" height="29.52"/><rect class="cls-57" x="585.76" y="340.13" width="38.35" height="1.05"/><rect class="cls-57" x="634.69" y="341.19" width="38.35" height="1.05"/><rect class="cls-57" x="693.77" y="341.19" width="38.35" height="1.05"/><rect class="cls-57" x="752.84" y="341.71" width="38.35" height="1.05"/><rect class="cls-57" x="796.92" y="341.71" width="38.35" height="1.05"/><rect class="cls-57" x="797.36" y="388.1" width="38.35" height="1.05"/><rect class="cls-57" x="754.6" y="388.63" width="38.35" height="1.05"/><rect class="cls-45" x="797.36" y="384.41" width="38.35" height="3.69"/><rect class="cls-57" x="634.25" y="390.21" width="38.35" height="1.05"/><rect class="cls-57" x="585.76" y="390.74" width="38.35" height="1.05"/><rect class="cls-57" x="699.5" y="369.65" width="11.46" height="1.58"/><rect class="cls-57" x="715.37" y="369.65" width="11.46" height="1.58"/><rect class="cls-57" x="691.56" y="397.06" width="41.88" height="1.05"/><rect class="cls-58" x="675.25" y="389.16" width="8.38" height="5.8" rx="2" ry="2"/><rect class="cls-58" x="738.73" y="389.16" width="8.38" height="5.8" rx="2" ry="2"/><rect class="cls-57" x="675.25" y="393.9" width="8.38" height="1.58"/><rect class="cls-57" x="738.73" y="393.9" width="8.38" height="1.58"/><rect class="cls-59" x="838.36" y="297.96" width="2.64" height="124.93"/><rect class="cls-57" x="584" y="422.89" width="90.81" height="1.58"/><rect class="cls-57" x="584" y="408.13" width="90.81" height="1.58"/><rect class="cls-57" x="747.1" y="422.89" width="93.01" height="1.58"/><rect class="cls-57" x="747.1" y="407.08" width="90.81" height="1.58"/><rect class="cls-57" x="683.63" y="423.42" width="54.66" height="1.05"/><rect class="cls-57" x="691.56" y="348.04" width="0.88" height="49.55"/><rect class="cls-57" x="733.44" y="348.04" width="0.88" height="50.08"/><path class="cls-39" d="M710.67,375a2.65,2.65,0,0,0-.76,2.32c.18.84,1.1,1.43,1.7.92a1.78,1.78,0,0,0,.49-.87,2.57,2.57,0,0,0-.12-1.93,1,1,0,0,0-1.47-.36"/><path class="cls-39" d="M715.08,375a2.66,2.66,0,0,0-.77,2.32c.19.84,1.11,1.43,1.71.92a1.78,1.78,0,0,0,.49-.87,2.61,2.61,0,0,0-.12-1.93,1,1,0,0,0-1.47-.36"/><polygon class="cls-39" points="584 298.49 713.16 211.51 840.12 297.96 584 298.49"/><ellipse class="cls-44" cx="713.38" cy="234.44" rx="11.68" ry="12.91"/><path class="cls-44" d="M712.44,235.81a1.5,1.5,0,0,0,0-3,1.5,1.5,0,0,0,0,3Z"/><path class="cls-44" d="M712.75,235.68a1.5,1.5,0,0,0,0-3,1.5,1.5,0,0,0,0,3Z"/><path class="cls-44" d="M713.05,236.16a1.5,1.5,0,0,0,0-3,1.5,1.5,0,0,0,0,3Z"/><path class="cls-44" d="M713.05,236.16a41.58,41.58,0,0,0,5.35-.26,1.54,1.54,0,0,0,1.5-1.5,1.51,1.51,0,0,0-1.5-1.5,41.58,41.58,0,0,1-5.35.26c-1.93,0-1.93,3,0,3Z"/><ellipse class="cls-60" cx="713.6" cy="234.44" rx="10.14" ry="11.33"/><ellipse class="cls-61" cx="713.82" cy="234.71" rx="1.54" ry="1.58"/><path d="M715.41,232.42l-.15-7c0-1.93-3-1.93-3,0l.15,7c0,1.93,3,1.93,3,0Z"/><path d="M716.34,236.21a41,41,0,0,1,5.52-.57c1.93-.07,1.94-3.07,0-3a46.25,46.25,0,0,0-6.32.68c-1.9.33-1.09,3.23.8,2.89Z"/><rect class="cls-62" x="629.4" y="267.92" width="164.87" height="29.52"/><rect class="cls-45" x="629.4" y="296.38" width="164.87" height="2.11"/><text></text><rect class="cls-45" x="629.4" y="269.5" width="1.76" height="28.46"/><rect class="cls-45" x="792.51" y="268.97" width="1.76" height="28.46"/><polygon class="cls-59" points="713.16 211.51 715.81 208.88 840.12 294.27 840.12 297.96 713.16 211.51"/><text class="cls-63" transform="translate(645.98 289.43) scale(0.84 1)">Language School</text><rect class="cls-64" x="817" y="151.72" width="234" height="93.24"/><rect class="cls-65" x="847.19" y="244.96" width="188.71" height="41.41"/><rect class="cls-65" x="919.98" y="116" width="115.92" height="35.72"/><rect class="cls-66" x="843.96" y="286.36" width="195.18" height="4.74"/><rect class="cls-67" x="843.96" y="291.1" width="195.18" height="1.9"/><rect class="cls-68" x="871.73" y="244.96" width="1.35" height="41.41"/><rect class="cls-68" x="896.8" y="244.96" width="1.35" height="41.41"/><rect class="cls-68" x="919.98" y="244.96" width="1.35" height="41.41"/><rect class="cls-68" x="943.44" y="244.96" width="1.35" height="41.41"/><rect class="cls-68" x="968.24" y="244.96" width="1.35" height="41.41"/><rect class="cls-68" x="992.23" y="244.96" width="1.35" height="41.41"/><rect class="cls-68" x="1013.8" y="244.96" width="1.35" height="41.41"/><rect class="cls-69" x="827.24" y="155.19" width="42.59" height="58.47"/><rect class="cls-69" x="884.94" y="155.19" width="42.59" height="58.47"/><rect class="cls-69" x="941.55" y="155.19" width="42.59" height="58.47"/><rect class="cls-69" x="998.16" y="155.19" width="42.59" height="58.47"/><rect class="cls-66" x="825.63" y="213.67" width="45.83" height="2.84"/><rect class="cls-66" x="883.32" y="213.67" width="45.83" height="2.84"/><rect class="cls-66" x="939.93" y="213.67" width="45.83" height="2.84"/><rect class="cls-66" x="996.54" y="213.67" width="45.83" height="2.84"/><rect class="cls-67" x="825.63" y="216.51" width="46.1" height="1.58"/><rect class="cls-67" x="883.32" y="216.19" width="46.1" height="1.58"/><rect class="cls-67" x="939.93" y="216.19" width="46.1" height="1.58"/><rect class="cls-67" x="996.54" y="216.51" width="46.1" height="1.58"/><rect class="cls-70" x="829.4" y="157.09" width="38.28" height="54.68"/><rect class="cls-70" x="887.09" y="157.09" width="38.28" height="54.68"/><rect class="cls-70" x="943.71" y="157.09" width="38.28" height="54.68"/><rect class="cls-70" x="1000.59" y="157.09" width="38.28" height="54.68"/><rect class="cls-68" x="919.98" y="116" width="115.92" height="2.84"/><rect class="cls-68" x="919.98" y="148.87" width="115.92" height="2.84"/><rect class="cls-68" x="919.98" y="116" width="2.97" height="35.72"/><rect class="cls-68" x="1032.94" y="116" width="2.97" height="35.72"/><text class="cls-71" transform="translate(944.74 138.48) scale(0.86 1)">Art <tspan class="cls-72" x="29.65" y="0">G</tspan><tspan x="42.25" y="0">allery</tspan></text></g></g></svg>