<?xml version="1.0" encoding="utf-8"?>
<!-- Generator: Adobe Illustrator 22.0.1, SVG Export Plug-In . SVG Version: 6.00 Build 0)  -->
<svg version="1.1" id="Layer_1" xmlns="http://www.w3.org/2000/svg" xmlns:xlink="http://www.w3.org/1999/xlink" x="0px" y="0px"
	 viewBox="0 0 1366 768" style="enable-background:new 0 0 1366 768;" xml:space="preserve">

<polygon class="st0" points="449.8,273.6 486.3,362.5 576.2,187.2 "/>
<polygon class="st0" points="584.9,180.7 509.8,320.7 564.8,324.7 "/>
<polygon class="st0" points="590.1,183.5 565.5,329 620.3,311.8 636.1,179.7 "/>
<polygon class="st0" points="642.5,178.9 626.3,311.4 634.4,314.6 704.9,235.6 "/>
<polygon class="st0" points="645.2,177.2 750.4,123.5 760.9,209 711.5,236.2 "/>
<path class="st1" d="M1167.9-13.7"/>
<polygon class="st2" points="515.8,325.2 482.9,363.1 482.9,520.1 618.6,626.3 744.3,529.5 753.1,343.5 642.1,317.5 571.1,333.5 "/>
<polygon class="st0" points="710,240.2 648.7,316.4 756.2,337 761,214 "/>
<polygon class="st3" points="694.5,146.3 751.3,124.9 654.8,43.9 "/>
<path class="st4" d="M594.5,544.6"/>
<polygon class="st5" points="617.6,439.6 591,496 645,496 "/>
<path class="st6" d="M542.8,397.2h24.1c6.5,0,11.8,7,11.8,15.7l0,0c0,8.7-5.3,15.7-11.8,15.7h-24.1c-6.5,0-11.8-7-11.8-15.7l0,0
	C530.9,404.3,536.2,397.2,542.8,397.2z"/>
<path class="st6" d="M664.3,397.2h24.1c6.5,0,11.8,7,11.8,15.7l0,0c0,8.7-5.3,15.7-11.8,15.7h-24.1c-6.5,0-11.8-7-11.8-15.7l0,0
	C652.5,404.3,657.8,397.2,664.3,397.2z"/>
<path class="st7" d="M612.2,322.1"/>
<g id="Ears" class="bodypart">
	<path class="st8" d="M456.9,408.8L456.9,408.8c-7,0-12.7,5.7-12.7,12.7V436c0,7,5.7,12.7,12.7,12.7l0,0c7,0,12.7-5.7,12.7-12.7
		v-14.5C469.6,414.5,463.9,408.8,456.9,408.8z"/>
	<path class="st8" d="M762.6,432.5l-1,19.3c-0.4,7.2,6,13.3,14.1,13.3h1c7.8,0,14.1-5.7,14.1-12.7v-19.3c0-7-6.3-12.7-14.1-12.7l0,0
		C769.2,420.4,763,425.7,762.6,432.5z"/>
</g>
<g id="Eyebrow" class="bodypart">
	<rect x="646.1" y="369.5" class="st3" width="77.9" height="7"/>
	<rect x="515.2" y="369.5" class="st3" width="77.9" height="7"/>
</g>
<polyline id="Chin" class="st8" points="590.9,593.2 645.1,593.2 618,619.3 "/>
<g id="Eyes" class="bodypart">
	<path class="st9" d="M543.4,399.9h21.5c5.8,0,10.5,6.4,10.5,14.3l0,0c0,7.9-4.7,14.3-10.5,14.3h-21.5c-5.8,0-10.5-6.4-10.5-14.3
		l0,0C532.8,406.4,537.5,399.9,543.4,399.9z"/>
	<path class="st10" d="M665.6,399.9h21.5c5.8,0,10.5,6.4,10.5,14.3l0,0c0,7.9-4.7,14.3-10.5,14.3h-21.5c-5.8,0-10.5-6.4-10.5-14.3
		l0,0C655,406.4,659.7,399.9,665.6,399.9z"/>
</g>
<polygon id="Nose" class="bodypart" points="617.7,453.3 599.8,490.5 636.2,490.5 "/>
<g id="Mouth" class="bodypart">
	<polygon id="Lip" class="st11" points="565.5,524.9 659,524.9 631.1,573.9 	"/>
	<polygon class="st2" points="586,533.1 650,533.1 630.9,565.6 	"/>
	<polygon id="Tougue" class="st0" points="605.3,542.8 624,533.9 647.3,537.6 631.5,555.3 	"/>
</g>
</svg>
