<?xml version="1.0" encoding="utf-8"?>
<!-- Generator: Adobe Illustrator 21.0.0, SVG Export Plug-In . SVG Version: 6.00 Build 0)  -->
<svg version="1.1" id="Layer_1" xmlns="http://www.w3.org/2000/svg" xmlns:xlink="http://www.w3.org/1999/xlink" x="0px" y="0px"
	 viewBox="0 0 1366 768" style="enable-background:new 0 0 1366 768;" xml:space="preserve">
<style type="text/css">
	.st0{fill:#B9001D;stroke:#FFFFFF;stroke-miterlimit:10;}
</style>
<path class="st0" d="M482.3,196.3l56,193c2.8,9.5,14.1,11,18.7,2.4l6.9-12.9c1.5-2.7,1.9-6,1.2-9.1l-18.5-80.4l-13.1-56.8
	c-0.8-3.6-0.1-7.5,2-10.4l51.6-72c3.2-4.5,3.1-11-0.4-15.3l-3.7-4.6c-4.2-5.2-11.4-5.1-15.5,0.2l-33.8,43.9
	c-5.3,6.9-15.2,4.6-17.7-4.1v0c-2.5-8.7-12.5-11-17.8-4l-14,18.7C482,188.2,481.2,192.4,482.3,196.3z"/>
<path class="st0" d="M547.7,359.3l-0.6-14.3c1.2-1.7,31.7-54.5,33.3-55.6l32.4-34.8c24.6-17.8,41.2-28.8,76.3-42.7l27.3-11.9h17.3
	c7,0,13.4,4.7,16.4,11.9l7.6,18.8c1.1,2.7,1.6,5.5,1.6,8.5v23.6c0,7.3-3.4,14-9,17.6l-33.6,22.1c-0.8,0.5-1.6,0.9-2.4,1.3
	l-50.8,22.9c-2,0.9-3.8,2.2-5.4,3.8L636.2,353c-1.9,1.9-4.1,3.4-6.5,4.3l-58.4,21.4C559.6,382.9,547.7,373.1,547.7,359.3z"/>
<path class="st0" d="M485.2,483.4l-3.4-34.6c-1.4-13.9,1.4-27.9,7.8-39.8l4.9-9.2c23.1-43,63.6-70,107.9-71.9l63.1-2.8l48.4-12.4
	c23.8-6.1,48.6-3,70.6,8.9l52.5,28.4c20.9,11.3,36.5,32.2,43,57.4l15.4,60c9.1,35.6,10.2,73.3,3.2,109.6v0
	c-5.6,29.1-27.5,50.4-53.7,52.4l-60.1,4.6l-90.2,4.8c-27,1.4-53.7-6-77.1-21.4l-88.6-58.3C504.5,543.2,488.3,515.1,485.2,483.4z"/>
<path class="st0" d="M508.5,155.7c-5.4-6.7-16.9-4.6-25.8,4.6c-8.9,9.2-11.8,22.1-6.4,28.7c5.4,6.7,16.9,4.6,25.8-4.6
	C511,175.2,513.9,162.4,508.5,155.7z"/>
<ellipse class="st0" cx="747" cy="242.2" rx="18.4" ry="38.2"/>
</svg>
