<?xml version="1.0" encoding="utf-8"?>
<!-- Generator: Adobe Illustrator 22.0.1, SVG Export Plug-In . SVG Version: 6.00 Build 0)  -->
<svg version="1.1" id="Layer_1" xmlns="http://www.w3.org/2000/svg" xmlns:xlink="http://www.w3.org/1999/xlink" x="0px" y="0px"
	 viewBox="0 0 1277.2 924" style="enable-background:new 0 0 1277.2 924;" xml:space="preserve">
<style type="text/css">
	.st0{fill:#9E714F;}
	.st1{fill:#79BC94;}
	.st2{fill:#B2704B;}
	.st3{fill:#42A56A;}
	.st4{fill:#7F5233;}
	.st5{fill:#895D3F;}
	.st6{fill:#91603F;}
	.st7{fill:#9B6C51;}
	.st8{fill:#A57E5E;}
	.st9{fill:#AF8366;}
	.st10{fill:none;}
	.st11{fill:#A77C59;}
	.st12{fill:#FAE93D;stroke:#231F20;stroke-width:0.93;}
	.st13{fill:#F0E146;stroke:#221F20;stroke-width:0.93;}
	.st14{fill:#9CDCE2;}
	.st15{fill:#E1F3F4;}
	.st16{fill:#80B7B7;}
	.st17{fill:#202020;}
</style>
<title>homepage - island</title>
<polygon class="st0" points="714.8,891.6 687.1,873.1 673.3,845.3 649.3,825.1 638.3,807.4 606,801.5 571.9,772.9 514.7,768.7 
	457.5,736.7 457.5,718.2 441,692.1 404.1,671.9 373.6,644.2 373.6,630.7 353.4,592 335.9,558.3 317.4,501.1 317.4,471.6 317.4,454 
	1250.4,438 1239.3,481.7 1211.7,511.2 1225.5,544 1204.3,584.4 1192.3,626.5 1192.3,664.4 1178.5,697.2 1143.5,682 1106.6,633.2 
	1064.2,626.5 1064.2,664.4 1043.9,682 1015.3,686.3 1001.5,707.3 973.8,707.3 938.8,707.3 920.4,726.6 920.4,750.2 908.4,779.7 
	878,779.7 836.5,783.9 806,794.8 778.4,832.7 769.2,867.2 746.1,891.6 736.9,916 "/>
<polygon class="st1" points="437.7,332.1 396,332.1 372.4,332.1 345.9,353.5 328.9,376.5 310.9,388.7 301.4,407 301.4,430 
	305.6,435.8 308.5,439.8 327.9,466.7 352.5,478.9 369.5,498.8 400.8,498.8 437.7,508 463.2,508 494.4,529.3 512.4,529.3 537,529.3 
	559.7,555.3 585.3,564.5 595.7,589 626,589 643,619.6 659.1,619.6 676.1,619.6 704.5,619.6 719.7,630.3 742.4,630.3 754.7,611.9 
	784.9,593.6 805.8,584.4 825.6,563 839.8,581.3 856.8,570.6 878.6,569.1 900.4,553.8 929.7,572.2 955.3,567.6 969.5,567.6 
	993.1,582.9 1005.4,582.9 1026.2,582.9 1045.2,582.9 1062.2,578.3 1080.2,579.8 1101,573.7 1120.8,569.1 1144.5,567.6 1144.5,549.2 
	1158.7,549.2 1186.1,544.6 1204.1,540.1 1215.5,518.6 1223.3,507.1 1269.4,439.1 1269.4,417.8 1269.4,387.2 1254.3,371.9 
	1227.8,345.9 1201.3,332.1 1181.4,319.9 1153,295.4 1128.4,272.5 1098.1,254.2 1065,254.2 1037.6,241.9 1007.3,220.5 973.2,220.5 
	937.3,205.2 903.2,205.2 874.8,205.2 838.9,193 800.1,193 767,193 741.4,217.5 713,211.3 679,211.3 656.3,226.6 626,226.6 
	597.6,229.7 562.6,241.9 543.7,223.6 515.3,241.9 481.2,260.3 458.5,297 "/>
<polygon class="st1" points="1226.8,513.5 1230.6,502.4 1240.1,489.5 1250.2,473.2 1262,457 1265.7,444.7 1242.9,469.1 
	1234.4,479.3 1226.8,483.9 1222.1,500.6 1215.5,519.1 "/>
<polygon class="st2" points="308.4,438 308.4,456 346.6,476 352.4,479 "/>
<polygon class="st2" points="352.4,485 346.4,476 352.4,479 369.4,499 "/>
<polygon class="st2" points="400.4,499 369.4,499 377.4,503 "/>
<polygon class="st2" points="437.4,508 400.4,499 398.4,503 433.4,511 437.4,513 462.8,511.3 462.4,508 "/>
<polygon class="st2" points="493.4,533 462.4,511 462.4,508 494.4,529 "/>
<polygon class="st2" points="537.4,529 493.4,533 494.4,529 "/>
<polygon class="st2" points="380,503 398.4,503 400.4,499 "/>
<polygon class="st2" points="528,529.9 556.4,558 559.4,555 537.4,529 "/>
<polygon class="st2" points="585.4,565 559.4,555 556.4,558 "/>
<polygon class="st2" points="594.4,590 583.4,566 585.4,565 595.4,589 "/>
<polygon class="st2" points="626.4,589 623.7,589.3 595.4,592 594.4,590 595.4,589 "/>
<polygon class="st2" points="640.4,624 621.8,590 626.4,589 643.4,620 651.3,619.6 649.4,622 "/>
<polygon class="st2" points="703.4,623 649.4,622 651.4,620 704.4,620 "/>
<polygon class="st2" points="718.4,633 703.4,623 704.4,620 719.4,630 722.4,633 "/>
<polygon class="st2" points="742.4,632 722.4,633 719.4,630 742.4,630 "/>
<polygon class="st2" points="756.4,614 754.4,612 742.4,630 742.4,632 "/>
<polygon class="st2" points="780.4,601 756.4,614 754.4,612 780.4,596.3 787.5,592.4 805.4,584 799,588.2 795.4,592 "/>
<polygon class="st2" points="825.4,572 805.4,584 825.4,563 839.4,581 "/>
<polygon class="st2" points="839.4,585 860.4,573 856.4,571 839.4,581 "/>
<polygon class="st2" points="880.4,574 860.4,574 856.4,571 878.4,569 "/>
<polygon class="st2" points="900.4,559 880.4,574 878.4,569 900.4,554 "/>
<polygon class="st2" points="927.4,578 900.4,558 900.4,554 929.4,572 "/>
<polygon class="st2" points="969.4,574 966.4,574 956.4,574 927.4,578 929.4,572 955.4,569 969.4,569 993.4,584 "/>
<polygon class="st2" points="1046.4,588 993.4,584 1045.4,584 1059.2,579.1 1057.4,585 "/>
<polygon class="st2" points="1081.4,588 1057.4,585 1059.4,579 1066.3,578 1081.4,579 "/>
<polygon class="st2" points="1106.4,576 1081.4,588 1081.4,579 1108.1,572 "/>
<polygon class="st2" points="1122.4,576 1106.4,576 1108.4,572 1120.4,569 1144.4,569 "/>
<polygon class="st2" points="1153.4,557 1144.4,569 1144.4,549 1158.4,549 1151.4,554 "/>
<polygon class="st2" points="1161.4,554 1205.4,545 1212.6,526.4 1215.4,519 1204.4,540 1158.4,549 "/>
<polygon class="st3" points="302.1,406.4 314.7,443.7 300,429.3 "/>
<polygon class="st3" points="308.5,439.8 327.4,456.3 336.7,464.4 352.4,479 364.2,492.8 369.4,499 369.4,495.1 349.4,472 "/>
<polygon class="st3" points="400.4,496 369.4,495 369.4,499 400.4,499 437.4,508 462.4,508 462.4,506 438.4,506 "/>
<polygon class="st3" points="494.4,529 495.4,526 462.4,506 462.4,508 "/>
<polygon class="st3" points="537.4,529 495.4,526 494.4,529 "/>
<polygon class="st3" points="539.4,526 559.4,551 585.4,562 585.4,565 559.4,555 537.4,529 "/>
<polygon class="st3" points="598.4,584 589.4,564 585.4,562 585.4,565 595.4,589 626.4,589 613.4,586 605.4,587 "/>
<polygon class="st3" points="643.4,620 626.4,589 645.4,617 704.4,617 715.4,624 719.4,630 708.9,623 694.2,619.9 "/>
<polygon class="st3" points="739.4,626 719.4,630 739.4,630 742.4,630 754.4,612 805.4,584 801.3,584 798.4,584 758.4,606 
	749.4,614 "/>
<polygon class="st3" points="807.4,573 801.4,584 805.4,584 825.4,563 "/>
<polygon class="st3" points="840.4,576 839.4,581 825.4,563 828.4,563 "/>
<polygon class="st3" points="856.4,569 840.4,576 839.4,581 856.4,571 "/>
<polygon class="st3" points="878.4,566 856.4,569 856.4,571 878.4,569 "/>
<polygon class="st3" points="900.4,551 878.4,566 878.4,569 900.4,554 "/>
<polygon class="st3" points="929.4,572 929.4,569 902.4,553 900.4,551 900.4,554 "/>
<polygon class="st3" points="954.4,566 929.4,569 929.4,572 955.4,568 969.4,568 970.4,566 "/>
<polygon class="st3" points="993.1,582.9 991.2,581.8 967.8,568 970.4,566 993.4,581 999.4,582 1009.4,582 1017.4,582 1026.2,582 
	1029.4,582 1040.4,581 1045.4,581 1045.4,583 1029.9,583.5 1022,583.5 1013.2,583.5 997.7,583.9 "/>
<polygon class="st3" points="1066.4,578 1066.4,581 1045.4,583 1045.4,581 1059.4,579 "/>
<polygon class="st3" points="1080.2,579.8 1078.4,578 1066.4,578 1066.4,581 "/>
<polygon class="st3" points="1120.4,567 1080.4,577 1078.4,578 1080.4,580 1108.4,572 1120.4,569 "/>
<polygon class="st3" points="1144.5,567.6 1120.4,569 1120.4,567 "/>
<polygon class="st3" points="1142.4,549 1142.4,567.5 1144.4,568 1144.4,549 1147.4,549 1158.4,549 1158.4,546 "/>
<polygon class="st3" points="1172,546.3 1158.4,549 1158.4,546 1178.4,544 "/>
<polygon class="st3" points="1204.4,540 1173.8,546 1178.4,544 1193.4,540 "/>
<polygon class="st3" points="1212.4,519 1202.6,540 1215.4,519 "/>
<path class="st4" d="M501.4,893"/>
<polygon class="st5" points="919.2,748.1 868.8,759 835.5,758.8 828.7,743.7 793.4,747.1 819.4,747.6 829.1,760.9 848,761.9 
	863,762.6 903.2,753.5 "/>
<polygon class="st5" points="797.7,839.4 784.1,816.6 807.3,789.3 842.4,781.5 882,777.4 826.3,798.9 804.1,817.7 "/>
<polygon class="st5" points="839.4,793.8 825.4,815 819.4,853 797.4,839 797.4,813.4 829.4,794 "/>
<polygon class="st5" points="839.4,794 818.4,853 825.4,815 "/>
<polygon class="st5" points="867.5,783.2 835.7,803.8 839.4,793.8 "/>
<polygon class="st5" points="501.4,630 462.4,702 462.4,689 469.4,666 "/>
<polygon class="st5" points="919.4,633 960.4,655 960.4,677 939.4,655 889.4,633 "/>
<polygon class="st5" points="1189.1,648.6 1159.9,627.2 1132.4,607 1144.4,607 1186.4,639 "/>
<path class="st6" d="M424.4,554c12,0,7,33.5,7,33.5V628L424.4,554z"/>
<polygon class="st7" points="770.2,714 889.4,631.6 841.7,612 790.6,623.8 755.4,670.8 "/>
<polygon class="st7" points="610.4,606 636.4,783 595.4,776 595.4,589 "/>
<polygon class="st7" points="676.4,823 672.4,839 688.4,873 712.4,893 712.4,870 "/>
<polygon class="st7" points="793.4,744 818.4,744 829.4,794 754.4,743 "/>
<polygon class="st7" points="929.4,572 978.4,649 1006.4,599 "/>
<polygon class="st7" points="1045.4,607 1006.4,599 978.4,649 1026.4,655 "/>
<polygon class="st7" points="1125.4,592 1080.4,580 1066.4,626 "/>
<polygon class="st7" points="357.4,571 330.4,517.5 352.4,469 "/>
<polygon class="st7" points="369.4,588 390.4,633 432.4,677 432.4,649 "/>
<polygon class="st7" points="469.4,729 529.4,763 537.4,746 462.4,702 "/>
<polygon class="st7" points="472.4,557 448.4,660 537.4,583 "/>
<polygon class="st7" points="522.4,639 576.4,707 537.4,732 "/>
<polygon class="st7" points="643.4,620 676.4,794 742.4,881 749.4,858 703.4,685 "/>
<polygon class="st7" points="1132.4,639 1144.4,685 1178.4,697 "/>
<polygon class="st8" points="762.4,711 870.3,663 880.4,689.9 873.7,728.6 831.2,735 "/>
<polygon class="st8" points="1019.4,614 1081.4,588 1050.4,649 "/>
<polygon class="st8" points="380.4,536 432.4,508 406.4,585 390.2,614 "/>
<polygon class="st8" points="494.4,677 529.8,677 537.4,732 "/>
<polygon class="st8" points="643.4,620 621.8,668 636.4,783 672.4,804 "/>
<polygon class="st8" points="576.4,592 576.4,640.8 583.4,727 595.4,776 594.4,630.3 "/>
<polygon class="st8" points="911.4,620 985.4,660 960.4,655 919.4,633 889.4,631 "/>
<polygon class="st8" points="1144.4,607 1155.4,599 1186.4,639 "/>
<polygon class="st8" points="499.9,640 486.4,677 462.4,702 "/>
<polygon class="st5" points="610.4,599 621.8,677 621.4,702 636.4,783 639.4,797 647.4,783 624.4,649 "/>
<polygon class="st5" points="734.4,732 755.4,671 791.4,624 840.4,612 "/>
<polygon class="st5" points="478.9,558 454.7,633 448.4,660 448.4,628 "/>
<polygon class="st5" points="330.4,517 357.4,571 335.4,558 "/>
<polygon class="st5" points="535.1,655 569.3,698 569.4,684 528.4,628 "/>
<polygon class="st5" points="1113.3,599 1066.4,626 1099.4,624 "/>
<polygon class="st5" points="722.4,777 742.4,831.7 749.4,858 766.4,853 749.4,818 742.4,783 731.4,744 731.4,763 742.4,808.4 "/>
<polygon class="st7" points="463.4,808 451.4,830 471.4,839 499.4,823 "/>
<polygon class="st7" points="448.4,845 451.4,830 471.4,839 475.4,868 448.4,868 "/>
<polygon class="st5" points="514.4,858 498.2,823 471.4,839 475.2,868 "/>
<polygon class="st8" points="499.4,823 451.4,830 471.4,839 "/>
<polygon class="st8" points="585.4,886 595.4,873 610.4,876 616.4,881 616.4,893 610.4,897 595.4,897 "/>
<polygon class="st5" points="589.4,908 585.4,885 595.4,897 "/>
<polygon class="st7" points="601.4,916 589.4,908 595.4,897 610.4,897 "/>
<polygon class="st5" points="616.4,904 601.4,916 610.4,897 616.4,893 "/>
<polygon class="st5" points="585.7,885.5 589.1,881 590.9,878.6 595.2,873.1 610.3,875.5 607.3,875.6 604.3,875.8 601.3,874.9 
	598.3,875 596.3,875.1 594.3,876.1 589.6,883 "/>
<polygon class="st7" points="604.4,876 604.4,881 612.4,888 616.4,893 616.4,881 610.4,876 "/>
<path class="st0" d="M1129.1,832.2l-3.7-10.2l-59-5l-47,18.7l7,15.8l24,16.5l63-7.2l14.4-14.7c0-0.2,0.1-0.4,0.1-0.5
	C1128.1,841.1,1128.5,836.6,1129.1,832.2z"/>
<polygon class="st0" points="1089.4,924 1050.4,868 1113.4,858 "/>
<path class="st5" d="M1115.4,868l-29.4,53.2c0.1,0.1,0.2,0.2,0.3,0.4l41.1-53.6v-37L1115.4,868z"/>
<path class="st7" d="M1108.4,858l-22.8,62.8c0.1,0.1,0.3,0.3,0.4,0.4l29.4-53.2l12-37L1108.4,858z"/>
<polygon class="st7" points="1023.5,835.7 1019.4,839 1019.4,846 1019.4,862 1036.4,874 1050.4,891 1089.4,924 1050.4,868 "/>
<path class="st9" d="M1129.2,831.4L1026.4,845l55.5,17l47.1-28.9C1129,832.5,1129.1,832,1129.2,831.4z"/>
<line class="st10" x1="1088.4" y1="858" x2="1125.4" y2="835"/>
<path class="st7" d="M1129,833.1l-46.6,28.9l7,62l38.9-84.1C1128.5,837.6,1128.7,835.4,1129,833.1z"/>
<polygon class="st11" points="1269.7,439.7 1277.2,465 1224.2,544 1211.8,521.8 1228.8,508.4 1237.4,487.6 "/>
<path class="st12" d="M473.3,415.7c2.6,7.9,6.8,15.1,12.4,21.1c2.8,3,5.8,5.9,9,8.5c3.3,2.6,6.7,5,10.3,7.1
	c3.3,7.9,7.5,15.4,12.6,22.4c11.3,3.1,22.8,5,34.5,5.7c2.6,2.5,5.4,5,8.2,7.2l4.3,3.5l4.6,3.3c10.6-0.6,21.2-2,31.6-4.3
	c7.7,4,15.5,7.5,23.6,10.4l-0.4-8.9c10.5,3.5,21.2,6,32.1,7.7c-11.1,6.2-22.8,11.3-34.8,15.4c1.2-2.7,2.3-5.2,3.4-7.8
	c-8.3-2.5-16.5-5.6-24.5-9.2c-9.6,2.4-19.4,3.9-29.1,5c-8.7-4.8-16.9-10.3-24.7-16.3c-11.2-0.3-22.3-1.6-33.2-4.1l-2.8-3.2l-2.7-3.4
	c-0.9-1.1-1.7-2.3-2.6-3.4c-0.9-1.1-1.6-2.3-2.5-3.4c-3.1-4.5-5.9-9.3-8.4-14.3c-6.7-3.7-12.8-8.4-18.2-13.7
	c-5.8-5.8-10.5-12.4-14-19.8C465.7,419.3,469.5,417.3,473.3,415.7z"/>
<path class="st13" d="M863.2,510.1c17.6-1,35-4.6,51.7-10.4c8.3,2.3,16.7,3.8,25.3,4.7c4.8-3.3,9.3-6.8,13.7-10.6
	c4.3-3.7,8.3-7.7,12.1-11.8c3.5-0.4,7-1,10.6-1.7c1.7-0.4,3.5-0.8,5.3-1.2l2.7-0.7l2.7-0.8c5.8-8.6,10.5-17.8,14.3-27.5
	c7.4-3.9,14.5-8.5,21.1-13.7l-7.8-4.2c8.3-7,15.5-15,21.5-23.8l0.2,4.6c0.1,1.6,0,3.1,0,4.6c0,1.6,0.1,3.2-0.1,4.7l-0.3,4.8
	c-0.1,0.8-0.1,1.6-0.2,2.4l-0.3,2.4l-0.6,4.8c-0.3,1.6-0.6,3.2-0.9,4.8c-0.3,1.7-0.6,3.3-0.9,4.8c-1.6-2.3-3.2-4.7-4.9-6.9
	c-6.4,5.8-13.3,10.9-20.7,15.4c-3.3,9.2-7.5,17.9-12.7,26.3c-8.9,3.9-18.1,7-27.7,9.1c-7.2,8.3-15.3,15.9-24.1,22.5
	c-11.1,0-22.2-1-33.1-3.1c-7,3-14.2,5.4-21.5,7.6c-7.5,2.1-15,3.9-22.7,5.1C864.9,518.3,864,514.2,863.2,510.1z"/>
<path class="st13" d="M962.6,295.9c-0.3-0.7-0.8-1.1-1.3-1.4c-0.1-0.1-0.2-0.1-0.4-0.2l-0.4-0.1l-1-0.4c-0.8-0.2-1.6-0.5-2.6-0.9
	c-0.2,0-0.5-0.2-0.8-0.2l-0.9-0.3l-1.8-0.6l-3.6-1.3l-3.7-1.1c-2.4-0.8-4.8-1.5-7.3-2.2c-0.9-2.8-1.9-5.4-2.9-8.1
	c-1-2.7-2.1-5.5-3.2-8.2c-3.5-0.1-7-0.1-10.5-0.2c-3.4-0.1-6.9,0.1-10.4,0.2c-1.1-2.1-2.3-4.2-3.4-6.3l-3.6-6.3
	c-6.4,0.7-12.8,1.6-19,2.7c-1.5-2.3-3.1-4.6-4.7-6.9c-1.6-2.3-3.2-4.6-5-6.8l-2.4,8.6l-3.4-3.9l-3.4-3.8c-2.3-2.6-4.7-5-7.1-7.5
	c7.1-2.4,14.4-4.6,21.9-6.3l-3.9,6.9c1.8,2,3.6,4.1,5.3,6.2s3.4,4.2,5.1,6.2c2.9-0.6,5.8-1.2,8.7-1.8c3-0.5,5.9-1.1,8.9-1.5
	c1.9,2.3,3.8,4.7,5.6,7c1.8,2.3,3.6,4.8,5.3,7.1c6.6-0.7,13.4-1.4,20.2-1.8c3.6,6,6.8,12.2,9.8,18.4c4.4,0.6,8.9,1.3,13.2,2.1
	c2.4,0.3,4.7,0.9,6.8,1.7c2.6,1,5,2.7,6.7,4.8c-1.7,1.3-3.5,2.4-5.3,3.5C966.4,294.3,964.6,295.1,962.6,295.9z"/>
<path class="st14" d="M240.3,139.2c0,0,8.2-18.9,27.7-27.4L430.8,68c0,0,44.8-0.2,54.3,3.7c9.5,3.9-41.1,26.2-41.1,26.2
	S265.8,147.2,240.3,139.2z"/>
<path class="st15" d="M250.7,124.1l25.6-3.5c0,0,3.7,2.8,1.9,5.6l-32,3.4L250.7,124.1z"/>
<ellipse transform="matrix(3.232245e-03 -1 1 3.232245e-03 174.3503 415.3742)" class="st15" cx="295.5" cy="120.2" rx="3.2" ry="4.2"/>
<ellipse transform="matrix(3.232245e-03 -1 1 3.232245e-03 192.8082 426.7482)" class="st15" cx="310.5" cy="116.7" rx="3.2" ry="4.2"/>
<path class="st16" d="M383.2,110l-38.4,10.7l62.6,44.2c0,0,8,4.5,15.1,3.4L383.2,110z"/>
<path class="st16" d="M372.5,86.4l-38.4,10.7l12.1-56.4c0,0,2.5-6.5,8.9-9L372.5,86.4z"/>
<ellipse transform="matrix(3.232245e-03 -1 1 3.232245e-03 314.6288 501.6304)" class="st15" cx="408.9" cy="93" rx="3.2" ry="4.2"/>
<ellipse transform="matrix(3.232245e-03 -1 1 3.232245e-03 295.5154 490.4787)" class="st15" cx="393.8" cy="97" rx="3.2" ry="4.2"/>
<path class="st17" d="M64,179.9c0.9-0.5,0.3-0.4,0.4-0.6c1.1-0.6,0.6-0.1,1-0.2c0.5-0.4,1-0.7,1.6-1c0.1,0,0.2,0,0.1,0.1
	c0.7-0.5,2.2-0.9,3.1-1.4c0,0,0.1,0,0.1,0c-0.2-0.1-0.3-0.2-0.3-0.3c0.5-0.1,0.8-0.4,1-0.3c-0.2,0-0.3,0.1-0.4,0.2
	c0.2-0.1,0.3-0.1,0.5-0.2c0.5,0.1-0.6,0.2-0.6,0.4c0.9-0.4,1.8-0.7,2.7-0.9c0.2,0.2-1.7,0.4-0.7,0.4c-0.4,0.1-0.8,0.1-1.1,0.2
	c0.9,0.1-0.7,0.2,0.2,0.3c1.5-0.3,1.6-0.5,3.1-0.7c0.3-0.2-0.2-0.1,0.2-0.3c2.1-0.5,1.8,0.3,3.3-0.2c0.5-0.3,1.1-0.5,1.7-0.4
	l-0.4,0.3c1.5-0.1,0.8-0.4,2.4-0.4c-0.3,0.1-1.2,0.2-0.9,0.2c1,0.1,0.7-0.2,1.5-0.2l0.2,0.2c1.6-0.1,3.3-0.3,5.1-0.4
	c-0.1,0.1-0.4,0.1,0,0.2c2.3-0.1,4.6-0.2,6.9,0l0.8-0.2c0.2,0,0.4,0.1,0.1,0.1c0.8,0.1,0-0.1,0.4-0.2c0.4-0.1,0.6,0.1,0.3,0.2
	c1.9-0.2,3.8-0.3,5.8-0.1l-0.3,0.1c1.2,0.1,1.4-0.4,2.5-0.2l-0.2,0c1.3,0.1,2.7,0.1,4,0.1c1.1,0,2.3,0.1,3.4,0.4
	c0.2-0.1,0.8,0.1,1.2,0.3c0.4,0.3,0.7,0.6,0.9,0.5c0.2,0.3,0.3,0.7,0.3,1c0,0.5,0,1,0,1.4c0,0.5,0.2,0.7,0.2,1.3l-0.2,0l0.1,0.8
	l-0.3,0.4l0,0.6c0-0.2,0.2-0.5,0.2-0.4c0,0.7-0.2,1.5-0.6,2.2c-0.1,0.7-0.1,1.4-0.2,2.1c-0.1-0.1,0-0.4,0-0.7c0,1.1-0.3,0.2-0.3,1.2
	c0.1-0.1,0.1,0.1,0.1,0.1c-0.3,0.5-0.6,1.5-1,2.3l-0.1-0.2c-0.4,0.7-0.8,1.4-1.2,2c-0.2,0.3-0.5,0.7-0.8,1l-0.5,0.4
	c-0.2,0.1-0.3,0.3-0.5,0.4c0.5-0.3,0.6-0.1,0.2,0.3l-0.3,0c-0.2,0.3,0.5-0.2,0,0.3c-0.6,0.3-0.5,0-0.2-0.2c-0.2,0.2-0.5,0.3-0.7,0.4
	c-0.1,0,0.1-0.1,0.1-0.2c-0.2,0.3-1.4,0.4-1.8,0.6l-0.1,0c-0.4,0.1-0.8,0.2-1.2,0.2c-0.3,0.1-0.7,0.1-1,0.1c-0.3,0-0.6,0-0.9,0
	l-0.5,0l-0.5-0.1c-0.1,0.2-0.6,0-1.1-0.1c-1-0.5-1.7-1.4-2.1-2.3c-0.4-0.7-0.2-0.2-0.5-0.5c0.1,0,0.1-0.3,0-0.6c0-0.2,0-0.4,0.1-0.1
	c-0.1-0.5-0.1-1.1,0-1.6c0.1-0.6,0.3-1.3,0.6-1.9c-0.2,0.2-0.3,0.4-0.3,0.2c0.1-0.3,0.4-0.7,0.5-0.6l0,0.1c0.5-1.1,1.2-2,2.2-2.8
	c0.9-0.7,1.7-1.5,2.4-2.4l-0.1,0.1c0.4-0.5,0.8-1,1.2-1.4c0.7-0.6-0.3,0.4,0.3,0.1c0.6-0.7,1.2-1.3,1.9-1.8c0.6-0.5,1.2-1,1.8-1.5
	c0.4-0.2,0.8-0.4,1.2-0.7c0.4-0.3,0.9-0.7,1.4-1c0.5-0.4,1-0.8,1.5-1.1c0.4-0.3,0.9-0.6,1.4-0.8l-0.2,0c0.3-0.3,0.5-0.3,0.8-0.4
	c-0.1,0-0.5,0.2-0.3,0c3.2-2.3,7.2-4,11-5.6c1.4-0.6,0.5-0.8,2.4-1.4l-0.4,0.4c0.7-0.4,1.4-0.7,2.1-0.9c0.7-0.3,1.5-0.6,2.2-0.8
	l2.2-0.7l1.1-0.4c0.4-0.1,0.7-0.2,1.1-0.4c-0.2,0.1-0.1,0.2-0.4,0.2c0.8-0.1,1.6-0.4,2.2-0.7c0.5-0.1,0.1,0.1,0.4,0.1
	c0.6-0.1,1.5-0.6,1.9-0.5c0.1,0-0.2,0.1-0.3,0.1c0.4-0.2,1.9-0.4,1.5-0.5c1.1-0.2,2.1-0.5,3-0.6c0.4-0.1,0.8-0.2,1.2-0.3
	c0.4,0,0.8-0.1,0.9-0.2c0,0.3,2-0.1,2.7-0.3c-0.2,0.1,0.6,0,0.4,0.2c0.8-0.1,1.6-0.2,1.4-0.3c0.7,0.1,1.5,0,2.2-0.2
	c0.6-0.1,1.2-0.1,1.7,0c2.4-0.3,4.7-0.4,6.9-0.5c-0.1,0.3-2.5,0-2.4,0.3c1.8-0.2,3.6-0.3,5.4-0.3c0.5,0-0.3,0.1-0.5,0.2
	c2.1-0.1,4.1,0.1,6-0.1c0,0-0.2,0.1-0.4,0.1c0.4,0,0.9,0.1,0.8-0.1l-0.4,0c-0.6-0.2,1.5-0.4,1.5-0.5c-0.6,0.4,1.9,0.1,0.9,0.6
	c0.2,0,0.6-0.1,0.5-0.2c0.4,0,0.5,0.1,0.1,0.2c1.3-0.1,0.9-0.2,2.1-0.2c0,0.1-0.2,0.1-0.4,0.2c0.7-0.2,1.5-0.2,2.2-0.2
	c-0.1,0,0.1,0.1-0.2,0.1c0.9,0,1.6-0.1,2.4-0.2c0.8-0.1,1.7-0.1,2.5-0.1c-0.6,0.3,0.7,0.1,0.8,0.3l1-0.1l-0.4-0.1
	c0.9-0.1,1.7-0.3,2.5-0.2l-0.7,0.1c0.6,0,1.1-0.1,1.7-0.2l-1,0c0.9-0.2-0.1-0.3,1.1-0.3c0.5,0,0.9,0,1.4,0l0,0
	c0.5-0.1,1-0.2,1.6-0.3c0.2,0-0.1,0.3,0,0.3c0.4-0.3,2.1-0.3,2.6-0.7c-0.2,0.1-0.2,0.2-0.1,0.2l0.3-0.2c0.4,0,0.5,0,0.4,0.1
	c1.2-0.2-0.5-0.2,1-0.4c-0.1,0-0.2,0.1-0.3,0.1c1.5-0.2,2.8-0.8,4.2-1c0.5,0.1-1.1,0.4-0.6,0.4c1-0.3,1.9-0.6,2.9-1.1
	c0.5-0.2,0.9-0.4,1.4-0.6s0.9-0.4,1.3-0.6l-0.3,0.1c0.1-0.4,1.4-0.4,2.2-1c-0.2,0.1-0.2,0.3-0.1,0.2c1.4-0.7,2.7-1.5,3.9-2.4
	l-0.1,0.2c0.7-0.3,1.7-1,2.4-1.5c0.1-0.2,0.5-0.5,0.2-0.4c2.4-1.1,3.6-3,5.6-4.1c-0.2,0.2-0.4,0.4-0.3,0.3l1.4-1.2
	c-0.2,0-0.3,0.1-0.6,0.3c0.2-0.3,0.5-0.6,0.8-0.9c-0.6,0.6,0.2,0.2,0.5,0c-0.1,0,0-0.1-0.1-0.1c1-0.4-0.1-0.3,1.1-1l0,0.1
	c0.3-0.4,0.7-0.7,1.1-1c0.3,0-0.4,0.4-0.3,0.5c0.6-0.5,0.9-1.1,1.6-1.4c-0.2,0.2-0.6,0.5-0.8,0.7c0.4-0.2,0.9-0.4,1.2-0.7l0,0
	l1.1-0.7l-0.3,0.2c0.5-0.9,1.5-1.2,2.4-2.1c-0.9,0.9-0.1,0.2,0,0.4c0.3-0.1,0.8-0.4,0.7-0.2c0.4-0.4,0.9-0.4,1.5-1
	c0.1,0,0.6-0.3,0.5-0.1c0.7-0.4-0.2,0-0.2-0.1c0.9-0.8,2.6-1.1,4.1-2c0.9-0.5,1.9-1,2.9-1.5c0.5,0-0.3,0.3-0.3,0.3
	c0.7-0.1,1.4-0.3,2-0.5c-0.1,0.1,0,0.1,0.3,0.1c0.6-0.1,0.3-0.3,1.1-0.4c-0.2,0.1-0.3,0.2-0.5,0.3c0.3-0.1,0.7-0.2,1-0.3
	c0.3-0.1,0.7-0.2,1-0.2c0.2,0.1-0.4,0.2-0.6,0.3c0.4-0.1,0.9-0.2,1.3-0.2c0.3,0,0.6-0.1,0.9-0.2c-0.2,0-0.3,0-0.5,0
	c0.3,0,0.2,0.1-0.1,0.2c-0.7,0.2-1,0-1,0l0.5-0.1c-0.5-0.1-0.9-0.1-1.4,0l-0.9,0.2c-0.3,0.1-0.5,0.2-0.8,0.2l0.4-0.3l-1,0.4
	c-0.2,0-0.4-0.1,0.1-0.3c-0.8,0.1-0.6,0.2-1.3,0.3c-0.1,0,0,0,0,0c-0.2,0.1-0.5,0.2-0.7,0.3c0.1-0.1-0.2-0.1,0.3-0.2
	c-1.3,0.2-1.9,0.8-2.5,0.8l0.1-0.1c-1.6,0.7-0.1,0.2-1.2,0.9c-0.4,0-0.7,0-1.1,0l-0.1,0.2c-0.2,0.1-0.5,0.2-0.5,0.1
	c-0.5,0.4,0.2,0-0.1,0.3c-0.5,0.2-1,0.4-1.4,0.7c-0.5,0.3-0.8,0.5-1,0.4c-0.2,0.3,0.8-0.3,0,0.2c-0.4-0.1-0.9,0.6-1.7,0.9
	c0.1-0.3,0.8-0.6,0-0.3c-0.2,0.5-1.4,0.8-1.9,1.2c0.1,0.2-1.1,0.9-2,1.6c0-0.1-1.8,1.2-2.6,1.8l0,0c0,0.3-0.9,0.9-1.4,1.5
	c-0.1-0.1,0-0.2,0.3-0.6l-0.6,0.5c-0.1,0.2-0.3,0.5-0.6,0.6l0-0.2c-0.7,0.8-1.4,1.5-2.2,2.2c0.1,0.2,1.1-0.3,0.2,0.6
	c-0.1,0-0.2-0.1,0-0.3c-0.1,0.2-0.3,0.3-0.5,0.4l0.3-0.4c-0.5,0.3-0.1,0.3-0.5,0.5c-0.1-0.1-0.3,0.1-0.4,0c0-0.1,0.4-0.2,0.5-0.3
	c-0.4,0.3-0.8,0.5-1.2,0.7c0.1,0,0.1,0.1-0.2,0.4c-0.8,0.6-0.4,0.1-0.9,0.4c-0.1,0.2-0.7,0.5-0.6,0.7c-0.1,0.1-0.3,0.2-0.5,0.2
	c-0.3,0.4-1.9,1.3-1.3,1.2l0.1-0.1l-0.1,0.1l0,0c-1.3,1.1-3,1.8-4.4,2.6l0,0c-0.2,0.1-0.4,0.3-0.7,0.4l-0.7,0.3
	c-0.4,0.2-0.8,0.4-1.2,0.6c-0.3,0.1-0.7,0.2-0.6,0.1c-0.6,0.3-1.2,0.5-1.8,0.7c0.7-0.4-0.3,0,0.7-0.3c-0.8,0.2-1.5,0.4-2.2,0.8
	c0.3-0.2-0.8,0-1.2,0.2l0.7-0.1c-0.5,0.2-1,0.3-1.4,0.4l0.2-0.3c-0.5,0.1-0.9,0.2-1.4,0.3c-0.5,0.1-0.9,0.2-1.3,0.4
	c-0.8,0.3-1.6,0.4-2.4,0.4c-0.5,0.2,1.1-0.1,0.7,0.2c-0.9,0.1-2,0-2.3,0c-1.3,0.1-1.2,0.4-2.5,0.5c0.2,0.1,0.4,0.2-0.6,0.4
	c-1,0.1-1.2-0.2-0.6-0.3c0.2,0,0.3,0,0.3,0c0.3-0.1,0.7-0.1,0.3-0.2l-0.1,0.1c-0.5,0-1.8,0.1-1.5-0.1c-0.7,0.1-0.3,0.1,0.2,0.1
	c-1.2,0-1.9,0.1-3.2,0.1c0.2,0,0.4,0.1,0.2,0.1c-1.9,0-0.8,0.2-2.1,0.2c-0.7-0.1,0.3-0.3-1-0.1c-0.8-0.1-0.2-0.2,0.1-0.3
	c-0.9,0.1-1.9,0-2.8-0.1l0.6-0.1c-0.3,0-0.6,0-1,0l0.3,0.1c-0.4,0-0.7,0-0.7-0.1c-0.4,0.1,0.3,0.2-0.5,0.4c-0.5-0.1-1.4,0.1-1.6-0.1
	c1.5,0.1-0.2-0.2,1.1-0.2c-0.3,0-0.6,0-0.9,0c0,0,0.1,0,0.2,0c-1.4-0.2-0.7,0.2-2.1,0.2c0.2-0.1-0.3-0.2-0.6-0.2
	c0.6,0,0.3,0.2-0.3,0.3c-0.5,0-1,0-1.5,0l0.6,0.1c-0.4,0.1-0.9,0.1-1.3,0.1c-0.1-0.1,0.6-0.1,0.4-0.1c-0.7,0.2-1.7-0.2-2.7-0.1
	c-0.5-0.1,0-0.2-0.5-0.3c-1.2,0.1-1.3-0.2-2.5,0c0.3,0.1,0.4,0.1-0.5,0.2l2-0.1l-1.3,0.2c0.6,0,1.3-0.1,1.6-0.1
	c-0.6,0.1-0.5,0.1-0.3,0.2c-0.8-0.2-1.6,0.1-2.6,0l0-0.4c-1.4-0.1-2.6,0.2-4.4,0.1l0.6,0c-0.2,0.2-1.2,0.1-1.8,0.1
	c0-0.1-0.3-0.2-0.6-0.2c0,0.1-1.4,0.1-1.5,0.3l-0.8-0.1c-1.5,0-1.7,0.5-3.1,0.6c0.4-0.2-0.2-0.2,0.7-0.4c-0.5,0-0.9,0.1-0.9,0.2
	c-0.3,0-1.3,0.3-1.8,0.2c-0.2,0.2-0.5,0.2-0.8,0.3c-0.1,0,0-0.1,0-0.1s-0.8,0.2-0.3,0.3c-0.9,0-1.9,0-2.8,0.2
	c-0.9,0.2-1.7,0.3-2.6,0.4c-1,0.2-2.2,0.6-3.2,0.8c0,0,0-0.1,0.2-0.1c-1.3,0.2-0.7,0.5-2.2,0.8c-0.8,0,0.7-0.3,0.2-0.3
	c-0.3-0.3-1.7,0.5-2.8,0.6l0.2-0.1c-0.8,0.1-1.7,0.7-2.9,1.1c0,0,0-0.1,0-0.1c-0.7,0.4-2.2,1.1-3.3,1.5c0.3-0.3,0.5-0.3,0.2-0.3
	c-0.5,0.2,0.3,0.2-0.7,0.6c-0.4,0-1.1,0.3-1.3,0.2c0.3-0.1,0.6-0.3,0.9-0.4c-0.6,0-1.2,0.5-1.7,0.7l0-0.1c-0.5,0.2-1,0.5-1.4,0.7
	c-0.5,0.3-0.9,0.6-1.5,0.8l0.2,0c-0.7,0.6-0.8,0.2-1.5,0.7l-0.4-0.1c-0.5,0.3-1.7,1.1-2.6,1.7c0.6-0.6,1.3-1.1,2.1-1.5
	c-0.7,0.3-1.4,0.7-2,1.2c0.2-0.2,0.4-0.3,0.7-0.4c-0.7,0.6-1.5,1.1-2.3,1.6c-0.1-0.5-2.7,1.4-3.6,1.6c-0.8,0.6-1.7,1.2-2.6,1.7
	c-0.9,0.6-1.8,1.2-2.8,1.9c0.9-0.2-0.5,0.4-0.1,0.6c-0.2,0.2-0.4,0.4-0.6,0.5l-1.5,0.9c-0.4,0.2,0.3-0.4,0.2-0.4
	c-1,0.7-0.5,0.2-1.2,0.6c0.2,0-0.2,0.4-0.7,0.8l0.9-0.5c-1.1,1.2-1.3,0.7-2.5,2l0.3-0.4c-0.6,0.6-2.3,2.2-2.7,3
	c-0.1,0.1-0.4,0.2-0.1-0.1c-0.8,0.8-1.5,1.7-2,2.6c-0.6,0.9-1,1.8-1.4,2.6l0-0.2c-0.1,0.4-0.2,0.8-0.3,1.1c0,0-0.1-0.2-0.1,0
	l-0.2,1.6c0-0.2-0.1-0.3-0.1-0.5c-0.2,0.9-0.1,1.8,0.4,2.6c0.2,0.3,0.4,0.7,0.6,1c0.3,0.3,0.6,0.6,0.9,0.9c-0.1,0.1,0.1,0.5,0.6,0.8
	c0.2,0.2,0.5,0.4,0.8,0.5c0.2,0.1,0.5,0.3,0.8,0.4l0,0c1.2,0.4,2.4,0.5,3.7,0.4c1.1-0.1,2.2-0.5,3.3-0.9c1.1-0.3,2.2-0.8,3-1.5
	c1-0.9,1.8-1.9,2.5-3c-0.2,0.3-0.2-0.1,0-0.5c0.3-0.4,0.4-1.3,0.6-1.2c0,0.1,0,0.1-0.1,0.2c0.4-0.3,0.7-1.3,0.9-2l-0.3-0.2
	c0.5-1.1,0.8-2.3,0.8-3.5c0-1,0.2-1.9,0.4-2.8c0-0.6-0.1-1.1-0.2-1.6l0.2,0c0-0.7-0.2-1.3-0.4-1.9c-0.4-0.8-1-1.4-1.8-1.8
	c0.2,0,0.3,0.1,0.5,0.1c-0.4-0.3-0.9-0.4-1.4-0.4c-0.4,0-0.8,0-1.3,0l-0.3-0.3c-1-0.1-1.9-0.1-2.8-0.2c-0.9-0.1-1.9,0-2.8,0
	c0,0,0.1-0.1,0.4-0.1c-0.9,0-3.3-0.2-3,0.1c0-0.2-1.9,0-2.9,0.1l0.2-0.2c-0.6,0.2-1.3,0.3-2,0.3c-0.3,0-0.2-0.1,0.1-0.1
	c-0.9-0.1-0.7,0.2-1.8,0.1l0.4-0.1c-0.5,0-0.9,0-1.4,0.2c-0.7,0.1-1.3,0-1.9-0.2c-0.4,0.2-0.8,0.2-1.2,0.2c-0.1-0.1,0.1-0.1,0.2-0.1
	c-1.6-0.1-2.3,0.3-3.5,0.1c0-0.1-0.1-0.1-0.2-0.1c1.3,0,2.3,0,2.2,0c0-0.2-1-0.2-0.2-0.4c-1,0.2-2.1,0.4-3.2,0.4c0,0-0.1,0-0.1,0
	l0.1,0c-0.2,0-0.4,0-0.6,0c-0.3,0-0.5,0-0.8,0c-0.6-0.1-1.1-0.1-1.7,0c0.1,0.2-0.6,0.2,0,0.3c-0.1,0,0.1,0,0.4,0l0.2,0l0,0l1.3-0.1
	c-0.4,0.1-0.9,0.2-1.4,0.1c-0.2,0.1-0.5,0.2-0.7,0.3c-0.7-0.2-2.1-0.3-2.3-0.4c-1.5,0.2-3.7,0.4-4.6,0.8c-0.2,0.1-0.5,0-0.7-0.1
	c0.2-0.1,0.5-0.1,0.7-0.2c-0.9,0.2-2.6,0.4-2.8,0.7c-1.1,0.1,0.6-0.3-0.9,0l0.2-0.1c-1.4,0.1-2.7,0.5-3.9,1
	c-1.3,0.6-2.6,1.1-3.9,1.5c0.2-0.1,0.3-0.1,0.4-0.1c-1.8,0.7-3.5,1.6-5,2.7c-1.6,1-3,2.2-4.5,3.2c-0.5,0.3-0.9,0.8-1.2,1.3l-0.3,0
	c-0.2,0.3-0.4,0.6-0.6,0.9c-1,1.1-2.2,1.5-3.3,3l0.3-0.1c-0.5,0.5-1.4,1.6-1.5,1.4c0,0.2-0.1,0.3-0.3,0.4l-0.1,0l-0.9,1.3
	c-0.9,0.9-0.2-0.4-1.5,1c-0.4,0.5-1.1,1.6-0.8,1.5c0.2-0.2,0.5-0.5,0.6-0.4l-0.4,0.5c0.2,0.3,0.1,0.8,1.3-0.2l0.6-0.9l0.4-0.2
	l-0.6,0.7c0.3-0.2,0.6-0.6,0.7-0.9c0.2,0,0.3-0.1,0.4-0.2l0.5-0.9c0.2,0-0.1,0.5,0.4,0c0.2-0.4-0.5,0.2-0.1-0.5
	c0.5-0.3,0.5-0.1,0.8-0.6c0.1,0,0.1,0.1-0.1,0.3c0.4-0.4,0.7-0.9,1-1.3c0.5-0.3,1.2-1.3,1.4-1.1c0.2-0.4,0.5-0.8,0.8-1.2
	c-0.4,0.8,1.4-1.2,1.5-0.8c0.3-0.5,0.6-0.9,1-1.2c0.5-0.4,1.1-0.9,1.5-1.3c0,0.1-0.1,0.2-0.2,0.2c0.4-0.3,0.7-0.5,1.1-0.7
	c-0.1-0.1,0.1-0.3,0.3-0.6s0.5-0.5,0.7-0.7c0.8-0.3-0.2,0.5,0.2,0.5c-0.2-0.1,1-1,0.7-0.9c0.6-0.2,0.5-0.2,0.9-0.3
	c-0.1-0.3,0.5-0.4,0.8-0.8c0.9-0.3,0.4,0.1,1.2-0.5C64.7,179.4,64,179.9,64,179.9z M87.8,174.5L87.8,174.5l-0.5,0L87.8,174.5z
	 M89.9,174.5l-0.9,0c-0.1-0.1,0-0.1,0.2-0.1C89.1,174.4,89.6,174.4,89.9,174.5L89.9,174.5z M85.3,173.4c0.3,0,0.5,0,0.5,0
	L85.3,173.4l-0.1,0C85.2,173.5,85.3,173.4,85.3,173.4L85.3,173.4z"/>
<path class="st17" d="M224.9,138.3c0.5-0.4-0.1-0.1-0.1-0.1C224.5,138.5,224.4,138.5,224.9,138.3z"/>
<path class="st17" d="M524.7,89.8c1.1,0.4,0.6,0,0.9-0.1c1.4,0.4,0.6,0.4,1,0.6c0.9,0.2,1.6,0.2,2.2,0.4c0,0,0.2,0.1,0,0.1
	c1,0.1,2.7,0.8,3.8,0.8c0,0,0.1,0,0.1,0.1c-0.1-0.2-0.1-0.3-0.1-0.3c0.5,0.1,1,0.1,1.1,0.3c-0.2,0-0.4,0-0.5,0l0.6,0.1
	c0.4,0.3-0.8-0.1-0.8,0c1.1,0.1,2.1,0.3,3.2,0.6c0.1,0.2-1.9-0.4-0.9,0.1l-1.2-0.4c0.9,0.5-0.8-0.2,0,0.3c1.6,0.5,1.9,0.4,3.5,0.7
	c0.4,0-0.1-0.2,0.3-0.2c2.4,0.3,1.7,0.9,3.6,0.9c0.6-0.2,1.3-0.2,1.9,0L543,94c1.6,0.3,1-0.2,2.7,0.2c-0.3,0.1-1.3-0.1-1.1-0.1
	c1.1,0.4,0.8,0,1.7,0.1l0.1,0.2c1.8,0.2,3.7,0.3,5.7,0.4c-0.1,0.1-0.5,0.1,0,0.2c2.5,0.1,5.3,0.4,7.6,0.6l0.9-0.2
	c0.2,0,0.4,0.1,0.2,0.1c0.9,0.1,0.1-0.1,0.5-0.2s0.7,0.1,0.4,0.2c0.8-0.1,2-0.1,3.2-0.2c1.1-0.1,2.1-0.1,3.2-0.1l-0.3,0.1
	c1.4,0,1.5-0.4,2.8-0.4l-0.2,0c1.5-0.1,3-0.2,4.4-0.4c1.4-0.2,2.8-0.3,3.9-0.4c0.5-0.2,1-0.3,1.6-0.4c0.7-0.1,1.3-0.3,1.4-0.5
	c0.8-0.1,1.2-0.1,1.5-0.2c0.7-0.1,1.4-0.3,2-0.5c0.6-0.2,0.8-0.5,1.5-0.9l0.1,0.2l0.9-0.6l0.6-0.1l0.6-0.4c-0.3,0.1-0.6,0.2-0.6,0.2
	c0.5-0.3,1.1-0.6,1.6-0.9c0.3-0.2,0.6-0.3,0.9-0.4c0.7-0.6,1.3-1.2,1.9-1.8c0,0.1-0.3,0.4-0.5,0.7c0.4-0.6,0.5-0.6,0.6-0.6
	s0.2,0,0.5-0.5c-0.2,0.1,0-0.1-0.1-0.2c0.8-0.8,1.4-1.7,1.7-2.6c0,0.1,0,0.2,0.1,0.2c0.8-1.9,1.1-3.9,0.8-5.9c0,0.8-0.3,0.6-0.4,0
	c0.1-0.1,0.1-0.2,0.2-0.3c-0.2-0.4,0,0.6-0.3-0.1c-0.1-0.8,0.2-0.6,0.3-0.1c-0.1-0.3-0.2-0.6-0.3-0.9c0-0.1,0.2,0.1,0.2,0.2
	c-0.1-0.3-0.2-0.7-0.3-1c-0.1-0.4-0.3-0.8-0.5-1.1l0-0.1c-0.2-0.4-0.5-0.8-0.8-1.2c-0.3-0.3-0.6-0.6-0.9-0.9s-0.6-0.5-0.9-0.7
	c-0.3-0.2-0.7-0.4-1.2-0.7c-0.1,0.1-0.8-0.2-1.4-0.3c-0.7-0.3-1.4-0.4-2.2-0.5c-0.9-0.1-1.7,0-2.5,0.1c-0.6,0.2-0.7,0.3-0.6,0.3
	c0,0,0.1,0.1-0.1,0.2c-0.2-0.2-1.7,0.5-1,0.1c-0.7,0.3-1.4,0.7-2,1.2c-0.7,0.5-1.3,1.2-1.9,1.8c0.2-0.2,0.4-0.3,0.4-0.2
	c-0.3,0.3-0.7,0.7-0.7,0.6l0.1-0.1c-0.9,1.1-1.6,2.3-2.2,3.6c-0.6,1.1-0.9,2.4-0.8,3.7c0,0,0-0.1,0-0.1c0,0.7,0.2,1.4,0.4,2.1
	c0.1,0.5,0,0.3-0.1,0.2c-0.1-0.2-0.2-0.4-0.2,0c0.2,0.6,0.4,1,0.6,1.5s0.4,0.8,0.6,1.2c0.2,0.4,0.4,0.7,0.6,1.1
	c0.3,0.4,0.5,0.7,0.9,1.1c0.2,0.4,0.5,0.9,0.8,1.2c0.4,0.5,0.9,1,1.5,1.4c1.1,0.9,2.4,1.7,3.2,2.4l0-0.2c0.5,0.2,0.5,0.4,0.8,0.6
	c0-0.1-0.4-0.4-0.1-0.3c4.1,2.2,8.4,4,12.9,5.3c1.6,0.5,1.1-0.3,3.1,0.5l-0.7,0c3.4,0.6,6.9,1.7,10.2,2.2c-0.2,0-0.4,0-0.6,0
	c0.8,0.3,1.7,0.4,2.6,0.4c0.5,0.1,0.1,0.1,0.4,0.3c0.7,0.2,1.8,0.2,2.1,0.4c0.1,0-0.2,0-0.3,0c0.5,0,2.1,0.4,1.7,0.2
	c1.2,0.3,2.4,0.4,3.4,0.6c0.7-0.1,2.1,0.5,2.4,0.3c-0.2,0.3,2.1,0.6,3,0.6c-0.3,0,0.7,0.2,0.3,0.3c0.9,0.2,1.7,0.3,1.6,0.1
	c1.6,0.6,3.4,0.3,4.2,0.9c2.7,0.4,5.2,0.8,7.6,1.2c-0.2,0.2-2.6-0.5-2.6-0.2c2,0.2,3.9,0.5,5.9,1c0.6,0.2-0.4,0-0.6,0
	c2.3,0.4,4.3,1,6.3,1.5c-0.1,0-0.3,0-0.4,0c0.4,0.1,0.9,0.3,0.9,0.1l-0.4-0.1c-0.6-0.3,1.7,0.1,1.8,0c-0.8,0.1,1.9,0.7,0.7,0.8
	c0.3,0.1,0.6,0.1,0.6,0c0.4,0.1,0.5,0.2,0.1,0.2c1.4,0.4,1,0.1,2.2,0.5c0,0.1-0.3,0-0.4,0c0.8,0.1,1.6,0.3,2.4,0.6
	c-0.1,0,0,0.1-0.3,0c0.9,0.3,1.7,0.5,2.5,0.7c0.9,0.3,1.7,0.6,2.5,0.9c-0.7,0,0.6,0.3,0.6,0.6l1.1,0.3l-0.4-0.3
	c0.8,0.3,1.7,0.6,2.5,1l-0.7-0.2l1.7,0.7l-0.9-0.5c0.9,0.3,0-0.3,1.2,0.3c0.4,0.2,0.9,0.5,1.3,0.7l0,0c0.6,0.1,1.1,0.4,1.6,0.7
	c0.1,0.1-0.3,0.2-0.2,0.2c0.5,0.1,2,1,2.7,1.1c-0.2,0-0.3,0-0.2,0.1l0.4,0c0.4,0.3,0.4,0.3,0.3,0.3c1.1,0.7-0.2-0.5,1.1,0.4
	c-0.1,0-0.2-0.1-0.3-0.1c1.3,0.9,2.7,1.5,3.9,2.3c0.1,0.2-0.2,0-0.4-0.1s-0.5-0.3-0.4-0.1l2.8,1.6c0.9,0.5,1.8,1.1,2.6,1.7l-0.3-0.2
	c0.5-0.1,1.1,1,2,1.5c-0.2-0.1-0.4-0.1-0.3,0c0.5,0.4,1.1,0.8,1.8,1.3l2.2,1.6l-0.3-0.1c0.6,0.6,1.6,1.4,2.2,2
	c0.3,0.1,0.6,0.5,0.5,0.2c0.8,1,1.7,1.9,2.8,2.7c0.9,0.8,1.8,1.6,2.5,2.6c-0.2-0.2-0.5-0.4-0.4-0.3c0.5,0.5,1,0.9,1.4,1.4
	c0-0.2-0.1-0.3-0.3-0.6c0.4,0.3,0.7,0.6,1,0.9c-0.7-0.6-0.2,0.1,0,0.5c0-0.1,0.1,0,0.1-0.1c0.5,0.9,0.4,0,1.2,1.1l-0.1,0
	c0.4,0.4,0.8,0.7,1.1,1.1c0,0.3-0.4-0.4-0.6-0.3c0.5,0.6,1.3,1.1,1.6,1.7c-0.2-0.2-0.6-0.6-0.8-0.9c0.2,0.4,0.4,0.8,0.7,1.2l0,0
	l0.8,1.1l-0.2-0.3c0.5,0.3,0.9,0.7,1.2,1.1c0.3,0.5,0.7,1,1.2,1.4c-1-0.9-0.3-0.1-0.5-0.1c0.2,0.3,0.4,0.8,0.3,0.7
	c0.5,0.4,0.5,0.9,1.2,1.5c0,0.1,0.4,0.6,0.2,0.5c0.5,0.7,0-0.2,0.1-0.2c0.9,1,1.3,2.6,2.5,4c0.8,1.3,1.2,1.5,2,2.7
	c0.1,0.5-0.4-0.3-0.4-0.3c0.3,0.6,0.6,1.3,1,1.9c-0.1-0.1-0.1,0-0.1,0.3c0.3,0.5,0.4,0.3,0.6,1c-0.2-0.1-0.4-0.3-0.5-0.4
	c0.3,0.6,0.8,1.2,1.1,1.8c0,0.2-0.4-0.3-0.5-0.5c0.3,0.7,0.8,1.4,1.2,2l-0.1-0.5c0.1,0.3-0.1,0.2-0.2,0c-0.4-0.6-0.4-0.9-0.3-1
	l0.3,0.5c0.1-0.6-0.9-1.8-1.3-2.8l0.4,0.3l-0.7-0.9c0-0.2,0.1-0.4,0.3,0c-0.2-0.7-0.4-0.6-0.5-1.2c0-0.1,0,0,0.1,0l-0.4-0.6
	c0.1,0.1,0.1-0.2,0.3,0.2c-0.5-1.2-1.2-1.8-1.2-2.3l0.1,0.1c-0.5-0.8-0.5-0.8-0.6-0.8c-0.1,0-0.1,0.1-0.6-0.4l0-1l-0.3-0.1
	c-0.1-0.2-0.3-0.5-0.2-0.5c-0.5-0.5,0,0.1-0.4-0.1c-0.3-0.9-1.4-2.1-1.2-2.4c-0.3-0.2,0.4,0.8-0.3,0c0.2-0.4-0.7-0.9-1-1.7
	c0.3,0.1,0.7,0.8,0.3,0c-0.6-0.3-0.9-1.4-1.3-1.9c-0.2,0.1-1-1.2-1.8-2.1c-0.6-0.9-1.2-1.8-2-2.7l0.1,0c-0.3,0-1.1-0.9-1.7-1.5
	c0.1-0.1,0.3,0,0.6,0.3l-0.5-0.6c-0.3-0.2-0.5-0.4-0.7-0.6l0.3,0c-0.9-0.8-1.7-1.6-2.5-2.4c-0.2,0.1,0.4,1.1-0.7,0.1
	c0-0.1,0.1-0.2,0.4,0c-0.2-0.1-0.4-0.3-0.5-0.5l0.5,0.3c-0.4-0.5-0.3-0.1-0.7-0.5c0.1-0.1-0.2-0.3-0.1-0.3c0.1,0.2,0.3,0.3,0.4,0.4
	c-0.3-0.4-0.6-0.7-0.9-1.1c0,0.1-0.1,0.1-0.5-0.2c-0.8-0.7-0.2-0.3-0.6-0.8c-0.3-0.1-0.7-0.6-0.8-0.5c-0.1-0.1-0.2-0.3-0.3-0.4
	c-0.2-0.2-0.7-0.6-1.1-0.9c-0.4-0.3-0.7-0.5-0.5-0.2l0.1,0.1l-0.1,0l0,0c-0.8-0.5-1.5-1.1-2.2-1.8l-1-0.9c-0.4-0.3-0.7-0.6-1.1-0.8
	l0,0c-0.9-0.6-2-1.4-2.7-1.8c-0.2-0.2-0.5-0.5-0.4-0.5c-0.6-0.3-1.2-0.7-1.8-1.2c0.8,0.4-0.2-0.2,0.8,0.4c-0.6-0.5-1.3-1-2.1-1.4
	c0.4,0.1-0.5-0.6-1-0.8c0.2,0.2,0.4,0.3,0.6,0.5c-0.5-0.3-0.9-0.6-1.4-0.8l0.4,0c-1.8-1.3-3.7-1.7-5-2.8c-0.6-0.1,1,0.6,0.4,0.5
	c-0.9-0.5-1.7-1.2-2-1.4c-0.4-0.3-0.8-0.4-1.3-0.5c-0.5-0.1-1-0.3-1.4-0.5c0.1,0.1,0.2,0.4-0.9,0c-0.9-0.5-1-0.8-0.4-0.6
	c0.2,0.1,0.3,0.2,0.3,0.2c0.3,0.1,0.7,0.3,0.4,0l-0.2,0c-0.4-0.3-1.7-0.9-1.4-0.8c-0.7-0.3-0.4,0,0.1,0.2c-1-0.5-2.1-1-3.2-1.4
	c0.2,0.1,0.3,0.3,0.1,0.2c-1.8-0.8-0.9-0.2-2.2-0.7c-0.7-0.4,0.4-0.2-1-0.6c-0.8-0.3-0.1-0.2,0.3-0.2c-1-0.3-2-0.7-2.9-1.1l0.7,0.2
	c-0.3-0.1-0.7-0.2-1-0.3l0.3,0.3c-0.4-0.2-0.7-0.3-0.6-0.3c-0.4,0,0.2,0.3-0.6,0.2c-0.5-0.2-1.5-0.4-1.6-0.6
	c1.5,0.5-0.1-0.2,1.2,0.1c-0.3-0.1-0.6-0.2-0.9-0.3c0,0,0.1,0,0.2,0c-1.4-0.6-0.8,0-2.3-0.5c0.2,0-0.3-0.3-0.6-0.3
	c0.6,0.2,0.2,0.3-0.4,0.2c-0.5-0.2-1.1-0.3-1.6-0.4l0.6,0.2c-0.5,0-1-0.1-1.4-0.3c0-0.1,0.7,0.1,0.4,0c-0.8,0-1.7-0.6-2.8-0.8
	c-0.5-0.2,0-0.2-0.4-0.4c-1.3-0.2-1.3-0.5-2.6-0.6c0.3,0.2,0.4,0.2-0.5,0.1l2.2,0.4l-1.4-0.1c0.6,0.1,1.4,0.2,1.8,0.3
	c-0.7,0-0.6-0.1-0.3,0.1c-0.8-0.4-1.8-0.3-2.8-0.6l0.1-0.3c-1.5-0.5-2.8-0.4-4.8-0.9l0.6,0.2c-0.3,0.1-1.2-0.2-1.9-0.3
	c0.1-0.1-0.3-0.2-0.6-0.4c0,0.1-1.5-0.3-1.7-0.1l-0.9-0.3c-1.6-0.4-1.9,0-3.5-0.3c0.5,0-0.2-0.3,0.9-0.2c-0.5-0.1-1-0.2-1-0.1
	c-0.3-0.1-1.5-0.1-1.9-0.3c-0.3,0.1-0.6,0.1-0.9,0c-0.1,0,0-0.1,0-0.1s-0.9-0.1-0.5,0.1c-1.5-0.7-4.5-0.8-5.8-1.4
	c-1.1-0.2-2.5-0.4-3.5-0.6c0.1,0,0-0.1,0.2,0c-1.4-0.4-0.9,0.2-2.5-0.3c-0.8-0.4,0.9,0.1,0.4-0.1c-0.1-0.4-2-0.3-3-0.8l0.3,0
	c-0.8-0.3-2.1-0.3-3.4-0.6c0,0,0.1,0,0-0.1c-1.4-0.1-2.7-0.3-4-0.6c0.4-0.1,0.6,0.1,0.4-0.1c-0.6-0.1,0.1,0.3-1.1,0
	c-0.3-0.2-1.1-0.5-1.2-0.6l1.1,0.3c-0.5-0.3-1.4-0.3-2-0.5l0.1-0.1c-1.6-0.4-1.8-0.2-3.5-0.7l0.2,0.1c-1,0-0.8-0.4-1.8-0.5l-0.2-0.3
	c-1.1-0.2-2.3-0.5-3.4-0.9c0.7,0.1,2,0.4,2.9,0.6c-0.8-0.3-1.6-0.5-2.4-0.7c0.3,0.1,0.6,0.1,0.8,0.2c-1.1-0.1-2.1-0.4-3-0.9
	c0.2-0.2-0.5-0.5-1.4-0.9c-0.8-0.3-1.5-0.8-2.1-1.3c-2-0.9-3.6-2.4-5.4-4.1c0.2,0.4,0,0.3-0.2,0.1c-0.2-0.2-0.4-0.5-0.5-0.3
	c-0.4-0.4-0.5-0.6-0.5-0.6c-0.3-0.5-0.5-1-0.8-1.5c-0.1-0.4,0.3,0.4,0.4,0.3c-0.6-1-0.1-0.5-0.4-1.2c-0.1,0.2-0.4-0.3-0.6-0.9
	l0.2,0.9c-0.3-0.4-0.5-0.9-0.6-1.4c0-0.2,0-0.3-0.1-0.6c-0.1-0.3-0.1-0.6-0.2-0.9l0.2,0.5c-0.2-0.6-0.2-1.2-0.2-1.9
	c0-0.8,0.1-1.5,0-1.9c0.1-0.1,0.3-0.3,0.2,0.1c0.3-1,0.6-2,1.1-3c0.4-0.9,1-1.7,1.8-2.3l0,0.2c0.2-0.3,0.5-0.6,0.8-0.8
	c0,0-0.1,0.2,0.1,0.1c0.3-0.4,0.8-0.7,1.2-0.9c-0.1,0.1-0.2,0.2-0.3,0.3c0.7-0.4,1.5-0.8,2.3-1.1c0.7-0.3,1.5-0.5,2.4-0.5
	c0,0.1,0.4,0.2,0.9,0.4c0.2,0.1,0.5,0.2,0.8,0.3c0.2,0.1,0.4,0.2,0.6,0.3l0,0c1,0.4,1.9,0.9,2.6,1.6c0.8,0.7,1.3,1.5,1.7,2.4
	c0.2,1,0.3,1.9,0.3,2.9c0,1.2-0.2,2.3-0.7,3.4c0.2-0.3,0.2,0.1,0.1,0.5c-0.2,0.4-0.4,1.3-0.6,1.2l0.1-0.2c-0.4,0.2-0.9,1.1-1.4,1.7
	l0.2,0.3c-1,0.7-2,1.6-3.2,2.4c-0.8,0.7-1.8,1.2-2.9,1.4c-0.2,0.1-0.5,0.3-0.8,0.4c-0.3,0.1-0.6,0.2-0.8,0.4l0-0.2
	c-1.5,0.4-2.3,0.6-4.2,1.1l0.4-0.2c-1.1,0.2-1.3,0.8-2.3,1l-0.4-0.2c-2,0.3-4,0.3-5.9,0.7c0,0,0.1-0.1,0.4-0.2
	c-0.9,0.1-3.6,0.1-3.3,0.4c0-0.2-2.1,0.1-3.1,0.2l0.2-0.2c-0.7,0.3-1.4,0.4-2.2,0.4c-0.3,0-0.3-0.1,0.1-0.1c-1-0.1-0.8,0.2-2,0.1
	l0.5-0.1c-0.5,0-1,0-1.5,0.2c-0.7,0.1-1.4,0-2.1-0.2c-0.4,0.1-0.9,0.2-1.3,0.1c-0.1-0.1,0.1-0.1,0.3-0.1c-0.7-0.1-1.4-0.1-2.1,0
	c-0.6,0-1.1,0-1.7-0.1c0-0.1-0.1-0.1-0.2-0.1l1.7,0.1c0.2,0,0.4,0,0.6,0c0-0.2-1.1-0.2-0.2-0.4c-1.1,0.1-2.3,0.1-3.5,0
	c0,0-0.1,0-0.1-0.1l0.1,0c-0.2,0-0.5,0-0.7,0c-0.3-0.1-0.6-0.1-0.9-0.1c-0.6-0.2-1.2-0.3-1.8-0.3c0,0.2-0.7,0.1,0,0.3
	c-0.1,0,0.1,0,0.5,0c0.1,0,0.2,0,0.2,0l0,0c0.4,0,0.8,0.1,1.4,0.1c-0.5,0.1-1,0-1.5-0.1c-0.3,0.1-0.6,0.2-0.8,0.2
	c-0.7-0.3-2.1-0.6-2.3-0.8c-1.7-0.2-3.9-0.6-5-0.4c-0.3,0-0.5-0.1-0.7-0.3c0.3,0,0.6,0.1,0.8,0.1c-1-0.1-2.8-0.5-3.1-0.4
	c-1.2-0.3,0.7-0.1-0.9-0.4l0.2,0c-3.1-1.1-5.3-0.6-8.6-2.1c0.2,0.1,0.3,0.1,0.4,0.2c-0.5-0.2-1-0.3-1.5-0.5l-1.5-0.5l-3-0.9
	c-1-0.4-2-0.7-2.9-1.1c-0.5-0.2-1-0.4-1.4-0.6s-0.9-0.4-1.4-0.7c-0.6-0.3-1.2-0.5-1.9-0.6l-0.1-0.3c-0.4-0.1-0.8-0.2-1.2-0.3
	c-1.6-0.6-2.4-1.6-4.5-2.3l0.2,0.2c-0.7-0.4-2.2-1.1-2-1.1c-0.2,0-0.4-0.1-0.5-0.2l0-0.1c-0.6-0.2-1.2-0.5-1.7-0.7
	c-1.2-0.8,0.4-0.2-1.4-1.3c-0.7-0.4-2.1-0.9-1.9-0.7c0.2,0.2,0.7,0.5,0.6,0.5l-0.7-0.3c-0.3,0.2-1,0.1,0.4,1.2l1.2,0.5l0.3,0.3
	l-0.9-0.5c0.3,0.3,0.8,0.5,1.2,0.6c0.1,0.2,0.2,0.3,0.4,0.4c0.4,0.1,0.8,0.3,1.2,0.4c0.1,0.2-0.6-0.1,0.1,0.4
	c0.6,0.2-0.3-0.5,0.5-0.1c0.4,0.4,0.2,0.4,0.9,0.6c0,0.1-0.1,0.1-0.4,0c0.6,0.3,1.2,0.5,1.8,0.7c0.4,0.4,1.9,0.9,1.7,1.1
	c0.6,0.1,1.1,0.3,1.6,0.5c-1.1-0.2,1.9,0.9,1.5,1.1c0.9,0,2.7,1,4,1.4c-0.1,0-0.2,0-0.3-0.1c0.7,0.3,0.9,0.5,1.3,0.7
	c0.2-0.2,1.4,0.2,2,0.3c0.8,0.5-0.7,0.1-0.5,0.4c0-0.2,1.6,0.4,1.4,0.1c0.6,0.4,0.6,0.3,0.8,0.6c0.2-0.2,0.7,0.2,1.3,0.2
	c0.9,0.5,0.2,0.3,1.3,0.6C525.7,90,524.7,89.8,524.7,89.8z M552.1,94.8L552.1,94.8l-0.6,0L552.1,94.8z M554.5,95l-1-0.1
	c-0.1-0.1,0-0.1,0.2-0.1C553.6,94.9,554.1,94.9,554.5,95z M549.7,93.4c0.4,0,0.5,0.1,0.5,0.1l-0.6-0.1l0,0
	C549.6,93.4,549.6,93.4,549.7,93.4L549.7,93.4z"/>
</svg>
