<svg xmlns="http://www.w3.org/2000/svg" xmlns:xlink="http://www.w3.org/1999/xlink" viewBox="0 0 1366 768"><defs><style>.cls-1{isolation:isolate;}.cls-2{fill:#fff;}.cls-3{fill:#98cad3;}.cls-4{fill:#dbe3eb;}.cls-5{fill:#f1eef1;}.cls-6{fill:#679fb0;}.cls-7{fill:#46738d;}.cls-8{fill:#37526e;}.cls-9{mix-blend-mode:overlay;}.cls-10{fill:#98a09c;}.cls-11{fill:#42a56a;}.cls-12{fill:#7f5233;}.cls-13{fill:#a57e5e;}.cls-14{fill:#895d3f;}.cls-15{fill:#9b6c51;}.cls-16{fill:#b2704b;}.cls-17{fill:#9e714f;}.cls-18{fill:#79bc94;}.cls-19{fill:#91603f;}.cls-20{fill:#af8366;}.cls-21{fill:#443632;}.cls-22{fill:#165128;}.cls-23{fill:#5e5142;}.cls-24{fill:#f4f1bb;}.cls-24,.cls-25,.cls-26,.cls-27,.cls-28,.cls-29,.cls-30{stroke:#000;stroke-miterlimit:10;stroke-width:0.25px;}.cls-25{fill:none;}.cls-26{fill:#ed6a5a;}.cls-27,.cls-34{fill:#d2dbc6;}.cls-28{fill:#f5f5f5;}.cls-29{fill:#e6ebe0;}.cls-30{fill:#9bc1bc;}.cls-31{fill:#d0efed;}.cls-32{fill:#e7efda;}.cls-33{fill:#d9e2c7;}.cls-35{fill:#685452;opacity:0.5;}.cls-36{fill:url(#linear-gradient);}.cls-37{fill:#124912;}.cls-38{fill:url(#linear-gradient-2);}.cls-39{fill:url(#linear-gradient-3);}.cls-40{fill:#e1eae5;}</style><linearGradient id="linear-gradient" x1="576.37" y1="414.23" x2="616.89" y2="414.23" gradientUnits="userSpaceOnUse"><stop offset="0" stop-color="#fff53f"/><stop offset="0.1" stop-color="#ffec3b"/><stop offset="0.26" stop-color="#ffd230"/><stop offset="0.46" stop-color="#ffa91f"/><stop offset="0.57" stop-color="#ff9115"/><stop offset="0.83" stop-color="#ff1c00"/><stop offset="0.99" stop-color="#ff0e00"/></linearGradient><linearGradient id="linear-gradient-2" x1="756.58" y1="411.82" x2="790.47" y2="411.82" xlink:href="#linear-gradient"/><linearGradient id="linear-gradient-3" x1="625" y1="427.68" x2="639" y2="427.68" xlink:href="#linear-gradient"/></defs><title>homepage design</title><g class="cls-1"><g id="Layer_1" data-name="Layer 1"><rect class="cls-2" width="1366" height="768"/><path class="cls-3" d="M188.64,515.64c40,9.91,84.08,17.83,124.19,8.26,32.05-7.65,58-25.76,91.08-30.76,73.39-11.08,142.2,45.92,215.35,34.09,32.3-5.23,57.63-23.17,89.47-29.63C783.44,482.44,856,534.36,933.58,530c53.64-3,100.18-32.63,153.92-30.76,38.17,1.32,71,18.33,107.17,27,55.24,13.18,114.29,6.22,171.33-5.64V410.5c-62.52,14.07-128.25,24.12-189.33,9.55-36.14-8.62-69-25.63-107.17-27-53.74-1.86-100.28,27.78-153.92,30.77-77.59,4.31-150.14-47.61-224.85-32.45-31.84,6.46-57.17,24.41-89.47,29.63-73.15,11.84-142-45.16-215.35-34.09-33.12,5-59,23.12-91.08,30.76-40.11,9.57-84.24,1.65-124.19-8.25s-80.44-22-122.81-20.59A149.14,149.14,0,0,0,0,398.4v115c17.5-10.91,42.06-17.59,65.83-18.37C108.2,493.66,148.7,505.73,188.64,515.64Z"/><path class="cls-4" d="M170.64,409.46c40,9.9,84.08,17.82,124.19,8.25,32.05-7.64,58-25.76,91.08-30.76,73.39-11.07,142.2,45.93,215.35,34.09,32.3-5.22,57.63-23.17,89.47-29.63,74.71-15.16,147.26,36.76,224.85,32.45,53.64-3,100.18-32.63,153.92-30.77,38.17,1.33,71,18.34,107.17,27,61.08,14.57,126.81,4.52,189.33-9.55V310.29c-61,13.47-124.88,22.61-184.33,8.43-36.14-8.62-69-25.63-107.17-27-53.74-1.87-100.28,27.78-153.92,30.76-77.59,4.32-150.14-47.6-224.85-32.44-31.84,6.46-57.17,24.4-89.47,29.63-73.15,11.83-142-45.17-215.35-34.09-33.12,5-59,23.11-91.08,30.76-40.11,9.57-84.24,1.65-124.19-8.26s-80.44-22-122.81-20.58A147.08,147.08,0,0,0,0,299.13V398.4a149.14,149.14,0,0,1,47.83-9.53C90.2,387.48,130.7,399.55,170.64,409.46Z"/><path class="cls-5" d="M175.64,308.13c40,9.91,84.08,17.83,124.19,8.26,32.05-7.65,58-25.76,91.08-30.76,73.39-11.08,142.2,45.92,215.35,34.09,32.3-5.23,57.63-23.17,89.47-29.63,74.71-15.16,147.26,36.76,224.85,32.44,53.64-3,100.18-32.63,153.92-30.76,38.17,1.32,71,18.33,107.17,27,59.45,14.18,123.31,5,184.33-8.43V235H0v64.13a147.08,147.08,0,0,1,52.83-11.58C95.2,286.15,135.7,298.22,175.64,308.13Z"/><path class="cls-6" d="M188.64,619.05c40,9.9,84.08,17.83,124.19,8.26,32.05-7.65,58-25.77,91.08-30.76,73.39-11.08,142.2,45.92,215.35,34.08,32.3-5.22,57.63-23.17,89.47-29.63,74.71-15.16,147.26,36.77,224.85,32.45,53.64-3,100.18-32.63,153.92-30.76,38.17,1.32,71,18.33,107.17,26.95C1249.91,642.81,1309,635.85,1366,624V520.59c-57,11.86-116.09,18.82-171.33,5.64-36.14-8.62-69-25.63-107.17-27-53.74-1.87-100.28,27.78-153.92,30.76-77.59,4.32-150.14-47.6-224.85-32.44-31.84,6.46-57.17,24.4-89.47,29.63-73.15,11.83-142-45.17-215.35-34.09-33.12,5-59,23.11-91.08,30.76-40.11,9.57-84.24,1.65-124.19-8.26s-80.44-22-122.81-20.58c-23.77.78-48.33,7.46-65.83,18.37v103.4c17.5-10.9,42.06-17.58,65.83-18.37C108.2,597.07,148.7,609.14,188.64,619.05Z"/><path class="cls-7" d="M1194.67,629.64c-36.14-8.62-69-25.63-107.17-26.95-53.74-1.87-100.28,27.78-153.92,30.76C856,637.77,783.44,585.84,708.73,601c-31.84,6.46-57.17,24.41-89.47,29.63-73.15,11.84-142-45.16-215.35-34.08-33.12,5-59,23.11-91.08,30.76-40.11,9.57-84.24,1.64-124.19-8.26s-80.44-22-122.81-20.59c-23.77.79-48.33,7.47-65.83,18.37v97.32a147.08,147.08,0,0,1,52.83-11.58c42.37-1.4,82.87,10.67,122.81,20.58s84.08,17.83,124.19,8.26c32.05-7.65,58-25.76,91.08-30.76,73.39-11.08,142.2,45.92,215.35,34.09,32.3-5.23,57.63-23.17,89.47-29.63C770.44,690,843,741.87,920.58,737.55c53.64-3,100.18-32.63,153.92-30.76,38.17,1.32,71,18.33,107.17,27,59.45,14.18,123.31,5,184.33-8.43V624C1309,635.85,1249.91,642.81,1194.67,629.64Z"/><path class="cls-8" d="M1181.67,733.74c-36.14-8.62-69-25.63-107.17-27-53.74-1.87-100.28,27.78-153.92,30.76C843,741.87,770.44,690,695.73,705.11c-31.84,6.46-57.17,24.4-89.47,29.63-73.15,11.83-142-45.17-215.35-34.09-33.12,5-59,23.11-91.08,30.76-40.11,9.57-84.24,1.65-124.19-8.26s-80.44-22-122.81-20.58A147.08,147.08,0,0,0,0,714.15V768H1366V725.31C1305,738.78,1241.12,747.92,1181.67,733.74Z"/><g class="cls-9"><path class="cls-3" d="M1177.36,515.64c-39.95,9.91-84.08,17.83-124.19,8.26-32.05-7.65-58-25.76-91.08-30.76-73.39-11.08-142.2,45.92-215.35,34.09-32.3-5.23-57.63-23.17-89.47-29.63C582.56,482.44,510,534.36,432.42,530c-53.64-3-100.18-32.63-153.92-30.76-38.17,1.32-71,18.33-107.17,27C116.09,539.41,57,532.45,0,520.59V410.51c62.52,14.06,128.25,24.11,189.33,9.54,36.14-8.62,69-25.63,107.17-27,53.74-1.86,100.28,27.78,153.92,30.77,77.59,4.31,150.14-47.61,224.85-32.45,31.84,6.46,57.17,24.41,89.47,29.63,73.15,11.84,142-45.16,215.35-34.09,33.12,5,59,23.12,91.08,30.76,40.11,9.57,84.24,1.65,124.19-8.25s80.44-22,122.81-20.59A149.14,149.14,0,0,1,1366,398.4v115c-17.5-10.91-42.06-17.59-65.83-18.37C1257.8,493.66,1217.3,505.73,1177.36,515.64Z"/><path class="cls-4" d="M1195.36,409.46c-39.95,9.9-84.08,17.82-124.19,8.25-32.05-7.64-58-25.76-91.08-30.76C906.7,375.88,837.89,432.88,764.74,421c-32.3-5.22-57.63-23.17-89.47-29.63C600.56,376.25,528,428.17,450.42,423.86c-53.64-3-100.18-32.63-153.92-30.77-38.17,1.33-71,18.34-107.17,27C128.25,434.62,62.52,424.57,0,410.51V310.29c61,13.47,124.88,22.61,184.33,8.43,36.14-8.62,69-25.62,107.17-27,53.74-1.87,100.28,27.78,153.92,30.76,77.59,4.32,150.14-47.6,224.85-32.44,31.84,6.46,57.17,24.4,89.47,29.63,73.15,11.83,142-45.17,215.35-34.09,33.12,5,59,23.11,91.08,30.76,40.11,9.57,84.24,1.65,124.19-8.26s80.44-22,122.81-20.58A147.08,147.08,0,0,1,1366,299.13V398.4a149.14,149.14,0,0,0-47.83-9.53C1275.8,387.48,1235.3,399.55,1195.36,409.46Z"/><path class="cls-5" d="M1190.36,308.13c-39.95,9.91-84.08,17.83-124.19,8.26-32.05-7.65-58-25.76-91.08-30.76-73.39-11.08-142.2,45.92-215.35,34.09-32.3-5.23-57.63-23.17-89.47-29.63C595.56,274.93,523,326.85,445.42,322.53c-53.64-3-100.18-32.63-153.92-30.76-38.17,1.33-71,18.33-107.17,27C124.88,332.9,61,323.76,0,310.29V235H1366v64.13a147.08,147.08,0,0,0-52.83-11.58C1270.8,286.15,1230.3,298.22,1190.36,308.13Z"/><path class="cls-6" d="M1177.36,619.05c-39.95,9.91-84.08,17.83-124.19,8.26-32.05-7.65-58-25.77-91.08-30.76-73.39-11.08-142.2,45.92-215.35,34.08-32.3-5.22-57.63-23.17-89.47-29.63C582.56,585.84,510,637.77,432.42,633.45c-53.64-3-100.18-32.63-153.92-30.76-38.17,1.32-71,18.33-107.17,26.95C116.09,642.81,57,635.85,0,624V520.59c57,11.86,116.09,18.82,171.33,5.64,36.14-8.62,69-25.63,107.17-27,53.74-1.87,100.28,27.78,153.92,30.76,77.59,4.32,150.14-47.6,224.85-32.44,31.84,6.46,57.17,24.4,89.47,29.63,73.15,11.83,142-45.17,215.35-34.09,33.12,5,59,23.11,91.08,30.76,40.11,9.57,84.24,1.65,124.19-8.26s80.44-22,122.81-20.58c23.77.78,48.33,7.46,65.83,18.37v103.4c-17.5-10.9-42.06-17.58-65.83-18.37C1257.8,597.07,1217.3,609.14,1177.36,619.05Z"/><path class="cls-7" d="M171.33,629.64c36.14-8.62,69-25.63,107.17-26.95,53.74-1.87,100.28,27.78,153.92,30.76C510,637.77,582.56,585.84,657.27,601c31.84,6.46,57.17,24.41,89.47,29.63,73.15,11.84,142-45.16,215.35-34.08,33.12,5,59,23.11,91.08,30.76,40.11,9.57,84.24,1.65,124.19-8.26s80.44-22,122.81-20.59c23.77.79,48.33,7.47,65.83,18.37v97.32a147.08,147.08,0,0,0-52.83-11.58c-42.37-1.4-82.87,10.67-122.81,20.58s-84.08,17.83-124.19,8.26c-32.05-7.65-58-25.76-91.08-30.76-73.39-11.08-142.2,45.92-215.35,34.09-32.3-5.23-57.63-23.17-89.47-29.63C595.56,690,523,741.87,445.42,737.55c-53.64-3-100.18-32.63-153.92-30.76-38.17,1.32-71,18.33-107.17,27C124.88,747.92,61,738.78,0,725.31V624C57,635.85,116.09,642.81,171.33,629.64Z"/><path class="cls-8" d="M184.33,733.74c36.14-8.62,69-25.63,107.17-27,53.74-1.87,100.28,27.78,153.92,30.76C523,741.87,595.56,690,670.27,705.11c31.84,6.46,57.17,24.4,89.47,29.63,73.15,11.83,142-45.17,215.35-34.09,33.12,5,59,23.11,91.08,30.76,40.11,9.57,84.24,1.65,124.19-8.26s80.44-22,122.81-20.58A147.08,147.08,0,0,1,1366,714.15V768H0V725.31C61,738.78,124.88,747.92,184.33,733.74Z"/></g><polygon class="cls-10" points="237.08 182.19 232.76 179.91 230.61 178.77 229.13 178.96 226.3 180.4 224 182.12 221.31 184.61 219.15 187.38 222.52 186.23 224.95 185.56 227.24 183.84 229.13 182.88 231.15 182.97 234.78 183.92 236.94 185.06 237.21 187.16 236.4 188.69 235.05 189.93 236.13 190.5 238.56 189.83 240.98 189.15 242.87 188.2 244.22 186.95 245.56 185.71 243.14 186.38 242.19 186.86 241.12 186.29 241.79 183.71 243 181.42 245.3 179.7 246.11 178.17 247.45 176.93 249.34 175.97 252.31 175.58 254.87 175.96 257.29 175.29 259.18 174.33 257.56 173.47 255.41 172.33 253.25 171.19 250.82 171.86 249.34 172.06 247.86 172.25 245.97 173.21 244.63 174.45 243.41 176.74 242.6 178.27 242.2 179.04 241.79 179.8 240.98 181.33 240.58 182.09 240.18 182.86 240.04 181.81 240.04 181.81 239.5 181.52 239.5 181.52 238.56 182 238.15 182.76 238.15 182.76 237.75 183.53 237.21 183.24 237.08 182.19 237.08 182.19"/><polygon class="cls-10" points="1230.7 233.79 1228.43 227.06 1227.29 223.69 1226.22 222.19 1223.84 220.18 1221.74 219.01 1219.13 218.01 1216.81 217.86 1219.47 220.71 1221.34 222.89 1223.44 224.06 1225.03 225.4 1226.39 227.75 1228.6 232.62 1229.73 235.99 1229.28 238.01 1228.26 238.36 1226.95 237.86 1227.52 239.54 1229.39 241.72 1231.26 243.9 1232.85 245.24 1234.15 245.74 1235.46 246.24 1233.59 244.06 1232.79 243.39 1232.23 241.71 1233.47 240.35 1235.01 239.83 1237.1 241 1238.12 240.66 1239.43 241.15 1241.01 242.49 1243.17 245.51 1244.81 248.71 1246.68 250.89 1248.27 252.22 1247.42 249.7 1246.29 246.34 1245.15 242.97 1243.28 240.79 1242.2 239.28 1241.13 237.77 1239.54 236.43 1238.24 235.93 1236.7 236.45 1235.68 236.79 1235.17 236.97 1234.66 237.14 1233.64 237.48 1233.13 237.65 1232.62 237.82 1232.85 236.81 1232.85 236.81 1232.57 235.97 1232.57 235.97 1231.77 235.3 1231.26 235.47 1231.26 235.47 1230.75 235.65 1230.47 234.8 1230.7 233.79 1230.7 233.79"/><polygon class="cls-10" points="144.82 347.71 138.75 344.5 135.72 342.89 133.81 342.83 130.35 343.86 127.65 345.28 124.56 347.45 122.22 350.02 126.44 349.4 129.5 349.12 132.2 347.69 134.51 347.01 137.18 347.47 142.13 349.14 145.16 350.75 145.89 353.04 145.1 354.52 143.56 355.61 145.08 356.41 148.14 356.13 151.2 355.85 153.51 355.17 155.06 354.08 156.6 352.99 153.54 353.28 152.38 353.62 150.87 352.81 151.29 350.18 152.47 347.95 155.17 346.52 155.96 345.04 157.5 343.95 159.81 343.27 163.63 343.39 167.06 344.25 170.12 343.97 172.43 343.29 170.15 342.08 167.12 340.47 164.08 338.87 161.02 339.15 159.1 339.09 157.19 339.03 154.89 339.71 153.34 340.8 152.16 343.03 151.37 344.51 150.98 345.26 150.59 346 149.8 347.49 149.41 348.23 149.01 348.98 148.65 347.83 148.65 347.83 147.89 347.43 147.89 347.43 146.74 347.77 146.34 348.51 146.34 348.51 145.95 349.26 145.19 348.86 144.82 347.71 144.82 347.71"/><polygon class="cls-10" points="708.64 90.17 704.61 88.03 702.59 86.96 701.31 86.94 698.98 87.69 697.15 88.7 695.06 90.22 693.46 92.02 696.3 91.54 698.35 91.31 700.18 90.3 701.73 89.8 703.52 90.09 706.81 91.17 708.83 92.24 709.29 93.81 708.75 94.83 707.7 95.6 708.71 96.13 710.76 95.9 712.82 95.67 714.38 95.18 715.42 94.42 716.47 93.65 714.42 93.88 713.64 94.13 712.63 93.6 712.94 91.78 713.76 90.24 715.59 89.23 716.13 88.2 717.18 87.44 718.74 86.94 721.3 86.98 723.59 87.53 725.64 87.31 727.2 86.81 725.68 86.01 723.67 84.94 721.65 83.87 719.59 84.1 718.31 84.08 717.03 84.06 715.48 84.56 714.43 85.32 713.61 86.87 713.07 87.9 712.79 88.41 712.52 88.93 711.98 89.95 711.71 90.47 711.43 90.98 711.2 90.2 711.2 90.2 710.7 89.94 710.7 89.94 709.92 90.18 709.65 90.7 709.65 90.7 709.38 91.21 708.87 90.95 708.64 90.17 708.64 90.17"/><polygon class="cls-11" points="277.91 328.36 289.44 357.49 276 346.22 277.91 328.36"/><path class="cls-12" d="M459.67,707.83"/><polygon class="cls-13" points="536.27 702.37 545.38 692.23 559.06 694.57 564.53 698.47 564.53 707.83 559.06 710.95 545.38 710.95 536.27 702.37"/><polygon class="cls-14" points="539.91 719.52 536.27 701.59 545.38 710.95 539.91 719.52"/><polygon class="cls-15" points="550.86 725.76 539.91 719.52 545.38 710.95 559.06 710.95 550.86 725.76"/><polygon class="cls-14" points="564.53 716.4 550.86 725.76 559.06 710.95 564.53 707.83 564.53 716.4"/><polygon class="cls-14" points="536.49 701.96 539.62 698.48 541.29 696.63 545.17 692.31 558.95 694.2 556.22 694.29 553.48 694.38 550.71 693.69 547.98 693.78 546.16 693.84 544.37 694.68 540.05 700.01 536.49 701.96"/><polygon class="cls-15" points="553.59 694.57 553.59 698.47 560.89 703.93 564.53 707.83 564.53 698.47 559.06 694.57 553.59 694.57"/><polygon class="cls-16" points="283.67 353.04 283.67 367.07 318.51 382.65 323.8 385.01 283.67 353.04"/><polygon class="cls-11" points="1100.73 432.57 1072.76 437.25 1077.02 435.69 1090.7 432.57 1100.73 432.57"/><polygon class="cls-11" points="1108.02 416.2 1099.07 432.57 1110.76 416.2 1108.02 416.2"/><polygon class="cls-17" points="654.22 706.73 629 692.29 616.39 670.64 594.53 654.89 584.45 641.11 555.02 636.51 523.91 614.2 471.79 610.92 419.67 585.99 419.67 571.55 404.53 551.21 370.9 535.46 343.16 513.8 343.16 503.3 324.67 473.11 308.69 446.87 291.88 402.24 291.88 379.27 291.88 365.49 1142.67 353.02 1132.59 387.15 1107.36 410.12 1119.97 435.71 1100.64 467.21 1089.71 500.02 1089.71 529.55 1077.1 555.14 1045.15 543.33 1011.52 505.27 972.85 500.02 972.85 529.55 954.36 543.33 928.29 546.61 915.68 563.02 890.46 563.02 858.51 563.02 841.7 578.11 841.7 596.49 830.77 619.45 803.03 619.45 765.2 622.73 737.45 631.26 712.23 660.79 703.83 687.7 682.81 706.73 674.4 725.76 654.22 706.73"/><polygon class="cls-18" points="401.54 270.49 363.57 270.49 342 270.49 317.84 287.18 302.31 305.06 285.92 314.6 277.29 328.9 277.29 346.78 281.11 351.31 283.78 354.47 301.45 375.39 323.88 384.93 339.42 400.43 367.89 400.43 401.54 407.58 424.84 407.58 453.31 424.27 469.71 424.27 492.14 424.27 512.85 444.54 536.15 451.69 545.64 470.77 573.25 470.77 588.78 494.61 603.45 494.61 618.98 494.61 644.87 494.61 658.67 502.95 679.38 502.95 690.6 488.65 718.21 474.34 737.2 467.19 755.32 450.5 768.26 464.81 783.79 456.46 803.64 455.27 823.48 443.35 850.23 457.65 873.53 454.08 886.47 454.08 908.04 466 919.26 466 938.24 466 955.5 466 971.03 462.42 987.43 463.61 1006.41 458.85 1024.53 455.27 1046.1 454.08 1046.1 439.77 1059.05 439.77 1084.07 436.19 1100.46 432.62 1110.82 415.93 1117.97 406.91 1160 353.94 1160 337.25 1160 313.4 1146.19 301.48 1122.03 281.21 1097.87 270.49 1079.75 260.95 1053.87 241.87 1031.43 223.99 1003.82 209.69 973.62 209.69 948.6 200.15 920.99 183.46 889.92 183.46 857.13 171.54 826.07 171.54 800.18 171.54 767.4 162 732.02 162 701.82 162 678.52 181.07 652.63 176.31 621.57 176.31 600.86 188.23 573.25 188.23 547.37 190.61 515.44 200.15 498.18 185.84 472.3 200.15 441.23 214.46 420.52 243.07 401.54 270.49"/><polygon class="cls-18" points="1121.17 411.94 1124.62 403.27 1133.25 393.15 1142.51 380.47 1153.24 367.83 1156.57 358.26 1135.84 377.26 1128.07 385.21 1121.17 388.82 1116.86 401.82 1110.82 416.27 1121.17 411.94"/><polygon class="cls-16" points="323.8 389.69 318.32 382.67 323.8 385.01 339.3 400.61 323.8 389.69"/><polygon class="cls-16" points="367.57 400.61 339.3 400.61 346.59 403.72 367.57 400.61"/><polygon class="cls-16" points="401.31 407.62 367.57 400.61 365.74 403.72 397.66 409.96 401.31 411.52 424.45 410.21 424.1 407.62 401.31 407.62"/><polygon class="cls-16" points="452.37 427.12 424.1 409.96 424.1 407.62 453.28 424 452.37 427.12"/><polygon class="cls-16" points="492.5 424 452.37 427.12 453.28 424 492.5 424"/><polygon class="cls-16" points="348.99 403.72 365.74 403.72 367.57 400.61 348.99 403.72"/><polygon class="cls-16" points="483.9 424.67 509.82 446.61 512.56 444.27 492.5 424 483.9 424.67"/><polygon class="cls-16" points="536.27 452.07 512.56 444.27 509.82 446.61 536.27 452.07"/><polygon class="cls-16" points="544.47 471.56 534.44 452.85 536.27 452.07 545.38 470.78 544.47 471.56"/><polygon class="cls-16" points="573.65 470.78 571.21 470.98 545.38 473.12 544.47 471.56 545.38 470.78 573.65 470.78"/><polygon class="cls-16" points="586.42 498.07 569.42 471.56 573.65 470.78 589.15 494.95 596.31 494.61 594.63 496.51 586.42 498.07"/><polygon class="cls-16" points="643.87 497.29 594.63 496.51 596.45 494.95 644.78 494.95 643.87 497.29"/><polygon class="cls-16" points="657.55 505.09 643.87 497.29 644.78 494.95 658.46 502.75 661.2 505.09 657.55 505.09"/><polygon class="cls-16" points="679.43 504.31 661.2 505.09 658.46 502.75 679.43 502.75 679.43 504.31"/><polygon class="cls-16" points="692.2 490.28 690.38 488.72 679.43 502.75 679.43 504.31 692.2 490.28"/><polygon class="cls-16" points="714.09 480.14 692.2 490.28 690.38 488.72 714.09 476.48 720.54 473.47 736.88 466.88 731.08 470.19 727.76 473.12 714.09 480.14"/><polygon class="cls-16" points="755.12 457.53 736.88 466.88 755.12 450.51 767.89 464.54 755.12 457.53"/><polygon class="cls-16" points="767.89 467.66 787.04 458.31 783.39 456.75 767.89 464.54 767.89 467.66"/><polygon class="cls-16" points="805.27 459.09 787.04 459.09 783.39 456.75 803.45 455.19 805.27 459.09"/><polygon class="cls-16" points="823.51 447.39 805.27 459.09 803.45 455.19 823.51 443.49 823.51 447.39"/><polygon class="cls-16" points="848.13 462.2 823.51 446.61 823.51 443.49 849.96 457.53 848.13 462.2"/><polygon class="cls-16" points="886.43 459.09 883.71 459.09 874.58 459.09 848.13 462.2 849.96 457.53 873.67 455.19 886.43 455.19 908.32 466.88 886.43 459.09"/><polygon class="cls-16" points="956.65 470 908.32 466.88 955.74 466.88 968.27 463.06 966.68 467.66 956.65 470"/><polygon class="cls-16" points="988.56 470 966.68 467.66 968.5 462.99 974.79 462.2 988.56 462.99 988.56 470"/><polygon class="cls-16" points="1011.36 460.65 988.56 470 988.56 462.99 1012.94 457.56 1011.36 460.65"/><polygon class="cls-16" points="1025.95 460.65 1011.36 460.65 1013.18 457.53 1024.13 455.19 1046.01 455.19 1025.95 460.65"/><polygon class="cls-16" points="1054.22 445.83 1046.01 455.19 1046.01 439.59 1058.78 439.59 1052.4 443.49 1054.22 445.83"/><polygon class="cls-16" points="1061.52 443.49 1101.64 436.47 1108.15 422 1110.76 416.2 1100.73 432.57 1058.78 439.59 1061.52 443.49"/><polygon class="cls-11" points="283.78 354.47 301 367.29 309.47 373.59 323.8 385.01 334.52 395.8 339.3 400.61 339.3 397.53 321.06 379.55 283.78 354.47"/><polygon class="cls-11" points="367.57 398.26 339.3 397.49 339.3 400.61 367.57 400.61 401.31 407.62 424.1 407.62 424.1 406.06 402.22 406.06 367.57 398.26"/><polygon class="cls-11" points="453.28 424 454.19 421.66 424.1 406.06 424.1 407.62 453.28 424"/><polygon class="cls-11" points="492.5 424 454.19 421.66 453.28 424 492.5 424"/><polygon class="cls-11" points="494.32 421.66 512.56 441.15 536.27 449.73 536.27 452.07 512.56 444.27 492.5 424 494.32 421.66"/><polygon class="cls-11" points="548.12 466.88 539.91 451.29 536.27 449.73 536.27 452.07 545.38 470.78 573.65 470.78 561.8 468.44 554.5 469.22 548.12 466.88"/><polygon class="cls-11" points="589.15 494.95 573.65 470.78 590.98 492.62 644.78 492.62 654.81 498.07 658.46 502.75 648.88 497.29 635.5 494.85 589.15 494.95"/><polygon class="cls-11" points="676.7 499.63 658.46 502.75 676.7 502.75 679.43 502.75 690.38 488.72 736.88 466.88 733.15 466.88 730.5 466.88 694.02 484.04 685.82 490.28 676.7 499.63"/><polygon class="cls-11" points="738.71 458.31 733.23 466.88 736.88 466.88 755.12 450.51 738.71 458.31"/><polygon class="cls-11" points="768.8 460.65 767.89 464.54 755.12 450.51 757.86 450.51 768.8 460.65"/><polygon class="cls-11" points="783.39 455.19 768.8 460.65 767.89 464.54 783.39 456.75 783.39 455.19"/><polygon class="cls-11" points="803.45 452.85 783.39 455.19 783.39 456.75 803.45 455.19 803.45 452.85"/><polygon class="cls-11" points="823.51 441.15 803.45 452.85 803.45 455.19 823.51 443.49 823.51 441.15"/><polygon class="cls-11" points="849.96 457.53 849.96 455.19 825.34 442.71 823.51 441.15 823.51 443.49 849.96 457.53"/><polygon class="cls-11" points="872.75 452.85 849.96 455.19 849.96 457.53 873.67 454.41 886.43 454.41 887.34 452.85 872.75 452.85"/><polygon class="cls-11" points="908.04 466 906.33 465.14 884.98 454.41 887.34 452.85 908.32 464.54 913.79 465.32 922.91 465.32 930.2 465.32 938.24 465.32 941.15 465.32 951.18 464.54 955.74 464.54 955.74 466.1 941.63 466.53 934.42 466.53 926.33 466.53 912.25 466.83 908.04 466"/><polygon class="cls-11" points="974.89 462.2 974.89 464.54 955.74 466.1 955.74 464.54 968.5 462.99 974.89 462.2"/><polygon class="cls-11" points="987.43 463.61 985.79 462.2 974.89 462.2 974.89 464.54 987.43 463.61"/><polygon class="cls-11" points="1024.13 453.63 987.65 461.43 985.83 462.2 987.65 463.76 1013.18 457.53 1024.13 455.19 1024.13 453.63"/><polygon class="cls-11" points="1046.1 454.08 1024.13 455.19 1024.13 453.63 1046.1 454.08"/><polygon class="cls-11" points="1044.19 439.59 1044.19 454.04 1046.01 454.41 1046.01 439.59 1048.7 439.59 1058.78 439.59 1058.78 437.25 1044.19 439.59"/><polygon class="cls-11" points="1071.15 437.52 1058.78 439.59 1058.78 437.25 1077.02 435.69 1071.15 437.52"/><polygon class="cls-14" points="840.63 594.81 794.67 603.34 764.33 603.17 758.16 591.41 725.94 594.09 749.67 594.47 758.47 604.84 775.68 605.59 789.41 606.13 826.04 599.05 840.63 594.81"/><polygon class="cls-14" points="729.83 666.04 717.46 648.28 738.58 626.97 770.57 620.86 806.77 617.66 755.96 634.44 735.69 649.14 729.83 666.04"/><polygon class="cls-14" points="767.89 630.5 755.12 647.01 749.65 676.64 729.59 665.72 729.59 645.76 758.77 630.63 767.89 630.5"/><polygon class="cls-14" points="767.89 630.63 748.74 676.64 755.12 647.01 767.89 630.63"/><polygon class="cls-14" points="793.54 622.23 764.5 638.3 767.88 630.51 793.54 622.23"/><polygon class="cls-14" points="459.67 502.75 424.1 558.89 424.1 548.76 430.49 530.82 459.67 502.75"/><polygon class="cls-14" points="840.84 505.09 878.23 522.25 878.23 539.4 859.08 522.25 813.48 505.09 840.84 505.09"/><polygon class="cls-14" points="1086.74 517.26 1060.12 500.55 1035.07 484.82 1046.01 484.82 1084.31 509.77 1086.74 517.26"/><path class="cls-19" d="M389.45,443.49c11,0,6.41,26.13,6.41,26.13v31.57Z"/><polygon class="cls-15" points="704.75 568.25 813.48 504.01 769.99 488.72 723.39 497.89 691.29 534.6 704.75 568.25"/><polygon class="cls-15" points="559.06 484.04 582.77 622.05 545.38 616.6 545.38 470.78 559.06 484.04"/><polygon class="cls-15" points="619.25 653.25 615.6 665.72 630.19 692.23 652.08 707.83 652.08 689.89 619.25 653.25"/><polygon class="cls-15" points="725.94 591.64 748.74 591.64 758.77 630.63 690.38 590.87 725.94 591.64"/><polygon class="cls-15" points="849.96 457.53 894.64 517.57 920.17 478.58 849.96 457.53"/><polygon class="cls-15" points="955.74 484.82 920.17 478.58 894.64 517.57 938.41 522.25 955.74 484.82"/><polygon class="cls-15" points="1028.69 473.12 987.65 463.76 974.89 499.63 1028.69 473.12"/><polygon class="cls-15" points="340.35 476.75 315.73 435.03 335.8 397.21 340.35 476.75"/><polygon class="cls-15" points="339.3 470 358.45 505.09 396.75 539.4 396.75 517.57 339.3 470"/><polygon class="cls-15" points="430.49 579.95 485.2 606.46 492.5 593.2 424.1 558.89 430.49 579.95"/><polygon class="cls-15" points="433.22 445.83 411.34 526.14 492.5 466.1 433.22 445.83"/><polygon class="cls-15" points="478.82 509.77 528.06 562.79 492.5 582.29 478.82 509.77"/><polygon class="cls-15" points="589.15 494.95 619.25 630.63 679.43 698.47 685.82 680.54 643.87 545.64 589.15 494.95"/><polygon class="cls-15" points="1035.07 509.77 1046.01 545.64 1077.02 555 1035.07 509.77"/><polygon class="cls-13" points="697.67 565.91 796.05 528.48 805.27 549.48 799.13 579.61 760.39 584.63 697.67 565.91"/><polygon class="cls-13" points="932.03 490.28 988.56 470 960.3 517.57 932.03 490.28"/><polygon class="cls-13" points="349.33 429.46 396.75 407.62 373.04 467.66 358.28 490.28 349.33 429.46"/><polygon class="cls-13" points="453.28 539.4 485.57 539.4 492.5 582.29 453.28 539.4"/><polygon class="cls-13" points="589.15 494.95 569.42 532.38 582.77 622.05 615.6 638.43 589.15 494.95"/><polygon class="cls-13" points="528.06 473.12 528.06 511.17 534.44 578.39 545.38 616.6 544.47 502.95 528.06 473.12"/><polygon class="cls-13" points="833.54 494.95 901.02 526.14 878.23 522.25 840.84 505.09 813.48 503.53 833.54 494.95"/><polygon class="cls-13" points="1046.01 484.82 1056.04 478.58 1084.31 509.77 1046.01 484.82"/><polygon class="cls-13" points="458.3 510.55 445.99 539.4 424.1 558.89 458.3 510.55"/><polygon class="cls-14" points="559.06 478.58 569.42 539.39 569.09 558.89 582.77 622.05 585.51 632.97 592.8 622.05 571.83 517.57 559.06 478.58"/><polygon class="cls-14" points="672.14 582.29 691.29 534.72 724.12 498.07 768.8 488.72 672.14 582.29"/><polygon class="cls-14" points="439.15 446.61 417.07 505.09 411.34 526.14 411.34 501.19 439.15 446.61"/><polygon class="cls-14" points="315.73 431.64 340.35 473.75 320.29 463.61 315.73 431.64"/><polygon class="cls-14" points="490.4 522.25 521.54 555.78 521.67 544.86 484.29 501.19 490.4 522.25"/><polygon class="cls-14" points="1017.61 478.58 974.89 499.63 1004.98 498.07 1017.61 478.58"/><polygon class="cls-14" points="661.2 617.38 679.43 660.01 685.82 680.54 701.32 676.64 685.82 649.35 679.43 622.05 669.4 591.64 669.4 606.46 679.43 641.85 661.2 617.38"/><polygon class="cls-15" points="425.01 641.55 414.07 658.7 432.31 665.72 457.84 653.25 425.01 641.55"/><polygon class="cls-15" points="411.34 670.4 414.07 658.7 432.31 665.72 435.96 688.33 411.34 688.33 411.34 670.4"/><polygon class="cls-14" points="471.52 680.54 456.71 653.25 432.31 665.72 435.8 688.33 471.52 680.54"/><polygon class="cls-13" points="457.84 653.25 414.07 658.7 432.31 665.72 457.84 653.25"/><path class="cls-17" d="M1025,600.42l-3.35-7.93-53.8-3.92L925,603.13l6.38,12.32,21.89,12.88,57.44-5.6,13.12-11.44c0-.15.07-.28.1-.42C1024.17,607.36,1024.54,603.88,1025,600.42Z"/><polygon class="cls-17" points="988.86 672 953.3 628.33 1010.75 620.54 988.86 672"/><path class="cls-14" d="M1012.57,628.33l-26.85,41.48a2.68,2.68,0,0,1,.28.3l37.51-41.78V599.48Z"/><path class="cls-15" d="M1006.19,620.54l-20.83,49a3.65,3.65,0,0,1,.36.31l26.85-41.48,10.94-28.85Z"/><polygon class="cls-15" points="928.72 603.17 925.03 605.72 925.03 611.18 925.03 623.65 940.53 633.01 953.3 646.27 988.86 672 953.3 628.33 928.72 603.17"/><path class="cls-20" d="M1025.12,599.82,931.41,610.4,982,623.66l42.91-22.53C1025,600.69,1025.06,600.25,1025.12,599.82Z"/><line class="cls-13" x1="987.95" y1="620.54" x2="1021.69" y2="602.6"/><path class="cls-15" d="M1024.93,601.15l-42.45,22.51L988.86,672l35.46-65.57C1024.49,604.66,1024.69,602.9,1024.93,601.15Z"/><polygon class="cls-17" points="1160 346.57 1165 369 1120 436 1111 416 1125 405 1132.59 387.15 1160 346.57"/><path class="cls-21" d="M1073.09,301.46a3.13,3.13,0,0,0-3.48-1.36,5.05,5.05,0,0,0-3.46,2.8,5.74,5.74,0,0,0-.1,4.42,1.33,1.33,0,0,0,.82.93,13,13,0,0,1,3.26-6.15,3.36,3.36,0,0,1,.9-.73c1.94-1,2.33.75,2.71,2,.29,1,.56,2,.88,3l.93,2.88.56,2.53,1.86,4.51,1.49,4.16,3.34,9L1085,336l3.35,8.48,4.09,9.39-1.49,2v3.07l.74,1.45.75.72,1.3.54H1104l6-.36.74-.54.56-.73.37-.72v-.9l-.56-2-1.11-1.44-1.3-1.08-2.05-.9-2.6-.55-2-.72-2.42-.36-3.35-2.71-5.2-5.77-3.16-7.58-1.86-4.52-2-5.59-1.49-4.15-1.86-4-2.42-5.78-1.11-2.35-.93-3.06-.93-2.35-.37-2.53v-1.08h-1.67l.23,1.69"/><polygon class="cls-22" points="1073.14 299.91 1073.14 303.88 1071.28 303.88 1072.21 305.5 1073.14 309.11 1071.28 309.11 1073.14 311.64 1071.28 316.88 1069.61 315.07 1069.61 318.32 1067.56 320.67 1065.52 318.5 1064.03 315.97 1064.03 313.45 1065.52 310.38 1068.12 306.59 1069.98 303.88 1073.14 299.91"/><polygon class="cls-22" points="1075.18 299.91 1069.23 299.91 1064.77 302.07 1059.2 305.5 1055.85 308.03 1052.13 311.64 1049.53 315.25 1048.23 319.22 1048.23 324.28 1050.83 322.65 1054.18 316.88 1055.48 318.5 1059.94 314.17 1060.5 312.18 1061.8 312.54 1062.17 310.74 1063.84 311.1 1069.61 305.32 1075.18 299.91"/><polygon class="cls-22" points="1074.81 299.91 1083.17 299.91 1089.12 300.63 1085.22 301.35 1090.61 304.42 1088.93 304.96 1095.38 310.09 1099.16 313.08 1104.17 317.78 1104.17 320.67 1104.17 323.19 1102.5 326.08 1099.71 329.15 1093.21 323.92 1089.49 320.85 1087.45 322.47 1086.52 315.07 1083.73 313.63 1083.92 311.1 1081.13 310.2 1080.38 305.87 1079.45 302.98 1074.81 299.91"/><polygon class="cls-22" points="1074.62 299.91 1082.24 292.69 1090.61 289.26 1098.79 287.45 1103.25 287.45 1107.52 289.26 1110.31 290.88 1106.03 292.33 1102.87 291.97 1100.64 293.77 1095.07 295.4 1090.61 296.66 1082.62 296.48 1074.62 299.91"/><polygon class="cls-22" points="1069.42 295.04 1063.66 292.87 1057.34 290.34 1050.28 290.34 1047.12 292.69 1046 295.04 1050.83 295.04 1050.83 297.74 1050.83 301.53 1055.29 298.46 1060.68 295.94 1065.33 298.46 1068.49 299.19 1073.69 299.19 1075.92 301.53 1069.42 295.04"/><polygon class="cls-22" points="1073.25 300.84 1076.38 296.11 1078.76 295.72 1078.36 293.41 1082.58 292.71 1083.33 290.57 1089.25 286.67 1090.89 284.2 1095.42 285.29 1099.39 284.27 1097.31 283.15 1095.35 281.64 1091.46 279.9 1088.41 279.67 1085.08 281.13 1082.37 283.96 1076.16 293.77 1073.25 300.84"/><polygon class="cls-22" points="1074.25 300.09 1067.93 290.7 1064.4 287.81 1066.44 287.81 1062.36 286.19 1060.5 286.19 1060.5 284.57 1062.54 282.58 1059.94 280.23 1058.08 280.23 1055.11 276.81 1053.81 275 1057.15 275 1059.94 275 1062.91 278.61 1067.75 283.84 1070.91 289.8 1072.21 291.61 1074.25 300.09"/><path class="cls-23" d="M1078.41,312a1.61,1.61,0,0,1,.23.43.22.22,0,0,1,0,.14.2.2,0,0,1-.08.1,2.89,2.89,0,0,1-1.39.71.46.46,0,0,1-.26,0c-.13,0-.31-.26-.25-.43s.39-.18.52-.23A3.6,3.6,0,0,0,1078.41,312Z"/><path class="cls-23" d="M1079.52,314.89a1.49,1.49,0,0,1,.24.43.22.22,0,0,1,0,.14.23.23,0,0,1-.07.1,3,3,0,0,1-1.39.71.62.62,0,0,1-.27,0,.42.42,0,0,1-.25-.44c0-.16.4-.17.53-.22A3.83,3.83,0,0,0,1079.52,314.89Z"/><path class="cls-23" d="M1080.64,317.42a1.32,1.32,0,0,1,.23.42.24.24,0,0,1,0,.14.23.23,0,0,1-.08.11,2.94,2.94,0,0,1-1.39.71.46.46,0,0,1-.26,0,.41.41,0,0,1-.25-.43c0-.17.39-.18.53-.23A3.62,3.62,0,0,0,1080.64,317.42Z"/><path class="cls-23" d="M1081.94,320.12a2.15,2.15,0,0,1,.28.49.29.29,0,0,1,0,.16.33.33,0,0,1-.09.11,3.72,3.72,0,0,1-1.69.8.58.58,0,0,1-.32,0,.47.47,0,0,1-.3-.49c.06-.19.48-.2.64-.25A4.63,4.63,0,0,0,1081.94,320.12Z"/><path class="cls-23" d="M1083.3,323.83a1.27,1.27,0,0,1,.24.42.29.29,0,0,1,0,.13.31.31,0,0,1-.11.08,4.12,4.12,0,0,1-1.74.45.85.85,0,0,1-.32,0c-.15-.06-.34-.28-.26-.43s.49-.1.66-.13A4.61,4.61,0,0,0,1083.3,323.83Z"/><path class="cls-23" d="M1084.21,326.36a1.49,1.49,0,0,1,.26.41.19.19,0,0,1,0,.13.2.2,0,0,1-.1.08,4.94,4.94,0,0,1-1.88.45,1,1,0,0,1-.34,0c-.17-.05-.37-.27-.29-.42s.53-.1.71-.13A5.56,5.56,0,0,0,1084.21,326.36Z"/><path class="cls-23" d="M1085.64,330.2a1.41,1.41,0,0,1,.25.4.15.15,0,0,1,0,.13.31.31,0,0,1-.11.08,4.82,4.82,0,0,1-1.83.43,1,1,0,0,1-.34,0c-.16-.05-.36-.26-.27-.41s.52-.1.69-.12A5.69,5.69,0,0,0,1085.64,330.2Z"/><path class="cls-23" d="M1087.38,334.54a1.93,1.93,0,0,1,.23.55.33.33,0,0,1,0,.17.25.25,0,0,1-.11.12,3.74,3.74,0,0,1-1.82.67.69.69,0,0,1-.32,0,.51.51,0,0,1-.25-.57c.08-.19.51-.16.68-.2A4.65,4.65,0,0,0,1087.38,334.54Z"/><path class="cls-23" d="M1089.69,339.58a2,2,0,0,1,.26.63.38.38,0,0,1,0,.21.25.25,0,0,1-.12.13,4.3,4.3,0,0,1-2.08.79.78.78,0,0,1-.37,0,.59.59,0,0,1-.29-.65c.1-.23.59-.19.79-.24A5.23,5.23,0,0,0,1089.69,339.58Z"/><path class="cls-23" d="M1092.72,345.27a2.3,2.3,0,0,1,.52.56.36.36,0,0,1,.06.2.43.43,0,0,1-.13.17,7,7,0,0,1-2.58,1.32,1.51,1.51,0,0,1-.52.06c-.25,0-.63-.31-.56-.57s.74-.34,1-.44A8.05,8.05,0,0,0,1092.72,345.27Z"/><path class="cls-23" d="M1096.36,348.83a3.16,3.16,0,0,1,.92.73.41.41,0,0,1,.13.29.54.54,0,0,1-.16.27,10.78,10.78,0,0,1-3.71,2.51,2.37,2.37,0,0,1-.77.2c-.41,0-1-.33-1-.73s1.06-.67,1.43-.86A12.55,12.55,0,0,0,1096.36,348.83Z"/><path class="cls-21" d="M1091.78,355.18c-.8.68-1.73,1.41-1.73,1.41l-1.49,2.52-2.23,2.53,1.12.36,3.16-.36h3.16l20.81-.54H1117l-1.3-1.45-.56-1.08-1.3-1.62-2.79-.55-1.11-1.26Z"/><path class="cls-21" d="M1051.47,346.76a3.19,3.19,0,0,0-3.53-1.37,5.1,5.1,0,0,0-3.51,2.83,5.86,5.86,0,0,0-.1,4.47,1.34,1.34,0,0,0,.83.94,13.23,13.23,0,0,1,3.31-6.22,3.44,3.44,0,0,1,.91-.74c2-1,2.37.76,2.75,2.06.3,1,.57,2,.9,3l.94,2.92.56,2.55,1.89,4.57,1.51,4.2,3.39,9.13,2.26,6.57,3.39,8.58,4.15,9.49-1.51,2v3.11l.76,1.46.75.73,1.32.54h10.37l6-.36.75-.55.57-.73.37-.73v-.91l-.56-2-1.13-1.46-1.32-1.1-2.07-.91-2.64-.55-2.08-.73-2.45-.36-3.39-2.74-5.28-5.84-3.2-7.67-1.89-4.57-2.07-5.65-1.51-4.2-1.88-4-2.45-5.84-1.13-2.38-1-3.1-.94-2.37-.38-2.56V345.2h-1.69l.23,1.71"/><polygon class="cls-22" points="1051.52 345.19 1051.52 349.21 1049.63 349.21 1050.58 350.86 1051.52 354.51 1049.63 354.51 1051.52 357.06 1049.63 362.36 1047.94 360.53 1047.94 363.82 1045.86 366.19 1043.79 364 1042.28 361.44 1042.28 358.89 1043.79 355.78 1046.43 351.95 1048.31 349.21 1051.52 345.19"/><polygon class="cls-22" points="1053.59 345.19 1047.56 345.19 1043.04 347.39 1037.38 350.86 1033.99 353.41 1030.22 357.06 1027.58 360.71 1026.26 364.73 1026.26 369.84 1028.9 368.2 1032.29 362.36 1033.61 364 1038.14 359.62 1038.7 357.61 1040.02 357.98 1040.4 356.15 1042.09 356.51 1047.94 350.67 1053.59 345.19"/><polygon class="cls-22" points="1053.21 345.19 1061.7 345.19 1067.73 345.93 1063.77 346.66 1069.24 349.76 1067.54 350.31 1074.08 355.49 1077.91 358.52 1082.99 363.27 1082.99 366.19 1082.99 368.75 1081.3 371.67 1078.47 374.77 1071.87 369.48 1068.11 366.37 1066.03 368.02 1065.09 360.53 1062.26 359.07 1062.45 356.51 1059.62 355.6 1058.87 351.22 1057.93 348.3 1053.21 345.19"/><polygon class="cls-22" points="1053.03 345.19 1060.75 337.89 1069.24 334.42 1077.53 332.6 1082.05 332.6 1086.39 334.42 1089.21 336.07 1084.88 337.53 1081.67 337.16 1079.41 338.99 1073.76 340.63 1069.24 341.91 1061.13 341.73 1053.03 345.19"/><polygon class="cls-22" points="1047.75 340.27 1041.91 338.07 1035.5 335.52 1028.34 335.52 1025.13 337.89 1024 340.27 1028.9 340.27 1028.9 343 1028.9 346.84 1033.42 343.73 1038.89 341.18 1043.6 343.73 1046.81 344.46 1052.08 344.46 1054.35 346.84 1047.75 340.27"/><polygon class="cls-22" points="1051.63 346.13 1054.81 341.35 1057.23 340.96 1056.82 338.62 1061.09 337.92 1061.86 335.75 1067.86 331.81 1069.53 329.31 1074.12 330.41 1078.14 329.38 1076.03 328.24 1074.04 326.72 1070.1 324.96 1067 324.72 1063.63 326.2 1060.88 329.06 1054.59 338.98 1051.63 346.13"/><polygon class="cls-22" points="1052.65 345.38 1046.24 335.88 1042.66 332.96 1044.73 332.96 1040.59 331.32 1038.7 331.32 1038.7 329.68 1040.78 327.67 1038.14 325.3 1036.25 325.3 1033.24 321.83 1031.92 320 1035.31 320 1038.14 320 1041.15 323.65 1046.05 328.95 1049.26 334.97 1050.58 336.8 1052.65 345.38"/><path class="cls-23" d="M1056.87,357.43a1.76,1.76,0,0,1,.23.43.22.22,0,0,1,0,.14.23.23,0,0,1-.08.11,3.17,3.17,0,0,1-1.41.72.61.61,0,0,1-.27,0,.42.42,0,0,1-.25-.44c.05-.17.4-.18.53-.23A3.61,3.61,0,0,0,1056.87,357.43Z"/><path class="cls-23" d="M1058,360.35a1.47,1.47,0,0,1,.23.43.23.23,0,0,1,0,.14.23.23,0,0,1-.08.11,3.17,3.17,0,0,1-1.41.72.46.46,0,0,1-.26,0,.41.41,0,0,1-.26-.44c0-.16.4-.18.54-.23A3.67,3.67,0,0,0,1058,360.35Z"/><path class="cls-23" d="M1059.13,362.9a1.42,1.42,0,0,1,.23.44.22.22,0,0,1,0,.14.16.16,0,0,1-.08.1,3,3,0,0,1-1.41.72.57.57,0,0,1-.26,0,.43.43,0,0,1-.26-.44c.05-.17.4-.18.54-.23A3.77,3.77,0,0,0,1059.13,362.9Z"/><path class="cls-23" d="M1060.44,365.64a1.86,1.86,0,0,1,.29.49.3.3,0,0,1,0,.16.38.38,0,0,1-.09.12,3.92,3.92,0,0,1-1.71.81.74.74,0,0,1-.33,0c-.15-.05-.37-.3-.3-.5s.48-.2.64-.26A4.34,4.34,0,0,0,1060.44,365.64Z"/><path class="cls-23" d="M1061.83,369.4a1.3,1.3,0,0,1,.24.41.19.19,0,0,1,0,.13s-.06.07-.1.09a4.42,4.42,0,0,1-1.77.46,1.12,1.12,0,0,1-.32,0c-.16,0-.35-.28-.27-.43s.5-.11.67-.13A5.41,5.41,0,0,0,1061.83,369.4Z"/><path class="cls-23" d="M1062.75,372a1.54,1.54,0,0,1,.26.42.2.2,0,0,1,0,.13.23.23,0,0,1-.11.08,4.91,4.91,0,0,1-1.91.45,1.31,1.31,0,0,1-.34,0c-.17-.06-.38-.28-.29-.43s.54-.11.72-.13A5.79,5.79,0,0,0,1062.75,372Z"/><path class="cls-23" d="M1064.2,375.83a1.26,1.26,0,0,1,.25.41.15.15,0,0,1,0,.13.24.24,0,0,1-.11.08,4.79,4.79,0,0,1-1.86.43.79.79,0,0,1-.34,0c-.16-.05-.36-.27-.28-.42s.53-.1.71-.12A5.52,5.52,0,0,0,1064.2,375.83Z"/><path class="cls-23" d="M1066,380.22a1.62,1.62,0,0,1,.23.56.25.25,0,0,1,0,.17.26.26,0,0,1-.11.12,3.92,3.92,0,0,1-1.85.69.73.73,0,0,1-.33,0,.51.51,0,0,1-.25-.57c.08-.2.52-.17.69-.21A4.51,4.51,0,0,0,1066,380.22Z"/><path class="cls-23" d="M1068.31,385.32a2.26,2.26,0,0,1,.26.64.38.38,0,0,1,0,.21.25.25,0,0,1-.12.13,4.35,4.35,0,0,1-2.11.8.7.7,0,0,1-.38,0,.59.59,0,0,1-.29-.66c.1-.22.6-.19.8-.24A5.21,5.21,0,0,0,1068.31,385.32Z"/><path class="cls-23" d="M1071.37,391.08a1.91,1.91,0,0,1,.53.57.25.25,0,0,1,.06.2.3.3,0,0,1-.13.17,7,7,0,0,1-2.62,1.33,1.49,1.49,0,0,1-.51.06c-.27,0-.65-.31-.57-.57s.74-.35,1-.45A8.19,8.19,0,0,0,1071.37,391.08Z"/><path class="cls-23" d="M1075.07,394.68a3.07,3.07,0,0,1,.93.74.38.38,0,0,1,.14.29.5.5,0,0,1-.17.27,11,11,0,0,1-3.76,2.54,2.14,2.14,0,0,1-.78.2c-.41,0-1.06-.33-1-.74s1.08-.67,1.45-.87A12.47,12.47,0,0,0,1075.07,394.68Z"/><path class="cls-21" d="M1070.43,401.11c-.82.68-1.76,1.41-1.76,1.41l-1.51,2.56-2.26,2.55,1.13.37,3.21-.37h3.2l21.11-.54H1096l-1.32-1.46-.56-1.1-1.32-1.64-2.83-.55-1.13-1.28Z"/><rect class="cls-24" x="573.21" y="303.68" width="243.16" height="102.04"/><polygon class="cls-25" points="695.85 196.28 695.85 216.03 696.47 216.03 696.48 196.28 695.85 196.28"/><path class="cls-26" d="M696.44,203a1.43,1.43,0,0,1,.48-.83c1.05-1,2.54-.72,3.81-.28s2.62,1,3.88.52l-.73-6.38a3.88,3.88,0,0,1-2.88.9,15.36,15.36,0,0,0-3-.05,2,2,0,0,0-1.7,1.39"/><polygon class="cls-27" points="573.21 303.94 590.1 280.91 835.79 280.91 816.37 303.94 573.21 303.94"/><polygon class="cls-24" points="696.08 209.67 663.34 304.48 727.93 304.48 696.08 209.67"/><rect class="cls-25" x="664.82" y="306.35" width="59.95" height="99.16"/><rect class="cls-26" x="664.82" y="303.94" width="59.95" height="2.56"/><rect class="cls-26" x="620.7" y="303.94" width="42" height="2.68"/><rect class="cls-26" x="573" y="303.94" width="42" height="2.68"/><rect class="cls-26" x="727.51" y="303.94" width="42" height="2.68"/><rect class="cls-26" x="774.36" y="303.94" width="42" height="2.68"/><path class="cls-28" d="M711.39,283.52c-.8-5.65-2.21-11.34-5.13-15.73s-7.59-7.23-12-6c-3.68,1-6.61,4.61-8.67,8.61s-3.49,9-2.82,13.72C692.26,283.6,701.88,283.11,711.39,283.52Z"/><polygon class="cls-27" points="816.37 405.72 835.79 382.69 835.79 280.91 816.37 303.94 816.37 405.72"/><polygon class="cls-24" points="662.71 306.62 662.4 405.51 664.82 405.72 664.82 303.94 662.71 303.94 662.71 306.62"/><polygon class="cls-24" points="724.76 303.41 727.51 303.94 727.51 405.51 724.76 405.72 724.76 303.41"/><rect class="cls-25" x="576.59" y="314.66" width="32.51" height="28.39"/><rect class="cls-29" x="574.9" y="343.05" width="36.73" height="3.75"/><rect class="cls-26" x="576.59" y="341.09" width="32.51" height="1.96"/><rect class="cls-28" x="577.43" y="315.73" width="30.82" height="24.1"/><line class="cls-28" x1="577.64" y1="327.51" x2="608.46" y2="327.51"/><line class="cls-25" x1="592.63" y1="315.73" x2="592.63" y2="339.83"/><rect class="cls-25" x="623.45" y="315.19" width="32.51" height="28.39"/><rect class="cls-29" x="621.76" y="343.58" width="36.73" height="3.75"/><rect class="cls-26" x="623.45" y="341.62" width="32.51" height="1.96"/><rect class="cls-28" x="624.29" y="316.26" width="30.82" height="24.1"/><line class="cls-25" x1="624.5" y1="328.05" x2="655.32" y2="328.05"/><line class="cls-25" x1="639.49" y1="316.26" x2="639.49" y2="340.37"/><rect class="cls-25" x="576.59" y="365.54" width="32.51" height="28.39"/><rect class="cls-29" x="574.9" y="393.93" width="36.73" height="3.75"/><rect class="cls-26" x="576.59" y="391.98" width="32.51" height="1.96"/><rect class="cls-28" x="577.43" y="366.62" width="30.82" height="24.1"/><line class="cls-25" x1="577.64" y1="378.4" x2="608.46" y2="378.4"/><line class="cls-25" x1="592.63" y1="366.62" x2="592.63" y2="390.72"/><rect class="cls-25" x="623.45" y="365.54" width="32.51" height="28.39"/><rect class="cls-29" x="621.76" y="393.93" width="36.73" height="3.75"/><rect class="cls-26" x="623.45" y="391.98" width="32.51" height="1.96"/><rect class="cls-28" x="624.29" y="366.62" width="30.82" height="24.1"/><line class="cls-25" x1="624.5" y1="378.4" x2="655.32" y2="378.4"/><line class="cls-25" x1="639.49" y1="366.62" x2="639.49" y2="390.72"/><rect class="cls-25" x="778.38" y="316.26" width="32.51" height="28.39"/><rect class="cls-29" x="776.69" y="344.65" width="36.73" height="3.75"/><rect class="cls-26" x="778.38" y="342.7" width="32.51" height="1.96"/><rect class="cls-28" x="779.22" y="317.34" width="30.82" height="24.1"/><line class="cls-25" x1="779.43" y1="329.12" x2="810.25" y2="329.12"/><line class="cls-25" x1="794.42" y1="317.34" x2="794.42" y2="341.44"/><rect class="cls-25" x="736.16" y="316.26" width="32.51" height="28.39"/><rect class="cls-29" x="734.47" y="344.65" width="36.73" height="3.75"/><rect class="cls-26" x="736.16" y="342.7" width="32.51" height="1.96"/><rect class="cls-28" x="737" y="317.34" width="30.82" height="24.1"/><line class="cls-25" x1="737.22" y1="329.12" x2="768.03" y2="329.12"/><line class="cls-25" x1="752.2" y1="317.34" x2="752.2" y2="341.44"/><rect class="cls-25" x="737.85" y="363.4" width="32.51" height="28.39"/><rect class="cls-29" x="736.16" y="391.79" width="36.73" height="3.75"/><rect class="cls-26" x="737.85" y="389.83" width="32.51" height="1.96"/><rect class="cls-28" x="738.69" y="364.47" width="30.82" height="24.1"/><line class="cls-25" x1="738.9" y1="376.26" x2="769.72" y2="376.26"/><line class="cls-29" x1="753.89" y1="364.47" x2="753.89" y2="388.58"/><rect class="cls-25" x="778.8" y="363.4" width="32.51" height="28.39"/><rect class="cls-26" x="778.8" y="389.83" width="32.51" height="1.96"/><rect class="cls-28" x="779.64" y="364.47" width="30.82" height="24.1"/><line class="cls-25" x1="779.85" y1="376.26" x2="810.67" y2="376.26"/><line class="cls-25" x1="794.84" y1="364.47" x2="794.84" y2="388.58"/><polygon class="cls-29" points="573.21 405.72 573.21 414.82 816.37 416.41 816.37 405.72 573.21 405.72"/><polygon class="cls-26" points="573.21 414.82 573.21 430.36 816.37 430.36 816.37 416.43 573.21 414.82"/><polygon class="cls-25" points="681.75 350.28 681.75 405.51 712.21 405.51 712.21 350.32 681.75 350.28"/><polygon class="cls-25" points="696.9 377.86 696.9 350.3 712.1 350.55 712.1 405.72 696.98 405.51 696.9 377.86"/><rect class="cls-28" x="683.81" y="357.51" width="10.98" height="19.28"/><rect class="cls-28" x="699.01" y="357.51" width="10.98" height="19.28"/><rect class="cls-25" x="680.44" y="315.73" width="32.51" height="28.39"/><rect class="cls-29" x="678.75" y="344.12" width="36.73" height="3.75"/><rect class="cls-26" x="680.44" y="342.16" width="32.51" height="1.96"/><rect class="cls-28" x="681.28" y="316.8" width="30.82" height="24.1"/><line class="cls-25" x1="681.49" y1="328.58" x2="712.31" y2="328.58"/><line class="cls-25" x1="696.48" y1="316.8" x2="696.48" y2="340.9"/><polygon class="cls-26" points="816.37 430.36 835.79 411.07 835.79 382.69 816.37 405.72 816.37 430.36"/><polygon class="cls-27" points="816.37 416.41 835.79 395.54 835.79 382.69 816.37 405.72 816.37 416.41"/><path class="cls-30" d="M694.31,382a2.79,2.79,0,0,0-.74,2.35c.18.86,1.06,1.46,1.63.94a1.71,1.71,0,0,0,.47-.88,2.77,2.77,0,0,0-.11-2,.89.89,0,0,0-1.41-.35"/><path class="cls-30" d="M698.53,382a2.79,2.79,0,0,0-.74,2.35c.18.86,1.06,1.46,1.64.94a1.77,1.77,0,0,0,.46-.88,2.77,2.77,0,0,0-.11-2,.89.89,0,0,0-1.41-.35"/><rect class="cls-26" x="665.03" y="410.81" width="59.95" height="19.82"/><rect class="cls-24" x="664.82" y="414.82" width="59.95" height="5.36"/><rect class="cls-24" x="664.82" y="425.54" width="59.95" height="4.82"/><rect class="cls-29" x="660.17" y="402.5" width="8.02" height="30"/><rect class="cls-29" x="720.96" y="402.5" width="8.02" height="30"/><line class="cls-25" x1="684.9" y1="272.81" x2="709.23" y2="272.81"/><line class="cls-25" x1="696.9" y1="261.9" x2="696.9" y2="283.86"/><polygon class="cls-29" points="695.63 209.13 734.47 280.91 727.72 303.94 695.63 209.13"/><polygon class="cls-31" points="579.75 321.89 581.44 320.82 583.55 319.75 585.66 319.21 584.82 321.89 583.55 324.57 583.13 326.17 585.66 325.1 588.2 324.03 588.2 322.42 586.51 324.03 584.82 324.57 585.66 321.89 586.51 319.21 586.51 318.14 583.98 318.68 581.87 319.75 580.6 320.28 579.75 321.89"/><polygon class="cls-31" points="596.22 321.35 597.91 320.28 600.02 319.21 602.13 318.68 601.28 321.35 600.02 324.03 599.6 325.64 602.13 324.57 604.66 323.5 604.66 321.89 602.97 323.5 601.28 324.03 602.13 321.35 602.97 318.68 602.97 317.6 600.44 318.14 598.33 319.21 597.06 319.75 596.22 321.35"/><polygon class="cls-31" points="580.18 334.21 581.87 333.14 583.98 332.07 586.09 331.53 585.24 334.21 583.98 336.89 583.55 338.49 586.09 337.42 588.62 336.35 588.62 334.74 586.93 336.35 585.24 336.89 586.09 334.21 586.93 331.53 586.93 330.46 584.4 331 582.29 332.07 581.02 332.6 580.18 334.21"/><polygon class="cls-31" points="596.22 334.21 597.91 333.14 600.02 332.07 602.13 331.53 601.28 334.21 600.02 336.89 599.6 338.49 602.13 337.42 604.66 336.35 604.66 334.74 602.97 336.35 601.28 336.89 602.13 334.21 602.97 331.53 602.97 330.46 600.44 331 598.33 332.07 597.06 332.6 596.22 334.21"/><polygon class="cls-31" points="627.88 322.42 629.57 321.35 631.68 320.28 633.79 319.75 632.95 322.42 631.68 325.1 631.26 326.71 633.79 325.64 636.32 324.57 636.32 322.96 634.63 324.57 632.95 325.1 633.79 322.42 634.63 319.75 634.63 318.68 632.1 319.21 629.99 320.28 628.72 320.82 627.88 322.42"/><polygon class="cls-31" points="644.34 321.89 646.03 320.82 648.14 319.75 650.25 319.21 649.41 321.89 648.14 324.57 647.72 326.17 650.25 325.1 652.79 324.03 652.79 322.42 651.1 324.03 649.41 324.57 650.25 321.89 651.1 319.21 651.1 318.14 648.57 318.68 646.45 319.75 645.19 320.28 644.34 321.89"/><polygon class="cls-31" points="628.3 334.74 629.99 333.67 632.1 332.6 634.21 332.07 633.37 334.74 632.1 337.42 631.68 339.03 634.21 337.96 636.74 336.89 636.74 335.28 635.06 336.89 633.37 337.42 634.21 334.74 635.06 332.07 635.06 331 632.52 331.53 630.41 332.6 629.15 333.14 628.3 334.74"/><polygon class="cls-31" points="644.34 334.74 646.03 333.67 648.14 332.6 650.25 332.07 649.41 334.74 648.14 337.42 647.72 339.03 650.25 337.96 652.79 336.89 652.79 335.28 651.1 336.89 649.41 337.42 650.25 334.74 651.1 332.07 651.1 331 648.57 331.53 646.45 332.6 645.19 333.14 644.34 334.74"/><polygon class="cls-31" points="683.6 322.42 685.29 321.35 687.4 320.28 689.51 319.75 688.67 322.42 687.4 325.1 686.98 326.71 689.51 325.64 692.05 324.57 692.05 322.96 690.36 324.57 688.67 325.1 689.51 322.42 690.36 319.75 690.36 318.68 687.82 319.21 685.71 320.28 684.45 320.82 683.6 322.42"/><polygon class="cls-31" points="700.07 321.89 701.75 320.82 703.87 319.75 705.98 319.21 705.13 321.89 703.87 324.57 703.44 326.17 705.98 325.1 708.51 324.03 708.51 322.42 706.82 324.03 705.13 324.57 705.98 321.89 706.82 319.21 706.82 318.14 704.29 318.68 702.18 319.75 700.91 320.28 700.07 321.89"/><polygon class="cls-31" points="684.02 334.74 685.71 333.67 687.82 332.6 689.93 332.07 689.09 334.74 687.82 337.42 687.4 339.03 689.93 337.96 692.47 336.89 692.47 335.28 690.78 336.89 689.09 337.42 689.93 334.74 690.78 332.07 690.78 331 688.25 331.53 686.14 332.6 684.87 333.14 684.02 334.74"/><polygon class="cls-31" points="700.07 334.74 701.75 333.67 703.87 332.6 705.98 332.07 705.13 334.74 703.87 337.42 703.44 339.03 705.98 337.96 708.51 336.89 708.51 335.28 706.82 336.89 705.13 337.42 705.98 334.74 706.82 332.07 706.82 331 704.29 331.53 702.18 332.6 700.91 333.14 700.07 334.74"/><polygon class="cls-31" points="739.75 322.96 741.44 321.89 743.55 320.82 745.66 320.28 744.82 322.96 743.55 325.64 743.13 327.25 745.66 326.17 748.19 325.1 748.19 323.5 746.5 325.1 744.82 325.64 745.66 322.96 746.5 320.28 746.5 319.21 743.97 319.75 741.86 320.82 740.59 321.35 739.75 322.96"/><polygon class="cls-31" points="756.21 322.42 757.9 321.35 760.01 320.28 762.12 319.75 761.28 322.42 760.01 325.1 759.59 326.71 762.12 325.64 764.66 324.57 764.66 322.96 762.97 324.57 761.28 325.1 762.12 322.42 762.97 319.75 762.97 318.68 760.43 319.21 758.32 320.28 757.06 320.82 756.21 322.42"/><polygon class="cls-31" points="740.17 335.28 741.86 334.21 743.97 333.14 746.08 332.6 745.24 335.28 743.97 337.96 743.55 339.56 746.08 338.49 748.61 337.42 748.61 335.82 746.92 337.42 745.24 337.96 746.08 335.28 746.92 332.6 746.92 331.53 744.39 332.07 742.28 333.14 741.01 333.67 740.17 335.28"/><polygon class="cls-31" points="756.21 335.28 757.9 334.21 760.01 333.14 762.12 332.6 761.28 335.28 760.01 337.96 759.59 339.56 762.12 338.49 764.66 337.42 764.66 335.82 762.97 337.42 761.28 337.96 762.12 335.28 762.97 332.6 762.97 331.53 760.43 332.07 758.32 333.14 757.06 333.67 756.21 335.28"/><polygon class="cls-31" points="781.96 323.5 783.65 322.42 785.76 321.35 787.87 320.82 787.03 323.5 785.76 326.17 785.34 327.78 787.87 326.71 790.41 325.64 790.41 324.03 788.72 325.64 787.03 326.17 787.87 323.5 788.72 320.82 788.72 319.75 786.18 320.28 784.07 321.35 782.81 321.89 781.96 323.5"/><polygon class="cls-31" points="798.43 322.96 800.12 321.89 802.23 320.82 804.34 320.28 803.49 322.96 802.23 325.64 801.8 327.25 804.34 326.17 806.87 325.1 806.87 323.5 805.18 325.1 803.49 325.64 804.34 322.96 805.18 320.28 805.18 319.21 802.65 319.75 800.54 320.82 799.27 321.35 798.43 322.96"/><polygon class="cls-31" points="782.39 335.82 784.07 334.74 786.18 333.67 788.3 333.14 787.45 335.82 786.18 338.49 785.76 340.1 788.3 339.03 790.83 337.96 790.83 336.35 789.14 337.96 787.45 338.49 788.3 335.82 789.14 333.14 789.14 332.07 786.61 332.6 784.5 333.67 783.23 334.21 782.39 335.82"/><polygon class="cls-31" points="798.43 335.82 800.12 334.74 802.23 333.67 804.34 333.14 803.49 335.82 802.23 338.49 801.8 340.1 804.34 339.03 806.87 337.96 806.87 336.35 805.18 337.96 803.49 338.49 804.34 335.82 805.18 333.14 805.18 332.07 802.65 332.6 800.54 333.67 799.27 334.21 798.43 335.82"/><polygon class="cls-31" points="782.39 371.17 784.07 370.1 786.18 369.03 788.3 368.49 787.45 371.17 786.18 373.85 785.76 375.45 788.3 374.38 790.83 373.31 790.83 371.7 789.14 373.31 787.45 373.85 788.3 371.17 789.14 368.49 789.14 367.42 786.61 367.95 784.5 369.03 783.23 369.56 782.39 371.17"/><polygon class="cls-31" points="798.85 370.63 800.54 369.56 802.65 368.49 804.76 367.95 803.91 370.63 802.65 373.31 802.23 374.92 804.76 373.85 807.29 372.77 807.29 371.17 805.6 372.77 803.91 373.31 804.76 370.63 805.6 367.95 805.6 366.88 803.07 367.42 800.96 368.49 799.69 369.03 798.85 370.63"/><polygon class="cls-31" points="782.81 383.49 784.5 382.42 786.61 381.35 788.72 380.81 787.87 383.49 786.61 386.17 786.18 387.77 788.72 386.7 791.25 385.63 791.25 384.02 789.56 385.63 787.87 386.17 788.72 383.49 789.56 380.81 789.56 379.74 787.03 380.27 784.92 381.35 783.65 381.88 782.81 383.49"/><polygon class="cls-31" points="798.85 383.49 800.54 382.42 802.65 381.35 804.76 380.81 803.91 383.49 802.65 386.17 802.23 387.77 804.76 386.7 807.29 385.63 807.29 384.02 805.6 385.63 803.91 386.17 804.76 383.49 805.6 380.81 805.6 379.74 803.07 380.27 800.96 381.35 799.69 381.88 798.85 383.49"/><polygon class="cls-31" points="741.44 370.63 743.13 369.56 745.24 368.49 747.35 367.95 746.5 370.63 745.24 373.31 744.82 374.92 747.35 373.85 749.88 372.77 749.88 371.17 748.19 372.77 746.5 373.31 747.35 370.63 748.19 367.95 748.19 366.88 745.66 367.42 743.55 368.49 742.28 369.03 741.44 370.63"/><polygon class="cls-31" points="757.9 370.1 759.59 369.03 761.7 367.95 763.81 367.42 762.97 370.1 761.7 372.77 761.28 374.38 763.81 373.31 766.34 372.24 766.34 370.63 764.66 372.24 762.97 372.77 763.81 370.1 764.66 367.42 764.66 366.35 762.12 366.88 760.01 367.95 758.75 368.49 757.9 370.1"/><polygon class="cls-31" points="741.86 382.95 743.55 381.88 745.66 380.81 747.77 380.27 746.92 382.95 745.66 385.63 745.24 387.24 747.77 386.17 750.3 385.1 750.3 383.49 748.61 385.1 746.92 385.63 747.77 382.95 748.61 380.27 748.61 379.2 746.08 379.74 743.97 380.81 742.7 381.35 741.86 382.95"/><polygon class="cls-31" points="757.9 382.95 759.59 381.88 761.7 380.81 763.81 380.27 762.97 382.95 761.7 385.63 761.28 387.24 763.81 386.17 766.34 385.1 766.34 383.49 764.66 385.1 762.97 385.63 763.81 382.95 764.66 380.27 764.66 379.2 762.12 379.74 760.01 380.81 758.75 381.35 757.9 382.95"/><polygon class="cls-31" points="625.77 372.24 627.46 371.17 629.57 370.1 631.68 369.56 630.83 372.24 629.57 374.92 629.15 376.52 631.68 375.45 634.21 374.38 634.21 372.77 632.52 374.38 630.83 374.92 631.68 372.24 632.52 369.56 632.52 368.49 629.99 369.03 627.88 370.1 626.61 370.63 625.77 372.24"/><polygon class="cls-31" points="642.23 371.7 643.92 370.63 646.03 369.56 648.14 369.03 647.3 371.7 646.03 374.38 645.61 375.99 648.14 374.92 650.67 373.85 650.67 372.24 648.99 373.85 647.3 374.38 648.14 371.7 648.99 369.03 648.99 367.95 646.45 368.49 644.34 369.56 643.08 370.1 642.23 371.7"/><polygon class="cls-31" points="626.19 384.56 627.88 383.49 629.99 382.42 632.1 381.88 631.26 384.56 629.99 387.24 629.57 388.85 632.1 387.77 634.63 386.7 634.63 385.1 632.95 386.7 631.26 387.24 632.1 384.56 632.95 381.88 632.95 380.81 630.41 381.35 628.3 382.42 627.03 382.95 626.19 384.56"/><polygon class="cls-31" points="642.23 384.56 643.92 383.49 646.03 382.42 648.14 381.88 647.3 384.56 646.03 387.24 645.61 388.85 648.14 387.77 650.67 386.7 650.67 385.1 648.99 386.7 647.3 387.24 648.14 384.56 648.99 381.88 648.99 380.81 646.45 381.35 644.34 382.42 643.08 382.95 642.23 384.56"/><polygon class="cls-31" points="580.6 372.77 582.29 371.7 584.4 370.63 586.51 370.1 585.66 372.77 584.4 375.45 583.98 377.06 586.51 375.99 589.04 374.92 589.04 373.31 587.35 374.92 585.66 375.45 586.51 372.77 587.35 370.1 587.35 369.03 584.82 369.56 582.71 370.63 581.44 371.17 580.6 372.77"/><polygon class="cls-31" points="597.06 372.24 598.75 371.17 600.86 370.1 602.97 369.56 602.13 372.24 600.86 374.92 600.44 376.52 602.97 375.45 605.5 374.38 605.5 372.77 603.82 374.38 602.13 374.92 602.97 372.24 603.82 369.56 603.82 368.49 601.28 369.03 599.17 370.1 597.91 370.63 597.06 372.24"/><polygon class="cls-31" points="581.02 385.1 582.71 384.02 584.82 382.95 586.93 382.42 586.09 385.1 584.82 387.77 584.4 389.38 586.93 388.31 589.46 387.24 589.46 385.63 587.77 387.24 586.09 387.77 586.93 385.1 587.77 382.42 587.77 381.35 585.24 381.88 583.13 382.95 581.87 383.49 581.02 385.1"/><polygon class="cls-31" points="597.06 385.1 598.75 384.02 600.86 382.95 602.97 382.42 602.13 385.1 600.86 387.77 600.44 389.38 602.97 388.31 605.5 387.24 605.5 385.63 603.82 387.24 602.13 387.77 602.97 385.1 603.82 382.42 603.82 381.35 601.28 381.88 599.17 382.95 597.91 383.49 597.06 385.1"/><polygon class="cls-31" points="684.45 367.95 686.14 366.88 688.25 365.81 690.36 365.28 689.51 367.95 688.25 370.63 687.82 372.24 690.36 371.17 692.89 370.1 692.89 368.49 691.2 370.1 689.51 370.63 690.36 367.95 691.2 365.28 691.2 364.2 688.67 364.74 686.56 365.81 685.29 366.35 684.45 367.95"/><polygon class="cls-31" points="700.49 367.95 702.18 366.88 704.29 365.81 706.4 365.28 705.55 367.95 704.29 370.63 703.87 372.24 706.4 371.17 708.93 370.1 708.93 368.49 707.24 370.1 705.55 370.63 706.4 367.95 707.24 365.28 707.24 364.2 704.71 364.74 702.6 365.81 701.33 366.35 700.49 367.95"/><polygon class="cls-31" points="688.67 269.26 689.7 268.49 690.99 267.72 692.27 267.33 691.76 269.26 690.99 271.18 690.73 272.33 692.27 271.56 693.82 270.8 693.82 269.64 692.79 270.8 691.76 271.18 692.27 269.26 692.79 267.33 692.79 266.57 691.25 266.95 689.96 267.72 689.18 268.1 688.67 269.26"/><polygon class="cls-31" points="698.71 268.87 699.75 268.1 701.03 267.33 702.32 266.95 701.8 268.87 701.03 270.8 700.77 271.95 702.32 271.18 703.87 270.41 703.87 269.26 702.84 270.41 701.8 270.8 702.32 268.87 702.84 266.95 702.84 266.18 701.29 266.57 700 267.33 699.23 267.72 698.71 268.87"/><polygon class="cls-31" points="688.93 278.1 689.96 277.33 691.25 276.56 692.53 276.18 692.02 278.1 691.25 280.03 690.99 281.18 692.53 280.41 694.08 279.64 694.08 278.49 693.05 279.64 692.02 280.03 692.53 278.1 693.05 276.18 693.05 275.41 691.5 275.8 690.21 276.56 689.44 276.95 688.93 278.1"/><polygon class="cls-31" points="698.71 278.1 699.75 277.33 701.03 276.56 702.32 276.18 701.8 278.1 701.03 280.03 700.77 281.18 702.32 280.41 703.87 279.64 703.87 278.49 702.84 279.64 701.8 280.03 702.32 278.1 702.84 276.18 702.84 275.41 701.29 275.8 700 276.56 699.23 276.95 698.71 278.1"/><polygon class="cls-32" points="590.31 281.18 583.11 290.44 589.04 292.43 597.91 294.04 613.95 295.11 632.1 291.36 650.67 287.07 671.39 281.18 590.31 281.18"/><polygon class="cls-33" points="583.13 290.29 594 292.43 616.9 292.43 640.12 288.14 663.61 281.18 671.36 281.18 656.16 292.43 634.63 297.79 609.3 299.93 588.2 298.32 578.84 296.26 583.13 290.29"/><polygon class="cls-34" points="734.68 281.18 748.61 283.86 766.34 283.86 786.18 292.43 779.85 295.11 757.9 303.41 727.51 304.21 734.68 281.18"/><polygon class="cls-34" points="731.64 290.55 741.86 289.21 745.66 292.43 743.97 296.71 739.75 296.71 737.22 292.43 731.64 290.55"/><polygon class="cls-33" points="792.69 281.18 797.67 281.79 814.39 283.86 819.53 288.14 819.53 292.43 819.53 296.71 816.96 303.68 765.87 303.14 769.55 299.93 777.45 296.71 779.11 290.29 777.45 285.95 764.96 284.12 753.75 282.96 745.66 281.18 792.69 281.18"/><polygon class="cls-32" points="801.06 282.21 804.76 286 810.25 289.21 811.09 292.96 810.67 296.71 810.67 299.93 811.3 303.62 816.58 303.68 836 280.64 801.06 282.21"/><polygon class="cls-35" points="585.9 285.77 591.51 285.73 594.43 285.73 596.41 286.41 598.33 287.07 592.97 287.07 587.37 287.07 584.8 286.94 585.9 285.77"/><polygon class="cls-35" points="575.33 302.32 583.04 302.28 587.06 302.28 589.78 302.99 592.42 303.68 585.05 303.68 577.35 303.68 573.82 303.54 575.33 302.32"/><polygon class="cls-35" points="578.68 300.18 584.12 300.13 586.95 300.13 588.87 300.84 590.73 301.53 585.54 301.53 580.11 301.53 577.62 301.39 578.68 300.18"/><polygon class="cls-35" points="650.02 282.56 659.75 282.52 664.82 282.52 668.24 283.2 671.57 283.86 662.28 283.86 652.58 283.86 648.12 283.72 650.02 282.56"/><polygon class="cls-35" points="657.14 284.17 662.13 284.13 664.73 284.13 666.49 284.81 668.2 285.46 663.43 285.46 658.45 285.46 656.16 285.33 657.14 284.17"/><polygon class="cls-35" points="662.57 290.06 665.11 290.02 666.43 290.02 667.33 290.7 668.2 291.36 665.77 291.36 663.24 291.36 662.07 291.22 662.57 290.06"/><polygon class="cls-35" points="633.03 301.85 639.95 301.8 643.55 301.8 645.99 302.48 648.35 303.14 641.75 303.14 634.85 303.14 631.68 303.01 633.03 301.85"/><polygon class="cls-35" points="608.96 294.88 611.5 294.84 612.82 294.84 613.71 295.52 614.58 296.18 612.16 296.18 609.62 296.18 608.46 296.04 608.96 294.88"/><polygon class="cls-35" points="631.75 287.38 634.29 287.34 635.62 287.34 636.51 288.02 637.38 288.68 634.95 288.68 632.42 288.68 631.26 288.55 631.75 287.38"/><polygon class="cls-35" points="734.34 283.1 736.88 283.05 738.2 283.05 739.09 283.73 739.96 284.39 737.54 284.39 735 284.39 733.84 284.26 734.34 283.1"/><polygon class="cls-35" points="796.39 295.42 798.93 295.37 800.25 295.37 801.15 296.05 802.02 296.71 799.59 296.71 797.06 296.71 795.89 296.58 796.39 295.42"/><polygon class="cls-35" points="757.98 291.67 760.51 291.63 761.84 291.63 762.73 292.3 763.6 292.96 761.18 292.96 758.64 292.96 757.48 292.83 757.98 291.67"/><polygon class="cls-35" points="739.82 296.49 742.36 296.44 743.68 296.44 744.58 297.13 745.45 297.79 743.02 297.79 740.49 297.79 739.33 297.65 739.82 296.49"/><polygon class="cls-35" points="781.62 286.31 784.16 286.27 785.48 286.27 786.37 286.95 787.24 287.61 784.82 287.61 782.28 287.61 781.12 287.47 781.62 286.31"/><polygon class="cls-35" points="819.19 285.77 821.73 285.73 823.05 285.73 823.94 286.41 824.81 287.07 822.39 287.07 819.85 287.07 818.69 286.94 819.19 285.77"/><polygon class="cls-35" points="774.02 299.7 776.56 299.66 777.88 299.66 778.77 300.34 779.64 301 777.22 301 774.68 301 773.52 300.87 774.02 299.7"/><polygon class="cls-35" points="734.35 286.31 741.27 286.27 744.87 286.27 747.3 286.95 749.67 287.61 743.07 287.61 736.16 287.61 732.99 287.47 734.35 286.31"/><polygon class="cls-35" points="784.16 302.38 791.08 302.34 794.68 302.34 797.12 303.02 799.48 303.68 792.88 303.68 785.98 303.68 782.81 303.54 784.16 302.38"/><polygon class="cls-35" points="779.94 285.24 786.86 285.2 790.46 285.2 792.89 285.88 795.26 286.54 788.66 286.54 781.75 286.54 778.59 286.4 779.94 285.24"/><polygon class="cls-35" points="734.77 298.1 741.69 298.05 745.29 298.05 747.73 298.73 750.09 299.39 743.49 299.39 736.59 299.39 733.42 299.26 734.77 298.1"/><polygon class="cls-33" points="830.92 290.29 830.97 299.18 826.07 318.49 821.92 344.91 817.21 358.38 817.21 374.38 824.94 374.38 830.97 364.73 833.2 355.58 834.54 351.52 834.73 285.46 830.92 290.29"/><polygon class="cls-32" points="817 403.31 816.84 394.93 817.25 384.95 816.74 374.08 821.19 368.28 825.2 365.89 832 361.15 834.63 360.87 835.26 383.25 817 403.31"/><polygon class="cls-35" points="818.42 398.23 823.68 392.54 826.43 389.59 828.64 388.12 830.78 386.68 825.74 392.09 820.47 397.74 817.98 400.23 818.42 398.23"/><polygon class="cls-35" points="830.73 293.55 832.84 291.75 833.95 290.83 834.99 290.78 836 290.73 833.97 292.41 831.85 294.17 830.82 294.87 830.73 293.55"/><polygon class="cls-35" points="816.8 312.3 818.91 310.5 820.02 309.58 821.06 309.53 822.07 309.48 820.04 311.16 817.92 312.92 816.89 313.61 816.8 312.3"/><rect class="cls-26" x="681.91" y="283.32" width="30.39" height="1.61"/><path class="cls-36" d="M577,427.79c1.51-3.33,5.61-3.93,9-4.08a8.58,8.58,0,0,1-7.61-8.45c.12-4.33,4.73-8,8.42-6.29-3,.26-5.93-2.86-5.68-6.14s3.57-5.85,6.53-5.06a10.07,10.07,0,0,1,2.55-9.71,7.52,7.52,0,0,1,9.2-.88,8.13,8.13,0,0,1,2.81,9.32,6,6,0,0,1,7.15,4.06,6.66,6.66,0,0,1-3.5,7.84c3.09-1.7,7.12,1.32,7.56,5s-1.9,7.3-4.9,9.17a5.64,5.64,0,0,1,6,1.07c9,8.39-11,18.18-16.91,18.76S572.64,437.45,577,427.79Z"/><polygon class="cls-37" points="596 390.2 596 405.22 596 408.58 596 421.99 595.68 433.52 596 444 598.92 444 596 390.2"/><polygon class="cls-37" points="606.7 400.33 602 403.52 597.3 408.87 606.7 400.33"/><polyline class="cls-37" points="597.3 422.5 609.62 412.21 603.46 416.05"/><polyline class="cls-37" points="597.3 436.82 609.62 426.53 603.46 430.38"/><polyline class="cls-37" points="597.51 411.2 586.06 403.24 591.54 405.95"/><polyline class="cls-37" points="597.51 425.17 585.95 417.1 591.48 419.84"/><polyline class="cls-37" points="597.19 437.75 582.71 429.68 589.68 432.34"/><rect class="cls-29" x="776.69" y="391.65" width="36.73" height="3.75"/><path class="cls-38" d="M757.12,423.75c1.26-2.93,4.69-3.46,7.57-3.59a7.4,7.4,0,0,1-6.36-7.43c.09-3.81,3.95-7,7-5.53-2.54.23-5-2.52-4.75-5.4s3-5.14,5.46-4.45a9.15,9.15,0,0,1,2.13-8.54,6.05,6.05,0,0,1,7.69-.77,7.35,7.35,0,0,1,2.35,8.19c2.39-.78,5.2.89,6,3.57s-.59,5.92-2.93,6.9c2.59-1.5,6,1.15,6.33,4.41a8.92,8.92,0,0,1-4.1,8.07,4.52,4.52,0,0,1,5,.94c7.55,7.37-9.15,16-14.13,16.49S753.46,432.24,757.12,423.75Z"/><polygon class="cls-37" points="773 390.69 773 403.9 773 406.86 773 418.65 772.73 428.78 773 438 775.44 438 773 390.69"/><polygon class="cls-37" points="781.95 399.6 778.02 402.41 774.09 407.11 781.95 399.6"/><polyline class="cls-37" points="774.09 419.09 784.39 410.05 779.24 413.42"/><polyline class="cls-37" points="774.09 431.69 784.39 422.64 779.24 426.02"/><polyline class="cls-37" points="774.27 409.15 764.68 402.16 769.27 404.54"/><polyline class="cls-37" points="774.27 421.44 764.59 414.35 769.22 416.76"/><polyline class="cls-37" points="774 432.5 761.88 425.4 767.72 427.75"/><path class="cls-39" d="M625.22,433.29c.52-1.38,1.94-1.62,3.13-1.69a3.36,3.36,0,0,1-2.63-3.49c0-1.79,1.63-3.31,2.91-2.6-1,.1-2-1.19-2-2.54s1.23-2.43,2.25-2.1a4.78,4.78,0,0,1,.88-4,2.29,2.29,0,0,1,3.18-.36,3.76,3.76,0,0,1,1,3.86,2,2,0,0,1,2.47,1.67,3,3,0,0,1-1.21,3.25c1.07-.7,2.46.54,2.62,2.08a4.37,4.37,0,0,1-1.7,3.79,1.71,1.71,0,0,1,2.07.44c3.12,3.48-3.78,7.52-5.84,7.77S623.71,437.29,625.22,433.29Z"/><polygon class="cls-37" points="631.78 417.74 631.78 423.95 631.78 425.35 631.78 430.89 631.67 435.66 631.78 440 632.79 440 631.78 417.74"/><polygon class="cls-37" points="635.48 421.93 633.86 423.25 632.23 425.46 635.48 421.93"/><polyline class="cls-37" points="632.23 431.1 636.49 426.85 634.36 428.44"/><polyline class="cls-37" points="632.23 437.03 636.49 432.77 634.36 434.36"/><polyline class="cls-37" points="632.31 426.43 628.35 423.13 630.24 424.25"/><polyline class="cls-37" points="632.31 432.21 628.31 428.87 630.22 430"/><polyline class="cls-37" points="632.19 437.41 627.19 434.07 629.6 435.18"/><polygon class="cls-40" points="141.76 105.52 137.96 106.61 133.7 109.59 132 112.57 132 116.3 133.7 120.02 137.11 123 141.37 123 170.33 123 175.44 120.77 177.87 117.19 178 112.57 176.3 108.84 172.04 105.86 172.04 102.14 170.33 99.16 166.07 96.18 161.12 95 156.94 95.92 153.3 99.91 150.14 99.58 147.78 99.58 144.64 100.26 142.55 102.55 141.76 105.52"/><polygon class="cls-40" points="497.7 123.27 494.31 124.06 490.52 126.25 489 128.44 489 131.18 490.52 133.91 493.56 136.1 497.35 136.1 523.17 136.1 527.72 134.46 529.88 131.84 530 128.44 528.48 125.71 524.68 123.52 524.68 120.78 523.17 118.59 519.37 116.4 514.96 115.53 511.23 116.21 507.98 119.14 505.17 118.9 503.07 118.9 500.27 119.4 498.4 121.08 497.7 123.27"/><polygon class="cls-40" points="905.07 89.02 901.93 89.95 898.41 92.51 897 95.06 897 98.25 898.41 101.45 901.22 104 904.74 104 928.67 104 932.89 102.08 934.89 99.02 935 95.06 933.59 91.87 930.07 89.31 930.07 86.12 928.67 83.57 925.15 81.01 921.06 80 917.6 80.78 914.59 84.2 911.98 83.92 910.04 83.92 907.44 84.51 905.72 86.47 905.07 89.02"/><polygon class="cls-40" points="1176.28 70.44 1170.33 71.93 1163.67 76.02 1161 80.11 1161 85.22 1163.67 90.34 1169 94.42 1175.67 94.42 1221 94.42 1229 91.36 1232.79 86.45 1233 80.11 1230.33 75 1223.67 70.91 1223.67 65.8 1221 61.71 1214.33 57.62 1206.58 56 1200.03 57.26 1194.33 62.73 1189.39 62.28 1185.7 62.28 1180.79 63.22 1177.51 66.36 1176.28 70.44"/><polygon class="cls-40" points="299.89 64.31 295.26 65.58 290.07 69.07 288 72.55 288 76.91 290.07 81.27 294.22 84.75 299.41 84.75 334.67 84.75 340.89 82.14 343.84 77.96 344 72.55 341.93 68.19 336.74 64.71 336.74 60.35 334.67 56.87 329.48 53.38 323.45 52 318.36 53.07 313.93 57.74 310.08 57.35 307.21 57.35 303.39 58.16 300.84 60.83 299.89 64.31"/></g></g></svg>