<svg width="500" height="500" xmlns="http://www.w3.org/2000/svg">
 <g>
  <title>background</title>
  <rect x="-1" y="-1" width="502" height="502" id="canvas_background" fill="none"/>
 </g>

 <g>
  <title>Layer 1</title>
  <path stroke="null" d="m333,324.6c27,-32.2 49.7,-73.1 62.2,-112.2c9.7,-29.6 10.4,-61.5 2.1,-89.9c-9.4,-32.1 -29.8,-58 -58.9,-74.8c-21.9,-21.7 -54.3,-34.6 -89.5,-35.6l-16.4,0.4c-27.6,2.1 -53.2,11.5 -73,27c-35.5,15 -60.8,41.1 -73.3,75.7c-10.9,30.4 -11.1,64.9 -0.6,97.2c12.5,39.2 35.2,80.2 62.3,112.4c10.1,12 20.4,22.3 30.8,30.7l16.6,48.2l3.7,0c3.5,4 10,14.2 12.6,37.4l-1,0c0,0.1 0,0.2 0,0.2l-10,0c-0.1,0.7 -0.2,1.4 -0.2,2.2l0,29.2c0,7.6 7.6,13.9 17,13.9l6.1,0l35.5,0l4.5,0c9.4,0 17.1,-6.3 17.1,-13.9l0,-29.2c0,-0.7 -0.1,-1.4 -0.3,-2.2l-8.4,0c0,-0.1 0,-0.2 0,-0.2l-1.3,0c2.6,-23 9.1,-33.4 12.6,-37.4l3.6,0l15.8,-48.6c10.2,-8.4 20.4,-18.6 30.4,-30.5zm16.3,-143.2c1.2,-2.1 4.2,-6.1 8.3,-10.5c3.7,-4 7,-7.1 9,-8.5l0.9,0.5l0.9,-0.5c2,1.5 5.4,4.6 9,8.5c4.1,4.4 7.1,8.4 8.3,10.5l-0.5,1l0.5,1c-1.2,2.1 -4.3,6.1 -8.3,10.5c-3.7,4 -7,7.1 -9,8.5l-0.9,-0.5l-0.9,0.5c-2,-1.5 -5.3,-4.6 -9,-8.5c-4.1,-4.4 -7.1,-8.4 -8.3,-10.4l0.5,-1l-0.5,-1.1zm41.2,-14.5c-1.1,-1.4 -2.4,-2.8 -3.9,-4.5c-12.2,-13.2 -16.3,-13.2 -18.4,-13.2c-0.3,0 -0.5,0 -0.8,0c-0.3,0 -0.5,0 -0.8,0c-2,0 -6.2,0 -18.4,13.2c-0.1,0.1 -0.2,0.2 -0.3,0.3c4.3,-44.3 -0.8,-79.1 -15.3,-103.8c42.8,24.9 59,67.2 57.9,108zm-73.1,-108.5c17.4,23.6 23.2,60.4 17.4,109.6c-0.8,-1 -1.7,-2.1 -2.7,-3.2c-10.1,-11.8 -13.7,-11.8 -15.7,-11.8c-0.2,0 -0.4,0 -0.6,0c-0.2,0 -0.4,0 -0.6,0c-2,0 -5.4,0 -14.7,10.6c0.5,-24.6 -0.8,-48.9 -4,-70c-3.1,-20.6 -9.2,-45.7 -20.9,-63c17.8,4.9 31.9,14.2 41.8,27.8zm-89.9,-32.3l1.1,-0.7c5.1,-0.6 10.4,-0.9 15.7,-0.9c2.6,0 5.1,0.1 7.7,0.2l2,1.3c25,15.9 35.2,75.8 34,135.8c-3.3,-3.7 -7.5,-8 -13,-13.2c-16,-14.9 -27.3,-22.5 -33.9,-22.5c-0.6,0 -1.1,0 -1.7,0.1c-0.5,-0.1 -1.1,-0.1 -1.7,-0.1c-6.5,0 -17.9,7.6 -33.9,22.5c-4.3,4 -7.8,7.6 -10.7,10.7c-0.5,-59.3 10.6,-117.5 34.4,-133.2zm58.9,158.2c-1.6,3.5 -9,12.4 -20,22.7c-11.6,10.9 -21.5,17.9 -24.9,19l-4,0c-3.4,-1 -13.3,-8.1 -24.9,-19c-8.6,-8.1 -15.1,-15.3 -18.2,-19.7c-0.2,-3 -0.4,-5.9 -0.5,-8.9c2.9,-4.3 9.6,-11.9 18.8,-20.5c11.6,-10.9 21.5,-18 24.9,-19l4,0c3.4,1 13.3,8.1 24.9,19c11,10.3 18.4,19.2 20,22.7l-0.1,3.7zm-119.6,-125.2c9.7,-13.3 22.7,-22.7 38.9,-27.9c-11.4,17.4 -17.4,42.1 -20.6,62.5c-3.3,21.1 -4.8,45 -4.4,69.1c-8.8,-9.8 -12.1,-9.8 -14,-9.8c-0.2,0 -0.4,0 -0.6,0c-0.2,0 -0.4,0 -0.6,0c-2.1,0 -5.6,0 -15.8,11.8c-1,1.2 -1.9,2.3 -2.7,3.3c-3.2,-34.2 -1.9,-79 19.8,-109zm-76.3,107.6c-1,-42.4 16.9,-86.4 63.2,-110.7c-20,31 -22.6,72.7 -19.8,107.9c-0.4,-0.5 -0.9,-1 -1.4,-1.5c-12.2,-13.2 -16.3,-13.2 -18.4,-13.2c-0.3,0 -0.5,0 -0.8,0c-0.3,0 -0.5,0 -0.8,0c-2,0 -6.2,0 -18.4,13.2c-1.3,1.6 -2.5,3 -3.6,4.3zm4.7,14.7c1.2,-2.1 4.2,-6.1 8.3,-10.5c3.7,-4 7,-7.1 9,-8.5l0.9,0.5l0.9,-0.5c2,1.5 5.4,4.6 9,8.5c4.1,4.4 7.1,8.4 8.3,10.5l-0.5,1l0.5,1c-1.2,2.1 -4.3,6.1 -8.3,10.5c-3.7,4 -7,7.1 -9,8.5l-0.9,-0.5l-0.9,0.5c-2,-1.5 -5.3,-4.6 -9,-8.5c-4.1,-4.4 -7.1,-8.4 -8.3,-10.4l0.5,-1l-0.5,-1.1zm92.5,165.2c-10,-8.1 -20.1,-18.1 -30.1,-29.9c-25.7,-30.5 -48.1,-70.9 -60,-108.2c-0.4,-1.2 -0.8,-2.4 -1.1,-3.7c10.5,10.9 14.3,10.9 16.1,10.9c0.3,0 0.5,0 0.8,0c0.3,0 0.5,0 0.8,0c2,0 6.2,0 18.3,-13.2c2.2,-2.4 4,-4.5 5.4,-6.3c0.6,3.6 1.3,7 1.9,10.1c8.8,44.6 29.1,103.8 54.7,141.2c-2.5,-0.3 -4.7,-0.6 -6.8,-0.9zm-35.5,-142.8c-0.1,-0.4 -0.2,-0.8 -0.2,-1.2c8.4,9.2 11.6,9.3 13.5,9.3c0.2,0 0.4,0 0.6,0c0.2,0 0.4,0 0.6,0c2.1,0 5.6,0 15.8,-11.8c0.1,-0.1 0.2,-0.2 0.3,-0.3c0.1,1.3 0.3,2.7 0.4,4c4.3,40.5 12,82.9 21.2,116.1c3.2,11.7 6.4,21.2 9.3,29c-0.9,0 -1.8,-0.1 -2.6,-0.1c-24.5,-31.3 -48.3,-91 -58.9,-145zm83.3,237.3l-15,0c-2,-18.8 -6.4,-30.4 -10.6,-37.4l25.6,0l0,37.4zm-8,-91.7c-3.4,-8 -7.1,-18.7 -11,-32.9c-8.4,-30.4 -15.8,-70.2 -20.1,-107.7c2.2,2.3 4.7,4.7 7.6,7.4c16,14.9 27.3,22.5 33.9,22.5c0.6,0 1.1,0 1.7,-0.1c0.5,0.1 1.1,0.1 1.7,0.1c6.5,0 17.9,-7.6 33.9,-22.5c4,-3.7 7.3,-7 10.1,-9.9c-4.2,38.2 -11.8,79.2 -20.4,110.4c-3.9,14.1 -7.6,24.8 -11,32.8c-4.3,0.1 -8.7,0.1 -13.2,0.1c-4.7,0 -9,-0.1 -13.2,-0.2zm34.2,91.7l-16.2,0l0,-37.4l26.8,0c-4.2,7 -8.7,18.6 -10.6,37.4zm8.5,-92.4c-0.9,0.1 -1.8,0.1 -2.8,0.2c3,-7.8 6.1,-17.3 9.3,-28.9c9.2,-33.3 17,-75.7 21.2,-116.2c0.2,-1.6 0.3,-3.2 0.5,-4.9c0.3,0.4 0.6,0.7 1,1.1c10.2,11.8 13.7,11.8 15.8,11.8c0.2,0 0.4,0 0.6,0c0.2,0 0.4,0 0.6,0c1.9,0 4.9,0 12.7,-8.4c0,0.1 0,0.3 -0.1,0.4c-10.6,54.1 -34.3,113.7 -58.8,144.9zm23,-2.1c-2,0.3 -4.1,0.6 -6.4,0.8c25.5,-37.4 45.8,-96.5 54.6,-141.1c0.7,-3.3 1.3,-6.5 1.8,-9.7c1.4,1.7 3,3.6 5.1,5.8c12.2,13.2 16.3,13.2 18.3,13.2c0.3,0 0.5,0 0.8,0c0.3,0 0.5,0 0.8,0c1.9,0 5.7,0 16.3,-11c-0.4,1.3 -0.8,2.6 -1.2,3.9c-11.9,37.1 -34.2,77.5 -59.9,108c-10,11.9 -20.1,21.9 -30.2,30.1z" id="svg_1" fill="#7f2cf4"/>
  <text fill="#000000" stroke-width="0" x="204.5" y="377.4375" id="svg_2" font-size="24" font-family="Helvetica, Arial, sans-serif" text-anchor="start" xml:space="preserve" stroke="#000"/>
  <text stroke="null" transform="matrix(1.5868568420410156,0,0,1.3396226167678833,-122.08456242084503,-124.38147678785026) " fill="#ffffff" stroke-width="0" stroke-opacity="null" x="196.067308" y="382.521426" id="svg_3" font-size="24" font-family="'Times New Roman', Times, serif" text-anchor="start" xml:space="preserve" font-weight="bold">QUIZ</text>
 </g>
</svg>