<?xml version="1.0" encoding="utf-8"?>
<!-- Generator: Adobe Illustrator 21.0.0, SVG Export Plug-In . SVG Version: 6.00 Build 0)  -->
<svg version="1.1" id="Layer_1" xmlns="http://www.w3.org/2000/svg" xmlns:xlink="http://www.w3.org/1999/xlink" x="0px" y="0px"
	 viewBox="0 0 1366 768" style="enable-background:new 0 0 1366 768;" xml:space="preserve">
<style type="text/css">
	.st0{fill:#000273;stroke:#FFFFFF;stroke-miterlimit:10;}
</style>
<polyline class="st0" points="516.5,358.2 580.3,544.5 574.2,552.3 529.5,457.4 475.8,363.6 "/>
<polygon class="st0" points="686.4,359.8 610.9,561.9 625.1,558.6 728.6,366.6 "/>
<path class="st0" d="M484.2,341.9l40.9-4.1c2-0.2,3.9,1,4.6,2.9v0c0.9,2.5-0.6,5.3-3.2,5.9l-29.5,6.7c-0.3,0.1-0.7,0.1-1,0.1h-11.9
	c-2.9,0-5-2.7-4.4-5.5l0.6-2.7C480.8,343.5,482.3,342.1,484.2,341.9z"/>
<path class="st0" d="M468.9,355.7c-2.4,4.8,1.5,10.4,6.9,9.8l31.4-3.6l12.9-1.5c4.3-0.5,7.1-4.8,5.7-8.9l-0.5-1.6
	c-1-3.1-4.2-5.1-7.5-4.6L474,352C471.8,352.3,469.9,353.7,468.9,355.7L468.9,355.7z"/>
<path class="st0" d="M703.9,358c2.8-4.6-0.6-10.5-6-10.3l-31.6,0.8l-13,0.3c-4.3,0.1-7.5,4.2-6.4,8.4l0.4,1.6
	c0.8,3.2,3.8,5.4,7.1,5.2l44.2-2.8C700.7,361.2,702.8,359.9,703.9,358L703.9,358z"/>
<path class="st0" d="M695.6,348.4l-40.9,3.4c-2,0.2-3.9-1-4.6-3l0,0c-0.9-2.5,0.6-5.3,3.3-5.9l29.6-6.3c0.3-0.1,0.7-0.1,1-0.1
	l11.9,0.2c2.9,0,5,2.8,4.3,5.5l-0.7,2.7C699.2,346.9,697.6,348.3,695.6,348.4z"/>
<path class="st0" d="M463.9,286.3l0.2,0.5c11.8,28.5,46.2,39.6,9.7,89.9c-0.1,0.2-0.3,0.4-0.4,0.5l-8.6,8.9c-0.3,0.3-0.7,0.5-1,0.7
	c-5.1,2.6-3.4,10.6,2.6,10.6h0l44.3,0c1.9,0,3.6,1.1,4.3,2.8l9.1,20.9c0.4,0.9,0.5,1.8,0.4,2.6l0,0.3c22.1,55.5-83.1,92.8-50.7,73.8
	c0.7-0.4-6.4,3.6-9.2,5.1c-7.6,4.2-16.2,6.2-24.8,5.6l-25.3-1.6c-0.1,0-0.3,0-0.4,0c-48.7,1.4-60.8-24.7-69.9-56.3l-8.9-30.9
	c-0.1-0.2-0.1-0.5-0.1-0.7l-12-92.1c0-0.4-0.1-0.8,0-1.1l7.7-70.3c0.5-4.7,2.3-9.2,5.1-13l33.8-45.2c0.5-0.6,1.1-1.1,1.8-1.5
	l73.1-33c0.7-0.3,1.5-0.5,2.3-0.4l58.2,4.8c0.9,0.1,1.7,0.4,2.5,0.9l12.7,9.6c19.2,14.5,25.2,26.5,25.5,61.9c0,0.2,0,0.5-0.1,0.7
	l0,0c-0.2,1.2-0.8,2.4-1.9,3.1l-0.3,0.2c-34.1,26.6-26.1,18.6-53.1,18.4l-6.2,0.2c-1.3,0-2.5,0.6-3.3,1.5l-16,17.3
	C463.6,282.6,463.2,284.6,463.9,286.3z"/>
<path class="st0" d="M713.4,385.3L713.4,385.3c-9.5-29.3-43.1-43.2-2.4-90.6l10-8.9c6-1.8,5.1-10.5-1.2-11h0l-21.5-1.7
	c-15.7-1.2-29.1-11.6-34.3-26.5v0c-0.3-0.9-0.4-1.8-0.2-2.6l0.1-0.3c-17.7-57.1,90.2-86,56.4-69.6c-0.7,0.3,6.7-3.1,9.6-4.4
	c7.9-3.6,16.6-4.9,25.2-3.6l25.3,3.6c48.8,2.4,69.4,24.4,76.1,56.7l5,27c0.1,0.3,6,9.7,6,10l-10.8,83.2c0.3,6.8-0.1,13.6-1.4,20.4
	l-7.2,38.1c-3.6,18.9-12.2,36.5-24.9,50.9L809,472.3c-6.1,6.9-13.7,12.1-22.4,15.2l-45.4,16.3c-12.6,4.5-26.2,5.8-39.4,3.6
	l-25.9-4.2c-9.2-1.5-17.8-5.6-24.8-11.8l-2.2-2c-18-16-23-28.5-20.5-64.1v0c0.3-1.5,1.2-2.7,2.5-3.5v0c36-23.8,27.4-16.5,54.4-14.1
	l5.8,0.3c1.5,0.1,3-0.5,4.1-1.5l16.6-15.3C713.5,389.7,714.1,387.4,713.4,385.3z"/>
</svg>
