<svg id="Layer_1" data-name="Layer 1" xmlns="http://www.w3.org/2000/svg" viewBox="0 0 666 715"><defs><style>.cls-1,.cls-10{fill:#ddf2e6;}.cls-11,.cls-2{fill:#aaaa9b;}.cls-3{fill:#aae0c4;}.cls-4{fill:#676b68;}.cls-5{fill:#b7e5cc;}.cls-6,.cls-9{fill:#e8ea96;}.cls-7{fill:#dddba8;}.cls-8{fill:#ead1ce;}.cls-10,.cls-11,.cls-9{fill-rule:evenodd;}.cls-12{font-size:50px;font-family:Athelas-Bold, Athelas;font-weight:700;}.cls-13{letter-spacing:-0.03em;}.cls-14{fill:#393999;stroke:#2e3192;stroke-miterlimit:10;stroke-width:2px;}</style></defs><title>museum</title><rect class="cls-1" x="64" y="309" width="538" height="363"/><rect class="cls-2" x="191" y="500" width="292" height="166"/><rect class="cls-3" y="690.3" width="666" height="15.98"/><rect class="cls-4" x="16.88" y="683.03" width="633.08" height="7.27"/><rect class="cls-5" x="16.88" y="667.78" width="633.08" height="15.26"/><rect class="cls-4" y="706.28" width="666" height="8.72"/><rect class="cls-6" x="55.71" y="360.45" width="88.63" height="284.08" rx="12" ry="12"/><rect class="cls-2" x="55.71" y="641.62" width="88.63" height="8.72" rx="4.36" ry="4.36"/><rect class="cls-6" x="45.58" y="648.89" width="107.2" height="18.89" rx="9.44" ry="9.44"/><rect class="cls-2" x="42.21" y="665.6" width="112.27" height="6.54" rx="3.27" ry="3.27"/><rect class="cls-6" x="523.35" y="360.45" width="88.63" height="284.08" rx="12" ry="12"/><rect class="cls-2" x="523.35" y="641.62" width="88.63" height="8.72" rx="4.36" ry="4.36"/><rect class="cls-6" x="513.22" y="648.89" width="107.2" height="18.89" rx="9.44" ry="9.44"/><rect class="cls-2" x="509.84" y="665.6" width="112.27" height="6.54" rx="3.27" ry="3.27"/><rect class="cls-7" x="70.9" y="360.45" width="6.75" height="281.17" rx="3.38" ry="3.38"/><rect class="cls-7" x="97.07" y="360.45" width="6.75" height="281.17" rx="3.38" ry="3.38"/><rect class="cls-7" x="123.24" y="360.45" width="6.75" height="281.17" rx="3.38" ry="3.38"/><rect class="cls-7" x="537.7" y="360.45" width="6.75" height="281.17" rx="3.38" ry="3.38"/><rect class="cls-7" x="563.86" y="360.45" width="6.75" height="281.17" rx="3.38" ry="3.38"/><rect class="cls-7" x="591.72" y="360.45" width="6.75" height="281.17" rx="3.38" ry="3.38"/><rect class="cls-2" x="54.87" y="337.93" width="88.63" height="17.44" rx="8.72" ry="8.72"/><rect class="cls-4" x="64.15" y="353.18" width="72.59" height="4.36" rx="2.18" ry="2.18"/><rect class="cls-2" x="522.97" y="338.38" width="88.63" height="17.44" rx="8.72" ry="8.72"/><rect class="cls-4" x="529.25" y="354.64" width="72.59" height="4.36" rx="2.18" ry="2.18"/><rect class="cls-4" x="45.58" y="329.94" width="574.84" height="7.99"/><rect class="cls-5" x="45.58" y="308.87" width="574.84" height="21.07"/><rect class="cls-4" x="55.71" y="300.87" width="546.14" height="7.99"/><rect class="cls-8" x="55.71" y="231" width="546.14" height="69.87"/><polygon class="cls-9" points="333 27 17 266 0 248 333 0 666 246 650 266 333 27"/><polygon class="cls-10" points="333 27 63.28 231 601.85 231 333 27"/><path class="cls-11" d="M602,543.86c148.47-282.36,292-1.53,292-1.53Z" transform="translate(-411 -41)"/><rect class="cls-6" x="290.35" y="359.45" width="88.63" height="284.08" rx="12" ry="12"/><rect class="cls-2" x="290.35" y="640.62" width="88.63" height="8.72" rx="4.36" ry="4.36"/><rect class="cls-6" x="280.22" y="647.89" width="107.2" height="18.89" rx="9.44" ry="9.44"/><rect class="cls-7" x="304.7" y="359.45" width="6.75" height="281.17" rx="3.38" ry="3.38"/><rect class="cls-7" x="330.86" y="359.45" width="6.75" height="281.17" rx="3.38" ry="3.38"/><rect class="cls-7" x="358.72" y="359.45" width="6.75" height="281.17" rx="3.38" ry="3.38"/><rect class="cls-2" x="286.97" y="338.38" width="89.03" height="17.44" rx="8.72" ry="8.72"/><rect class="cls-4" x="296.25" y="353.64" width="72.59" height="4.36" rx="2.18" ry="2.18"/><rect class="cls-2" x="278.84" y="665.6" width="112.27" height="6.54" rx="3.27" ry="3.27"/><text class="cls-12" transform="translate(154.38 283.75)"><tspan xml:space="preserve">History  </tspan><tspan class="cls-13" x="182.05" y="0">M</tspan><tspan x="226.04" y="0">useum</tspan></text><polygon class="cls-14" points="335.12 139.03 331.4 125 326.44 125 322.72 126.28 317.76 128.83 311.23 133.01 305.36 137.75 300.4 144.13 296.68 151.78 296.68 155.61 296.68 159.44 296.68 165.81 297.92 172.19 299.16 178.56 302.88 188.77 305.36 196.42 288 211.72 317.76 202.8 317.76 164.54 319 160.71 321.48 156.88 325.2 154.33 331.4 153.06 335.79 152.59 341.32 153.06 343.8 154.33 347.52 156.88 350 159.44 351.24 161.99 352.48 165.81 352.48 201.52 381 213 364.88 196.42 369.84 182.39 373.56 169.64 373.56 164.54 373.56 158.16 373.56 151.78 371.08 144.13 365.45 137.79 358.03 132.41 350 127.55 340.08 125 337.6 125 335.12 139.03"/><polygon class="cls-14" points="335.12 154.33 331.4 167.09 319 167.09 327.68 174.74 325.2 187.49 336.36 179.84 346.28 187.49 342.56 174.74 351.24 167.09 338.84 167.09 335.12 154.33"/></svg>