<svg id="Layer_1" data-name="Layer 1" xmlns="http://www.w3.org/2000/svg" xmlns:xlink="http://www.w3.org/1999/xlink" viewBox="0 0 602 469.25"><defs><style>.cls-1{fill:#f4f1bb;}.cls-2{fill:#9bc1bc;}.cls-3,.cls-5{fill:none;}.cls-23,.cls-3,.cls-4{stroke:#000;stroke-miterlimit:10;}.cls-3,.cls-4{stroke-width:0.25px;}.cls-4,.cls-6{fill:#ed6a5a;}.cls-7{fill:#e6ebe0;}.cls-8{fill:url(#linear-gradient);}.cls-9{fill:url(#linear-gradient-2);}.cls-10{fill:url(#linear-gradient-3);}.cls-11{fill:url(#linear-gradient-4);}.cls-12{fill:url(#linear-gradient-5);}.cls-13{fill:url(#linear-gradient-6);}.cls-14{fill:url(#linear-gradient-7);}.cls-15{fill:url(#linear-gradient-8);}.cls-16{fill:url(#linear-gradient-9);}.cls-17{fill:url(#linear-gradient-10);}.cls-18{fill:url(#linear-gradient-11);}.cls-19{fill:#6d6c6c;}.cls-20{fill:#36c9c6;}.cls-21{fill:#ddd9a2;}.cls-22{fill:#d86860;}.cls-24{fill:#dce2d3;}.cls-25{font-size:43.5px;font-family:Athelas-Bold, Athelas;font-weight:700;}</style><linearGradient id="linear-gradient" x1="10.84" y1="261.28" x2="86.22" y2="261.28" gradientUnits="userSpaceOnUse"><stop offset="0" stop-color="#cce0f4" stop-opacity="0.5"/><stop offset="0.19" stop-color="#badaf2" stop-opacity="0.49"/><stop offset="0.5" stop-color="#8acaed" stop-opacity="0.46"/><stop offset="0.9" stop-color="#3bb1e4" stop-opacity="0.41"/><stop offset="0.99" stop-color="#29abe2" stop-opacity="0.4"/></linearGradient><linearGradient id="linear-gradient-2" x1="125.46" y1="262.34" x2="200.84" y2="262.34" xlink:href="#linear-gradient"/><linearGradient id="linear-gradient-3" x1="10.84" y1="362.08" x2="86.22" y2="362.08" xlink:href="#linear-gradient"/><linearGradient id="linear-gradient-4" x1="125.46" y1="362.08" x2="200.84" y2="362.08" xlink:href="#linear-gradient"/><linearGradient id="linear-gradient-5" x1="504.42" y1="264.46" x2="579.8" y2="264.46" xlink:href="#linear-gradient"/><linearGradient id="linear-gradient-6" x1="401.16" y1="264.46" x2="476.54" y2="264.46" xlink:href="#linear-gradient"/><linearGradient id="linear-gradient-7" x1="405.29" y1="357.84" x2="480.67" y2="357.84" xlink:href="#linear-gradient"/><linearGradient id="linear-gradient-8" x1="505.45" y1="357.84" x2="580.83" y2="357.84" xlink:href="#linear-gradient"/><linearGradient id="linear-gradient-9" x1="271.05" y1="339.27" x2="297.9" y2="339.27" xlink:href="#linear-gradient"/><linearGradient id="linear-gradient-10" x1="308.23" y1="339.27" x2="335.08" y2="339.27" xlink:href="#linear-gradient"/><linearGradient id="linear-gradient-11" x1="264.86" y1="263.4" x2="340.24" y2="263.4" xlink:href="#linear-gradient"/></defs><title>school</title><rect class="cls-1" x="0.52" y="213.53" width="594.77" height="202.14"/><rect class="cls-2" x="251.95" y="314.33" width="98.1" height="100.8"/><polygon class="cls-3" points="300.48 0.78 300.48 39.9 302.01 39.9 302.03 0.78 300.48 0.78"/><path class="cls-4" d="M710.94,98.8a2.83,2.83,0,0,1,1.18-1.67c2.56-1.92,6.21-1.41,9.32-.54s6.4,2,9.48,1L729.15,85c-1.94,1.5-4.57,1.83-7,1.78s-5-.43-7.41-.09c-1.77.23-3.71,1.07-4.17,2.74" transform="translate(-409 -84.75)"/><rect class="cls-5" x="224.59" y="218.84" width="146.63" height="196.42"/><rect class="cls-6" x="224.59" y="214.06" width="146.63" height="5.06"/><rect class="cls-6" x="116.68" y="214.06" width="102.74" height="5.31"/><rect class="cls-6" y="214.06" width="102.74" height="5.31"/><rect class="cls-6" x="377.93" y="214.06" width="102.74" height="5.31"/><rect class="cls-6" x="492.55" y="214.06" width="102.74" height="5.31"/><polygon class="cls-1" points="219.43 219.37 218.67 415.26 224.59 415.67 224.59 214.06 219.43 214.06 219.43 219.37"/><polygon class="cls-1" points="371.22 213 377.93 214.06 377.93 415.26 371.22 415.67 371.22 213"/><rect class="cls-5" x="8.78" y="235.28" width="79.51" height="56.24"/><rect class="cls-7" x="4.65" y="291.52" width="89.84" height="7.43"/><rect class="cls-6" x="8.78" y="287.64" width="79.51" height="3.88"/><rect class="cls-8" x="10.84" y="237.41" width="75.38" height="47.75"/><rect class="cls-5" x="123.39" y="236.34" width="79.51" height="56.24"/><rect class="cls-7" x="119.26" y="292.58" width="89.84" height="7.43"/><rect class="cls-6" x="123.39" y="288.7" width="79.51" height="3.88"/><rect class="cls-9" x="125.46" y="238.47" width="75.38" height="47.75"/><rect class="cls-5" x="8.78" y="336.09" width="79.51" height="56.24"/><rect class="cls-7" x="4.65" y="392.32" width="89.84" height="7.43"/><rect class="cls-6" x="8.78" y="388.44" width="79.51" height="3.88"/><rect class="cls-10" x="10.84" y="338.21" width="75.38" height="47.75"/><rect class="cls-5" x="123.39" y="336.09" width="79.51" height="56.24"/><rect class="cls-7" x="119.26" y="392.32" width="89.84" height="7.43"/><rect class="cls-6" x="123.39" y="388.44" width="79.51" height="3.88"/><rect class="cls-11" x="125.46" y="338.21" width="75.38" height="47.75"/><rect class="cls-5" x="502.36" y="238.47" width="79.51" height="56.24"/><rect class="cls-7" x="498.22" y="294.7" width="89.84" height="7.43"/><rect class="cls-6" x="502.36" y="290.82" width="79.51" height="3.88"/><rect class="cls-12" x="504.42" y="240.59" width="75.38" height="47.75"/><rect class="cls-5" x="399.1" y="238.47" width="79.51" height="56.24"/><rect class="cls-7" x="394.97" y="294.7" width="89.84" height="7.43"/><rect class="cls-6" x="399.1" y="290.82" width="79.51" height="3.88"/><rect class="cls-13" x="401.16" y="240.59" width="75.38" height="47.75"/><rect class="cls-5" x="403.23" y="331.84" width="79.51" height="56.24"/><rect class="cls-7" x="399.1" y="388.08" width="89.84" height="7.43"/><rect class="cls-6" x="403.23" y="384.2" width="79.51" height="3.88"/><rect class="cls-14" x="405.29" y="333.96" width="75.38" height="47.75"/><rect class="cls-5" x="503.39" y="331.84" width="79.51" height="56.24"/><rect class="cls-6" x="503.39" y="384.2" width="79.51" height="3.88"/><rect class="cls-15" x="505.45" y="333.96" width="75.38" height="47.75"/><polygon class="cls-7" points="0.52 415.67 0.52 433.71 595.29 436.85 595.29 415.67 0.52 415.67"/><polygon class="cls-6" points="0.52 433.71 0.52 464.48 595.29 464.48 595.29 436.89 0.52 433.71"/><polygon class="cls-5" points="266 305.85 266 415.26 340.52 415.26 340.52 305.94 266 305.85"/><polygon class="cls-5" points="303.06 360.49 303.06 305.89 340.24 306.38 340.24 415.67 303.26 415.26 303.06 360.49"/><rect class="cls-16" x="271.05" y="320.17" width="26.85" height="38.2"/><rect class="cls-17" x="308.23" y="320.17" width="26.85" height="38.2"/><rect class="cls-5" x="262.79" y="237.41" width="79.51" height="56.24"/><rect class="cls-7" x="258.66" y="293.64" width="89.84" height="7.43"/><rect class="cls-6" x="262.79" y="289.76" width="79.51" height="3.88"/><rect class="cls-18" x="264.86" y="239.53" width="75.38" height="47.75"/><rect class="cls-6" x="225.1" y="425.75" width="146.63" height="39.26"/><rect class="cls-1" x="224.59" y="433.71" width="146.63" height="10.61"/><rect class="cls-1" x="224.59" y="454.93" width="146.63" height="14.32"/><rect class="cls-2" x="213.23" y="409.3" width="19.62" height="59.42"/><rect class="cls-2" x="361.92" y="409.3" width="19.62" height="59.42"/><rect class="cls-19" x="4.13" y="298.42" width="89.84" height="2.12"/><rect class="cls-19" x="118.75" y="300.54" width="89.84" height="2.12"/><rect class="cls-19" x="257.11" y="300.54" width="89.84" height="2.12"/><rect class="cls-19" x="395.48" y="301.6" width="89.84" height="2.12"/><rect class="cls-19" x="498.74" y="301.6" width="89.84" height="2.12"/><rect class="cls-19" x="499.77" y="394.98" width="89.84" height="2.12"/><rect class="cls-19" x="399.61" y="396.04" width="89.84" height="2.12"/><rect class="cls-7" x="499.77" y="387.55" width="89.84" height="7.43"/><rect class="cls-19" x="117.72" y="399.22" width="89.84" height="2.12"/><rect class="cls-19" x="4.13" y="400.28" width="89.84" height="2.12"/><rect class="cls-19" x="270.54" y="357.84" width="26.85" height="3.18"/><rect class="cls-19" x="307.71" y="357.84" width="26.85" height="3.18"/><rect class="cls-19" x="251.95" y="413.01" width="98.1" height="2.12"/><rect class="cls-20" x="213.75" y="397.1" width="19.62" height="11.67" rx="2" ry="2"/><rect class="cls-20" x="362.44" y="397.1" width="19.62" height="11.67" rx="2" ry="2"/><rect class="cls-19" x="213.75" y="406.65" width="19.62" height="3.18"/><rect class="cls-19" x="362.44" y="406.65" width="19.62" height="3.18"/><rect class="cls-21" x="595.8" y="213.53" width="6.2" height="251.48"/><rect class="cls-19" y="465.01" width="212.71" height="3.18"/><rect class="cls-19" y="435.3" width="212.71" height="3.18"/><rect class="cls-19" x="382.06" y="465.01" width="217.88" height="3.18"/><rect class="cls-19" x="382.06" y="433.18" width="212.71" height="3.18"/><rect class="cls-19" x="233.37" y="466.07" width="128.04" height="2.12"/><rect class="cls-19" x="251.95" y="314.33" width="2.07" height="99.74"/><rect class="cls-19" x="350.05" y="314.33" width="2.07" height="100.8"/><path class="cls-1" d="M705.72,453.36a4.94,4.94,0,0,0-1.8,4.67c.43,1.71,2.59,2.88,4,1.87a3.43,3.43,0,0,0,1.15-1.76,4.49,4.49,0,0,0-.29-3.89,2.43,2.43,0,0,0-3.43-.71" transform="translate(-409 -84.75)"/><path class="cls-1" d="M716.05,453.36a4.92,4.92,0,0,0-1.8,4.67c.43,1.71,2.58,2.88,4,1.87a3.49,3.49,0,0,0,1.15-1.76,4.49,4.49,0,0,0-.29-3.89,2.45,2.45,0,0,0-3.44-.71" transform="translate(-409 -84.75)"/><polygon class="cls-1" points="0 214.59 302.55 39.51 599.93 213.53 0 214.59"/><ellipse class="cls-6" cx="303.07" cy="85.67" rx="27.36" ry="26"/><path class="cls-6" d="M709.87,171.65a1.5,1.5,0,0,0,0-3,1.5,1.5,0,0,0,0,3Z" transform="translate(-409 -84.75)"/><path class="cls-6" d="M710.59,171.38a1.5,1.5,0,0,0,0-3,1.5,1.5,0,0,0,0,3Z" transform="translate(-409 -84.75)"/><path class="cls-6" d="M711.3,172.35a1.5,1.5,0,0,0,0-3,1.5,1.5,0,0,0,0,3Z" transform="translate(-409 -84.75)"/><path class="cls-6" d="M711.3,172.35a113.86,113.86,0,0,0,12.52-.52c1.9-.19,1.92-3.19,0-3a113.86,113.86,0,0,1-12.52.52c-1.93,0-1.93,3,0,3Z" transform="translate(-409 -84.75)"/><ellipse class="cls-22" cx="303.58" cy="85.67" rx="23.75" ry="22.81"/><ellipse class="cls-23" cx="304.1" cy="86.2" rx="3.61" ry="3.18"/><path d="M714.8,166.34l-.34-14.14c-.05-1.93-3.05-1.94-3,0l.34,14.14c.05,1.93,3.05,1.93,3,0Z" transform="translate(-409 -84.75)"/><path d="M718.46,172.51a114.61,114.61,0,0,1,13.47-1.2c1.93-.06,1.93-3.07,0-3a117.51,117.51,0,0,0-14.27,1.31c-1.9.29-1.1,3.18.8,2.89Z" transform="translate(-409 -84.75)"/><rect class="cls-24" x="106.36" y="153.05" width="386.19" height="59.42"/><rect class="cls-7" x="106.36" y="210.35" width="386.19" height="4.24"/><text x="-409" y="-84.75"></text><rect class="cls-7" x="106.36" y="156.23" width="4.13" height="57.3"/><rect class="cls-7" x="488.42" y="155.17" width="4.13" height="57.3"/><polygon class="cls-21" points="302.55 39.51 308.74 34.21 599.93 206.1 599.93 213.53 302.55 39.51"/><text class="cls-25" transform="translate(145.19 196.35) scale(0.97 1)">Language School</text></svg>