<?xml version="1.0" encoding="utf-8"?>
<!-- Generator: Adobe Illustrator 21.0.0, SVG Export Plug-In . SVG Version: 6.00 Build 0)  -->
<svg version="1.1" id="Layer_1" xmlns="http://www.w3.org/2000/svg" xmlns:xlink="http://www.w3.org/1999/xlink" x="0px" y="0px"
	 viewBox="0 0 1366 768" style="enable-background:new 0 0 1366 768;" xml:space="preserve">
<style type="text/css">
	.st0{fill:#F0FFFF;stroke:#000000;stroke-miterlimit:10;}
</style>
<path class="st0" d="M411.6,221.6l16.5-19.7c10.6-12.6,26.4-16.1,39.9-8.7l61.4,33.4c13.1,7.1,19,4.9,40.9-1.7l64.7-41.9
	c15.9-10.3,32-3.4,48.1,8.6l23.2,16c1.1,0.8,2.2,1.7,3.1,2.8c28.5,32.7,31.1,56.7,26.9,98.7c-0.1,1-0.3,2.1-0.5,3.1l-18.2,72.5
	c-0.2,1-0.4,1.9-0.5,2.9c-2.2,21.2-11.8,67.7-18.6,87.4c-0.1,0.4-0.3,0.8-0.4,1.3l-32.6,118.1c-0.4,1.4-6.1,20.6-6.9,21.7
	c-14.4,19.3-14,10.7-18.3-3.3l-45.8-142.3c-1.4-4.2-11-30-14.7-32.2c-1.8-1.1-3.5-1.6-5-1.5c-4.6,0.1-8,4.8-10.7,11.1
	c-3.9,9.1-7.2,18.5-9.7,28.3c-0.1,0.3-0.2,0.6-0.3,0.9l-41.8,135.8c-3.3,11.7-1.2,27.1-10.7,20.6c-6.4-4.4-11-10.6-13.2-17.5
	l-75.2-231.6l-15.6-42.8c-6.1-16.9-8.1-35.6-5.6-53.8l4.1-30.1C398,243.9,403.4,231.3,411.6,221.6z"/>
<path class="st0" d="M537.5,228.6c9.4,7,32.5,22.3,65.5,24.2c21.2,1.2,38.3-3.5,48.5-7.3"/>
<path class="st0" d="M529.5,226.5"/>
<line class="st0" x1="556" y1="229" x2="537.8" y2="232.9"/>
</svg>
